<svg width="18" height="18" viewBox="0 0 18 18" fill="none" xmlns="http://www.w3.org/2000/svg">
<path d="M12.5 11.0005H11.71L11.43 10.7305C12.0549 10.0044 12.5117 9.14924 12.7675 8.22608C13.0234 7.30292 13.072 6.33462 12.91 5.39046C12.44 2.61046 10.12 0.390463 7.31997 0.0504631C6.33559 -0.0740712 5.33576 0.0282347 4.397 0.349552C3.45824 0.670869 2.60542 1.20268 1.90381 1.90429C1.20219 2.60591 0.670381 3.45872 0.349064 4.39749C0.0277464 5.33625 -0.0745594 6.33608 0.0499748 7.32046C0.389975 10.1205 2.60998 12.4405 5.38998 12.9105C6.33413 13.0725 7.30243 13.0239 8.22559 12.768C9.14875 12.5122 10.0039 12.0554 10.73 11.4305L11 11.7105V12.5005L15.25 16.7505C15.66 17.1605 16.33 17.1605 16.74 16.7505C17.15 16.3405 17.15 15.6705 16.74 15.2605L12.5 11.0005ZM6.49997 11.0005C4.00997 11.0005 1.99997 8.99046 1.99997 6.50046C1.99997 4.01046 4.00997 2.00046 6.49997 2.00046C8.98997 2.00046 11 4.01046 11 6.50046C11 8.99046 8.98997 11.0005 6.49997 11.0005Z" fill="#007067"/>
</svg>
