<svg width="25" height="28" viewBox="0 0 25 28" fill="none" xmlns="http://www.w3.org/2000/svg">
<path d="M20.4966 26.8766C18.9459 28.3542 17.2527 28.1209 15.6229 27.421C13.8981 26.7055 12.3157 26.6744 10.496 27.421C8.21736 28.3853 7.01476 28.1053 5.65392 26.8766C-2.06807 19.0532 -0.92876 7.1391 7.8376 6.7036C9.9738 6.81247 11.4612 7.85456 12.7113 7.94789C14.5785 7.5746 16.3666 6.5014 18.3604 6.64138C20.7498 6.82803 22.5537 7.76124 23.7405 9.44103C18.8035 12.3496 19.9744 18.7421 24.5 20.5307C23.598 22.8638 22.4271 25.1813 20.4808 26.8922L20.4966 26.8766ZM12.5531 6.61028C12.3157 3.14183 15.1798 0.279965 18.4712 0C18.93 4.01283 14.7684 6.99912 12.5531 6.61028Z" fill="white"/>
</svg>
