<svg width="16" height="20" viewBox="0 0 16 20" fill="none" xmlns="http://www.w3.org/2000/svg">
<path d="M11.4376 4.5C11.4376 5.41168 11.0754 6.28602 10.4307 6.93068C9.78608 7.57534 8.91174 7.9375 8.00006 7.9375C7.08838 7.9375 6.21404 7.57534 5.56938 6.93068C4.92472 6.28602 4.56256 5.41168 4.56256 4.5C4.56256 3.58832 4.92472 2.71398 5.56938 2.06932C6.21404 1.42466 7.08838 1.0625 8.00006 1.0625C8.91174 1.0625 9.78608 1.42466 10.4307 2.06932C11.0754 2.71398 11.4376 3.58832 11.4376 4.5ZM1.12598 17.4415C1.15543 15.6378 1.89262 13.918 3.17856 12.6529C4.46449 11.3878 6.19614 10.6788 8.00006 10.6788C9.80398 10.6788 11.5356 11.3878 12.8216 12.6529C14.1075 13.918 14.8447 15.6378 14.8741 17.4415C12.7176 18.4304 10.3725 18.9407 8.00006 18.9375C5.54706 18.9375 3.21873 18.4022 1.12598 17.4415Z" stroke="#6B7280" stroke-width="2" stroke-linecap="round" stroke-linejoin="round"/>
</svg>
