<svg width="152" height="153" viewBox="0 0 152 153" fill="none" xmlns="http://www.w3.org/2000/svg">
<g clip-path="url(#clip0_1_463)">
<path d="M151.341 85.2175C149.907 79.4653 149.906 72.8204 151.339 67.0678C151.375 66.9227 151.41 66.7772 151.443 66.6312C152.243 63.1179 152.174 59.4625 151.241 55.9821C150.308 52.5017 148.541 49.3014 146.091 46.6588C145.989 46.5485 145.886 46.4392 145.781 46.3311C141.664 42.067 138.342 36.3138 136.708 30.6164C136.666 30.4717 136.623 30.3275 136.579 30.1835C135.515 26.7409 133.627 23.6098 131.079 21.062C128.531 18.5142 125.399 16.6266 121.956 15.563C121.814 15.519 121.671 15.4765 121.528 15.4354C115.829 13.7999 110.073 10.4759 105.808 6.35756C105.7 6.25393 105.592 6.15132 105.482 6.04976C102.84 3.59967 99.6391 1.83165 96.1582 0.899188C92.6773 -0.0332747 89.0213 -0.101988 85.5078 0.699012C85.3622 0.732209 85.217 0.766858 85.0723 0.802949C79.3191 2.23751 72.6727 2.23928 66.9191 0.806731C66.7747 0.77079 66.6299 0.736282 66.4847 0.703219C62.9714 -0.0966748 59.3159 -0.0272839 55.8355 0.905369C52.3551 1.83802 49.1548 3.60577 46.5123 6.05526C46.4015 6.15794 46.2918 6.26169 46.1833 6.36648C41.9201 10.4834 36.1681 13.8051 30.4715 15.4399C30.3266 15.4814 30.1822 15.5245 30.038 15.569C26.5958 16.6334 23.4652 18.5214 20.9179 21.0695C18.3705 23.6175 16.4832 26.7486 15.4198 30.191C15.3755 30.3343 15.3327 30.478 15.2914 30.6219C13.6571 36.3199 10.3353 42.0738 6.21808 46.3384C6.11391 46.4463 6.01077 46.5553 5.90869 46.6654C3.4592 49.308 1.69144 52.5083 0.75879 55.9887C-0.173864 59.4691 -0.243265 63.1245 0.556629 66.6378C0.589943 66.7841 0.624722 66.93 0.660957 67.0755C2.09404 72.8275 2.09344 79.4717 0.659815 85.2235C0.62347 85.3694 0.588589 85.5156 0.555182 85.6623C-0.24494 89.176 -0.175478 92.8318 0.757583 96.3126C1.69065 99.7933 3.45909 102.994 5.90942 105.636C6.01064 105.745 6.11289 105.853 6.21616 105.96C10.3351 110.226 13.6591 115.983 15.2953 121.683C15.3362 121.825 15.3786 121.967 15.4224 122.109C16.486 125.552 18.3737 128.683 20.9217 131.231C23.4697 133.778 26.6011 135.666 30.0439 136.729C30.1864 136.773 30.3293 136.815 30.4726 136.856C36.1718 138.491 41.9279 141.813 46.1939 145.93C46.3011 146.034 46.4094 146.136 46.5189 146.238C49.1614 148.687 52.3617 150.455 55.8421 151.388C59.3225 152.32 62.9779 152.39 66.4912 151.59C66.6376 151.557 66.7835 151.522 66.9289 151.485C72.6809 150.052 79.3251 150.053 85.077 151.487C85.2228 151.523 85.3691 151.558 85.5158 151.591C89.0295 152.391 92.6853 152.322 96.166 151.389C99.6467 150.456 102.847 148.687 105.49 146.237C105.599 146.136 105.707 146.033 105.814 145.93C110.08 141.811 115.836 138.487 121.535 136.851C121.678 136.81 121.821 136.768 121.963 136.724C125.406 135.66 128.537 133.773 131.085 131.225C133.633 128.677 135.52 125.546 136.584 122.103C136.628 121.96 136.671 121.817 136.712 121.673C138.347 115.974 141.669 110.219 145.787 105.954C145.891 105.846 145.993 105.738 146.095 105.628C148.545 102.985 150.312 99.7847 151.245 96.304C152.177 92.8234 152.246 89.1678 151.446 85.6545C151.412 85.5084 151.378 85.3627 151.341 85.2175Z" fill="#018C8B"/>
<path d="M62.3576 105.154L41.2381 84.048C40.4365 83.2452 39.9863 82.1572 39.9863 81.0227C39.9863 79.8883 40.4365 78.8002 41.2381 77.9974L43.8039 75.4283C44.6067 74.6268 45.6948 74.1766 46.8292 74.1766C47.9636 74.1766 49.0517 74.6268 49.8545 75.4283L65.2067 90.7706L101.362 52.349C102.14 51.5235 103.214 51.0405 104.348 51.0059C105.481 50.9713 106.583 51.388 107.41 52.1646L110.045 54.6513C110.871 55.4294 111.355 56.5039 111.389 57.6385C111.424 58.7731 111.007 59.8749 110.229 60.7019L68.5103 105.059C68.1175 105.478 67.6446 105.813 67.1195 106.045C66.5945 106.277 66.0282 106.401 65.4542 106.41C64.8802 106.419 64.3103 106.313 63.7783 106.097C63.2463 105.881 62.7632 105.561 62.3576 105.154Z" fill="white"/>
</g>
<defs>
<clipPath id="clip0_1_463">
<rect width="152" height="152" fill="white" transform="translate(0 0.146301)"/>
</clipPath>
</defs>
</svg>
