<svg width="200" height="70" viewBox="0 0 200 70" fill="none" xmlns="http://www.w3.org/2000/svg">
<path d="M29.7797 0.000396626C29.9954 0.000699626 30.2111 0.000396888 30.4267 3.91636e-05C31.0548 -0.000170627 31.6821 0.00312277 32.3096 0.0312759C32.3786 0.0342388 32.3786 0.0342388 32.4489 0.0372616C32.8218 0.056661 33.1821 0.117792 33.5479 0.190319C33.8505 0.248078 34.1562 0.276918 34.4629 0.304253C34.6907 0.326253 34.8707 0.372244 35.0809 0.458251C35.2523 0.495862 35.4254 0.523654 35.5983 0.553281C36.5892 0.733581 37.5536 1.02026 38.5161 1.31352C38.6052 1.34061 38.6052 1.34061 38.6961 1.36824C39.0063 1.4644 39.3083 1.57051 39.6086 1.69401C39.7722 1.76048 39.9371 1.82283 40.1025 1.8848C40.7567 2.13092 41.3903 2.3819 42.0075 2.71081C42.1573 2.78673 42.3077 2.86135 42.458 2.93607C42.5344 2.97433 42.6107 3.01261 42.687 3.0509C42.8267 3.12077 42.9667 3.18952 43.1072 3.25768C43.8585 3.6243 44.5752 4.05413 45.2737 4.51286C45.3107 4.5371 45.3476 4.56134 45.3857 4.58631C45.9579 4.96268 46.523 5.3473 47.0758 5.75177C47.1625 5.81504 47.1625 5.81504 47.2509 5.87958C47.5982 6.13646 47.933 6.40506 48.263 6.68382C48.4145 6.81095 48.5683 6.93434 48.723 7.05756C49.1091 7.37279 49.4672 7.71743 49.8284 8.06051C49.9489 8.17432 50.0703 8.28711 50.192 8.39963C50.2319 8.43661 50.2717 8.47359 50.3128 8.51169C50.3883 8.5816 50.4638 8.65136 50.5396 8.72094C50.755 8.92127 50.9514 9.13053 51.1428 9.35374C51.2793 9.51001 51.4229 9.65882 51.5666 9.80839C51.9679 10.2266 52.3385 10.6554 52.6884 11.117C52.7659 11.2173 52.8454 11.3154 52.9259 11.4133C53.3768 11.9623 53.7782 12.5375 54.1714 13.1289C54.2047 13.1786 54.238 13.2282 54.2724 13.2794C55.2795 14.7817 56.1453 16.3427 56.8674 18.0001C56.8827 18.0351 56.898 18.07 56.9137 18.1061C57.1039 18.5427 57.2761 18.9813 57.4314 19.4314C57.4903 19.595 57.5564 19.7526 57.6276 19.9112C58.8792 22.8862 59.3073 26.441 59.31 29.6465C59.3101 29.6934 59.3101 29.7403 59.3102 29.7886C59.3094 30.8114 59.2388 31.8225 59.127 32.8388C59.1198 32.9061 59.1125 32.9734 59.1051 33.0428C59.0078 33.9066 58.8391 34.7529 58.6554 35.6017C58.6399 35.6738 58.6399 35.6738 58.6242 35.7473C58.4823 36.4042 58.3053 37.0421 58.0945 37.6801C58.0388 37.8502 57.9863 38.0211 57.9339 38.1922C57.9161 38.2497 57.8984 38.3072 57.8802 38.3664C57.8494 38.4682 57.8194 38.5703 57.7904 38.6726C57.7006 38.9879 57.5848 39.2839 57.4554 39.5851C57.3775 39.7746 57.3104 39.9659 57.244 40.1597C57.1362 40.4662 57.0082 40.7491 56.8582 41.0369C56.7629 41.2275 56.6769 41.4202 56.5917 41.6153C56.2932 42.2977 55.9458 42.9469 55.5792 43.5948C55.5529 43.6415 55.5266 43.6882 55.4995 43.7363C54.9087 44.7824 54.2685 45.7839 53.5519 46.7484C53.528 46.7807 53.5041 46.813 53.4795 46.8462C53.3361 47.04 53.1909 47.2323 53.0451 47.4242C53.0014 47.4823 52.9577 47.5405 52.9127 47.6004C52.5619 48.0645 52.1886 48.5064 51.8062 48.9447C51.769 48.9876 51.7318 49.0305 51.6936 49.0747C51.6002 49.182 51.5063 49.2887 51.412 49.3952C51.3722 49.4402 51.3324 49.4852 51.2914 49.5316C51.0598 49.7916 50.8245 50.0443 50.5739 50.2861C50.4772 50.3856 50.3889 50.4863 50.2995 50.592C49.9748 50.9637 49.62 51.3067 49.2706 51.6547C49.1905 51.7346 49.1105 51.8146 49.0304 51.8946C48.8588 52.0661 48.687 52.2375 48.5151 52.4089C48.2433 52.6799 47.9717 52.9512 47.7001 53.2225C47.1238 53.7982 46.5472 54.3737 45.9706 54.9491C45.3477 55.5709 44.7248 56.1926 44.1022 56.8146C43.8323 57.0842 43.5623 57.3537 43.2921 57.623C43.1241 57.7906 42.9562 57.9583 42.7884 58.1261C42.7106 58.2037 42.6328 58.2813 42.555 58.3589C42.4486 58.4649 42.3423 58.5711 42.2361 58.6773C42.1901 58.723 42.1901 58.723 42.1431 58.7696C41.9544 58.9589 41.7828 59.1561 41.6133 59.3628C41.5207 59.4579 41.4267 59.5516 41.3318 59.6443C41.2647 59.7112 41.1978 59.7782 41.1309 59.8452C39.7819 61.1942 38.4328 62.5433 37.0838 63.8923C37.0316 63.9446 37.0316 63.9446 36.9783 63.9979C36.8957 64.0804 36.8128 64.1625 36.7298 64.2445C36.6028 64.3733 36.4823 64.5058 36.3626 64.6414C36.1104 64.9232 35.8473 65.1915 35.5785 65.4574C35.5314 65.5043 35.4843 65.5512 35.4358 65.5995C35.2871 65.7475 35.1383 65.8953 34.9894 66.043C34.7926 66.2383 34.5959 66.4339 34.3994 66.6295C34.355 66.6734 34.3106 66.7174 34.2648 66.7627C34.0314 66.995 33.8086 67.2322 33.5938 67.4818C33.3832 67.7233 33.1539 67.9475 32.9279 68.1744C32.8392 68.2636 32.7512 68.3533 32.6632 68.4431C32.2208 68.8902 31.761 69.2613 31.1952 69.5415C31.1029 69.5881 31.1029 69.5881 31.0087 69.6357C30.551 69.8415 30.1262 69.9223 29.6255 69.9146C29.571 69.914 29.5165 69.9134 29.4604 69.9128C27.9236 69.8785 26.9896 68.9169 25.9698 67.8896C25.8237 67.7425 25.6772 67.5958 25.5306 67.4492C25.4368 67.3551 25.343 67.261 25.2493 67.1669C25.1841 67.1017 25.1841 67.1017 25.1177 67.0351C24.8977 66.8132 24.6909 66.5881 24.4939 66.3457C24.3976 66.2557 24.3976 66.2557 24.3038 66.1838C24.1588 66.0643 24.0353 65.9392 23.9138 65.796C23.7246 65.5769 23.5261 65.3707 23.3206 65.167C23.2844 65.1308 23.2482 65.0947 23.2108 65.0574C23.133 64.9798 23.0551 64.9022 22.9771 64.8247C22.8533 64.7017 22.7297 64.5785 22.6062 64.4552C22.3439 64.1936 22.0815 63.9322 21.8189 63.6708C21.5145 63.3677 21.2101 63.0644 20.906 62.761C20.7848 62.6402 20.6635 62.5196 20.5422 62.399C20.4672 62.3242 20.3922 62.2494 20.3173 62.1746C20.284 62.1417 20.2508 62.1087 20.2165 62.0748C20.0122 61.8705 19.8205 61.6582 19.6315 61.4397C19.5035 61.2943 19.3682 61.1575 19.2309 61.021C19.2029 60.993 19.1749 60.9651 19.1461 60.9364C19.0862 60.8767 19.0263 60.8171 18.9663 60.7576C18.8709 60.6629 18.7757 60.5681 18.6806 60.4732C18.4785 60.2719 18.2763 60.0707 18.074 59.8696C17.8394 59.6362 17.6048 59.4028 17.3704 59.1691C17.2774 59.0764 17.1841 58.9839 17.0909 58.8914C17.033 58.8337 16.9751 58.776 16.9172 58.7182C16.8672 58.6686 16.8173 58.6189 16.7658 58.5677C16.6485 58.4457 16.5375 58.3229 16.4273 58.1947C16.1892 57.9204 15.9333 57.6655 15.6757 57.4095C15.6225 57.3563 15.5693 57.3032 15.516 57.25C15.4023 57.1364 15.2884 57.0229 15.1744 56.9094C14.9939 56.7296 14.8135 56.5496 14.6332 56.3696C14.2505 55.9875 13.8675 55.6056 13.4844 55.2237C13.0708 54.8113 12.6572 54.3988 12.2439 53.9861C12.065 53.8075 11.886 53.6291 11.7069 53.4507C11.5951 53.3394 11.4834 53.2279 11.3718 53.1164C11.2961 53.0409 11.2203 52.9655 11.1445 52.8902C10.901 52.6467 10.6669 52.3991 10.4424 52.138C10.3409 52.021 10.2341 51.9106 10.1241 51.8015C10.0825 51.7601 10.041 51.7188 9.9982 51.6762C9.95466 51.6331 9.91113 51.59 9.86627 51.5457C9.79726 51.477 9.79726 51.477 9.72686 51.4069C9.58106 51.2618 9.43508 51.1169 9.28905 50.972C9.09648 50.7809 8.9041 50.5896 8.71183 50.3983C8.66829 50.3552 8.62476 50.3121 8.5799 50.2678C8.34757 50.0365 8.12473 49.8006 7.91145 49.5516C7.76797 49.3857 7.61637 49.2274 7.46588 49.0678C7.15735 48.7377 6.86721 48.3974 6.58598 48.0436C6.53023 47.9748 6.47442 47.906 6.41857 47.8373C6.10191 47.4465 5.79793 47.0526 5.51601 46.6358C5.46885 46.5674 5.42163 46.4991 5.37434 46.4308C5.24024 46.237 5.10709 46.0426 4.9742 45.8479C4.90315 45.7444 4.83133 45.6414 4.75929 45.5385C4.30489 44.8824 3.92568 44.1829 3.54502 43.4822C3.51614 43.4291 3.48727 43.376 3.45752 43.3213C2.53401 41.6139 1.78834 39.7931 1.23733 37.9312C1.19818 37.7998 1.15806 37.6687 1.11708 37.5378C0.912912 36.8786 0.770117 36.2118 0.637801 35.5349C0.62672 35.4787 0.61564 35.4225 0.604223 35.3646C0.310559 33.8716 0.310559 33.8716 0.2389 33.1199C0.226975 32.9975 0.213899 32.8753 0.200129 32.7531C-0.0977918 30.0989 -0.0933776 27.3353 0.420698 24.7087C0.451254 24.5414 0.475972 24.3737 0.500535 24.2054C0.557765 23.8265 0.638289 23.4554 0.725792 23.0824C0.739983 23.0201 0.754175 22.9579 0.768797 22.8937C0.840487 22.5849 0.92094 22.2855 1.02563 21.9864C1.07251 21.8411 1.10779 21.6951 1.14287 21.5465C1.25084 21.1042 1.39756 20.6757 1.54587 20.2456C1.56074 20.2024 1.57562 20.1591 1.59095 20.1146C2.38224 17.8244 3.46729 15.6672 4.78392 13.6357C4.82378 13.574 4.86363 13.5122 4.90469 13.4485C5.30233 12.842 5.73264 12.2567 6.19046 11.6942C6.29949 11.5582 6.40521 11.4201 6.51041 11.2811C6.74233 10.9752 6.98268 10.6845 7.24382 10.4026C7.36555 10.2667 7.47792 10.1272 7.59039 9.98369C7.90736 9.59446 8.26015 9.24354 8.61648 8.89057C8.72973 8.77836 8.84251 8.6657 8.95524 8.55296C9.30094 8.2082 9.64671 7.86766 10.0211 7.55382C10.0841 7.49907 10.147 7.44422 10.2099 7.38928C10.6314 7.02422 11.0614 6.67294 11.5028 6.33221C11.5944 6.26136 11.6855 6.18999 11.7765 6.11847C12.6025 5.47435 13.4641 4.89054 14.3573 4.34392C14.4047 4.31482 14.4521 4.28572 14.5009 4.25574C15.4644 3.66673 16.4657 3.08723 17.5109 2.6545C17.5829 2.61898 17.6546 2.58276 17.7256 2.54539C18.108 2.35235 18.5082 2.20894 18.9117 2.06672C19.1504 1.98256 19.3839 1.89376 19.6156 1.79219C20.6418 1.35918 21.7263 1.06703 22.8044 0.796135C22.865 0.780882 22.9255 0.765628 22.9879 0.749913C23.8533 0.534684 24.719 0.375486 25.6024 0.254704C25.7411 0.235083 25.7411 0.235083 25.9017 0.176681C27.1858 -0.00139717 28.4859 -0.00176019 29.7797 0.000396626ZM25.4323 5.92533C25.1886 5.98639 24.9469 6.01629 24.698 6.04742C24.0427 6.13312 23.4264 6.33846 22.8001 6.54333C22.5992 6.6082 22.3972 6.66902 22.1947 6.72883C21.5387 6.92499 20.9046 7.18488 20.2703 7.4412C20.2703 7.47836 20.2703 7.51553 20.2703 7.55382C20.2076 7.56079 20.1449 7.56776 20.0802 7.57494C19.8743 7.59024 19.8743 7.59024 19.7635 7.72277C19.6809 7.75909 19.5969 7.79235 19.5123 7.82374C19.198 7.94595 18.9006 8.09112 18.602 8.24719C18.519 8.2905 18.519 8.2905 18.4344 8.33469C17.7865 8.67889 17.1695 9.07072 16.5536 9.4685C16.4864 9.5112 16.4193 9.55389 16.3521 9.59653C15.2022 10.3411 14.0629 11.2465 13.1121 12.2344C13.0111 12.3352 12.9068 12.4273 12.7979 12.5194C12.5415 12.7421 12.3086 12.9833 12.0766 13.231C12.0357 13.2739 11.9947 13.3169 11.9525 13.3611C11.9139 13.4022 11.8753 13.4432 11.8355 13.4855C11.8006 13.5225 11.7657 13.5595 11.7298 13.5976C11.6425 13.6866 11.6425 13.6866 11.6542 13.8047C11.6171 13.8047 11.5799 13.8047 11.5416 13.8047C11.4385 13.9134 11.4385 13.9134 11.3269 14.0581C11.2816 14.1149 11.2363 14.1716 11.1896 14.2301C11.1524 14.277 11.1524 14.277 11.1144 14.3249C11.0315 14.4283 10.9471 14.5303 10.8623 14.6322C10.4217 15.1635 10.0137 15.7109 9.62693 16.2825C9.59762 16.3258 9.5683 16.369 9.53809 16.4136C8.85282 17.4307 8.23332 18.4942 7.71226 19.605C7.68981 19.6521 7.66736 19.6991 7.64423 19.7475C6.99055 21.1271 6.46336 22.6173 6.13546 24.1102C6.12382 24.163 6.11218 24.2157 6.10018 24.2701C5.73941 25.9337 5.54879 27.6029 5.55824 29.3051C5.55846 29.3636 5.55867 29.422 5.55889 29.4823C5.56615 31.2019 5.67915 32.8417 6.02283 34.5283C6.03468 34.588 6.04652 34.6478 6.05872 34.7094C6.2272 35.5518 6.47808 36.3624 6.75492 37.175C6.77437 37.2327 6.79383 37.2905 6.81387 37.3499C7.58182 39.6133 8.67339 41.748 10.112 43.6598C10.1828 43.7541 10.2526 43.8491 10.3223 43.9441C10.7923 44.5822 11.2934 45.2016 11.8232 45.7911C11.8564 45.8294 11.8895 45.8677 11.9237 45.9072C12.257 46.2874 12.6141 46.6419 12.9743 46.9964C13.0162 47.0378 13.0581 47.0793 13.1012 47.1219C13.1384 47.1585 13.1756 47.195 13.2139 47.2326C13.3158 47.3389 13.4107 47.4462 13.5059 47.5582C13.7955 47.8912 14.1117 48.1984 14.4245 48.5093C14.5407 48.6247 14.6567 48.7404 14.7727 48.8561C15.0189 49.1016 15.2653 49.347 15.5118 49.5923C15.7976 49.8768 16.0834 50.1614 16.3689 50.4463C16.4826 50.5596 16.5964 50.6727 16.7102 50.7858C16.7806 50.856 16.8511 50.9262 16.9215 50.9965C16.9526 51.0273 16.9838 51.0582 17.0158 51.09C17.1761 51.2502 17.3289 51.414 17.4769 51.5856C17.6866 51.8277 17.9099 52.0538 18.1371 52.2794C18.181 52.3232 18.2249 52.3671 18.2701 52.4122C18.3648 52.5066 18.4595 52.601 18.5542 52.6953C18.7045 52.8448 18.8546 52.9945 19.0046 53.1443C19.3231 53.4621 19.6418 53.7798 19.9606 54.0974C20.3302 54.4657 20.6997 54.834 21.0689 55.2026C21.2163 55.3496 21.3638 55.4964 21.5113 55.6432C21.6022 55.7339 21.6931 55.8246 21.7841 55.9154C21.8247 55.9557 21.8653 55.996 21.9071 56.0376C22.1292 56.2596 22.34 56.4878 22.5451 56.7255C22.6703 56.8683 22.803 57.0024 22.9376 57.1363C22.9651 57.1636 22.9925 57.191 23.0208 57.2192C23.0794 57.2776 23.1382 57.336 23.197 57.3944C23.2905 57.4871 23.3838 57.5801 23.477 57.673C23.675 57.8704 23.8732 58.0675 24.0715 58.2646C24.3015 58.4933 24.5315 58.7221 24.7612 58.9512C24.8524 59.042 24.9437 59.1326 25.0351 59.2233C25.3011 59.488 25.5598 59.7553 25.8039 60.0406C26.0041 60.2669 26.2211 60.4774 26.4354 60.6903C26.4854 60.7403 26.5354 60.7902 26.5869 60.8417C26.7188 60.9732 26.8507 61.1046 26.9827 61.236C27.1167 61.3694 27.2505 61.503 27.3843 61.6366C27.6224 61.8741 27.8607 62.1115 28.099 62.3488C28.1914 62.4409 28.2836 62.5331 28.3758 62.6255C28.4965 62.7459 28.6195 62.8627 28.7456 62.9774C28.7868 63.0154 28.828 63.0534 28.8705 63.0925C29.2011 63.3489 29.5533 63.3462 29.9563 63.3048C30.2776 63.2141 30.4878 63.0176 30.7119 62.7783C30.801 62.6853 30.801 62.6853 30.9418 62.5762C31.0657 62.4739 31.1588 62.3756 31.2623 62.2539C31.4639 62.0213 31.6766 61.8033 31.8956 61.5872C31.9341 61.5489 31.9726 61.5106 32.0123 61.4711C32.1749 61.3094 32.3379 61.148 32.5008 60.9866C32.6207 60.8678 32.7404 60.7488 32.86 60.6298C32.9142 60.5763 32.9142 60.5763 32.9695 60.5217C33.1436 60.3486 33.3111 60.1729 33.4712 59.9868C33.6911 59.7323 33.9279 59.4971 34.1673 59.2611C34.261 59.1682 34.3547 59.0752 34.4484 58.9822C34.5948 58.8371 34.7414 58.6922 34.8881 58.5473C35.0306 58.4065 35.1727 58.2654 35.3147 58.1243C35.3591 58.0807 35.4034 58.0371 35.4491 57.9922C35.4895 57.952 35.53 57.9117 35.5717 57.8703C35.6075 57.8348 35.6433 57.7994 35.6802 57.763C35.7688 57.6787 35.7688 57.6787 35.7567 57.5607C35.7938 57.5607 35.831 57.5607 35.8693 57.5607C35.9513 57.4799 35.9513 57.4799 36.0371 57.3721C36.2911 57.0738 36.5671 56.7995 36.8448 56.5234C36.9025 56.4658 36.9601 56.4082 37.0178 56.3506C37.1412 56.2274 37.2646 56.1043 37.3882 55.9813C37.5839 55.7864 37.7793 55.5912 37.9748 55.396C38.4249 54.9466 38.8753 54.4974 39.3257 54.0483C39.7388 53.6363 40.1518 53.2243 40.5646 52.8121C40.7586 52.6184 40.9526 52.4249 41.1468 52.2315C41.2679 52.1108 41.389 51.9899 41.5099 51.8691C41.5657 51.8135 41.6214 51.7579 41.6773 51.7024C41.9563 51.4248 42.2276 51.1448 42.484 50.8461C42.6111 50.7004 42.746 50.5651 42.8831 50.4287C42.9117 50.4003 42.9402 50.3718 42.9696 50.3425C43.0307 50.2816 43.0918 50.2208 43.153 50.1601C43.2503 50.0636 43.3474 49.9668 43.4444 49.8701C43.6853 49.63 43.9265 49.3901 44.1677 49.1503C44.3721 48.947 44.5764 48.7435 44.7806 48.5399C44.8755 48.4454 44.9706 48.351 45.0657 48.2566C45.3438 47.9798 45.6176 47.7018 45.8715 47.4021C45.9933 47.2607 46.1256 47.1323 46.2592 47.0018C46.4644 46.7994 46.6603 46.5929 46.847 46.3734C46.9436 46.2638 47.042 46.1575 47.1427 46.0517C47.5123 45.6632 47.8631 45.2721 48.1832 44.8417C48.3109 44.6699 48.4427 44.5021 48.5752 44.3339C50.0907 42.373 51.4076 40.1289 52.2567 37.7945C52.2735 37.7491 52.2903 37.7038 52.3076 37.6571C52.6051 36.85 52.8437 36.0338 53.0581 35.201C53.1012 35.036 53.1462 34.8717 53.1918 34.7073C53.4096 33.9111 53.4991 33.0947 53.589 32.276C53.6057 32.1293 53.6243 31.983 53.6439 31.8366C53.7313 31.1363 53.7312 30.4357 53.7314 29.731C53.7315 29.6807 53.7315 29.6305 53.7316 29.5787C53.7315 28.601 53.6895 27.6358 53.566 26.6654C53.5588 26.608 53.5588 26.608 53.5514 26.5494C53.4653 25.8708 53.3432 25.2039 53.1904 24.5372C53.1602 24.4027 53.1323 24.268 53.1056 24.1328C52.9676 23.4489 52.7532 22.7929 52.534 22.1312C52.484 21.9764 52.4375 21.821 52.392 21.6649C52.3347 21.4717 52.2686 21.2926 52.1793 21.1114C52.0696 20.8793 51.9803 20.6471 51.8977 20.404C51.7645 20.0227 51.5948 19.6707 51.4082 19.313C51.3553 19.2102 51.3044 19.1066 51.254 19.0025C50.7942 18.0555 50.2688 17.1458 49.6662 16.2825C49.6248 16.2228 49.6248 16.2228 49.5826 16.1619C49.2651 15.705 48.945 15.2521 48.5963 14.8183C48.5477 14.7562 48.5477 14.7562 48.4982 14.6927C47.6779 13.6495 46.778 12.6539 45.7806 11.7774C45.7494 11.7499 45.7182 11.7224 45.6861 11.6941C45.186 11.2555 44.6717 10.8352 44.1475 10.4258C44.1119 10.398 44.0764 10.3701 44.0397 10.3414C43.444 9.87661 42.8217 9.46692 42.1765 9.0743C42.1181 9.03841 42.1181 9.03841 42.0585 9.00179C40.2939 7.92042 38.3669 7.00651 36.362 6.47396C36.2072 6.42754 36.2072 6.42754 36.1036 6.3735C35.6127 6.13722 35.0113 6.09005 34.479 6.00519C34.3289 5.98087 34.1788 5.9564 34.0287 5.93193C33.9574 5.92035 33.8861 5.90876 33.8125 5.89682C33.6107 5.86341 33.4096 5.82752 33.2085 5.79024C32.8552 5.7248 32.5024 5.67239 32.1455 5.63211C32.1079 5.62785 32.0703 5.62359 32.0315 5.6192C31.903 5.60563 31.7745 5.59394 31.6457 5.58283C31.5893 5.5779 31.533 5.57297 31.4749 5.56789C30.7922 5.51516 30.1093 5.51045 29.4249 5.50892C29.3616 5.50877 29.2983 5.50862 29.2331 5.50847C27.9463 5.50815 26.6772 5.57138 25.4323 5.92533Z" fill="#FDFCF3"/>
<path d="M31.9132 11.0031C31.983 11.0117 31.983 11.0117 32.0543 11.0205C33.0328 11.1446 34.0302 11.3034 34.9647 11.6261C35.2374 11.7194 35.5108 11.8051 35.7882 11.8834C36.1596 11.9882 36.5061 12.1056 36.8543 12.275C36.9935 12.3396 37.1314 12.3879 37.2771 12.4356C37.7713 12.6104 38.2262 12.8783 38.685 13.1289C38.7243 13.1502 38.7636 13.1715 38.8041 13.1935C39.712 13.6864 40.5818 14.2278 41.388 14.8747C41.4701 14.9369 41.5522 14.9991 41.6344 15.0612C42.4049 15.6621 43.1813 16.3219 43.8095 17.0709C43.8798 17.1485 43.9502 17.2259 44.0207 17.3032C44.297 17.6138 44.5514 17.9408 44.8049 18.2699C44.8719 18.3563 44.9399 18.4419 45.008 18.5274C45.4104 19.0428 45.7353 19.603 46.0621 20.1682C46.0872 20.2114 46.1122 20.2545 46.1381 20.299C46.9619 21.7245 47.5707 23.1959 47.9891 24.7879C48.0298 24.9425 48.0719 25.0968 48.1143 25.251C48.6663 27.3014 48.7446 29.5565 48.4836 31.6563C48.476 31.7211 48.4685 31.786 48.4607 31.8528C48.3404 32.8808 48.1821 33.8714 47.8494 34.853C47.7699 35.0934 47.7022 35.3374 47.6329 35.581C47.5537 35.8552 47.4615 36.121 47.3573 36.3867C47.3411 36.4288 47.3249 36.4709 47.3081 36.5144C47.1533 36.91 46.9789 37.296 46.8012 37.6819C46.7728 37.7444 46.7444 37.807 46.7152 37.8715C46.559 38.211 46.3928 38.5355 46.1946 38.8525C46.1141 38.9841 46.042 39.1184 45.9706 39.2551C45.5457 40.0386 45.0465 40.7724 44.5004 41.4756C44.44 41.5534 44.3803 41.6318 44.3208 41.7103C43.8805 42.2878 43.3989 42.8345 42.9085 43.3696C42.8839 43.3965 42.8593 43.4235 42.8339 43.4513C42.2429 44.097 41.6271 44.7179 41.0082 45.3367C40.8651 45.4797 40.7225 45.6232 40.5799 45.7667C40.4692 45.878 40.3582 45.9891 40.2471 46.1002C40.1688 46.1786 40.0907 46.2573 40.0126 46.336C39.9656 46.3829 39.9185 46.4298 39.87 46.4781C39.8286 46.5195 39.7872 46.561 39.7446 46.6037C39.6423 46.6921 39.6423 46.6921 39.5297 46.6921C39.5111 46.7479 39.4925 46.8036 39.4733 46.8611C39.4362 46.8611 39.399 46.8611 39.3607 46.8611C39.3461 46.8948 39.3314 46.9284 39.3163 46.9632C39.243 47.0955 39.1752 47.1604 39.0583 47.2551C38.7593 47.5084 38.4864 47.7862 38.2111 48.0645C38.1151 48.1615 38.019 48.2582 37.9228 48.3549C37.6496 48.6294 37.3767 48.9043 37.1041 49.1794C36.9366 49.3484 36.7688 49.5172 36.6009 49.6857C36.537 49.7499 36.4733 49.8142 36.4097 49.8786C36.3213 49.9681 36.2325 50.0572 36.1437 50.1463C36.0933 50.1971 36.0429 50.248 35.9909 50.3003C35.8692 50.4089 35.8692 50.4089 35.7566 50.4089C35.744 50.4397 35.7314 50.4706 35.7184 50.5024C35.6217 50.6736 35.4923 50.8015 35.3538 50.9388C35.3243 50.9685 35.2948 50.9982 35.2645 51.0288C35.1672 51.1266 35.0695 51.224 34.9717 51.3213C34.904 51.3892 34.8362 51.457 34.7685 51.5249C34.6267 51.6669 34.4846 51.8087 34.3424 51.9503C34.1599 52.1323 33.9778 52.3147 33.7959 52.4973C33.6562 52.6374 33.5163 52.7772 33.3762 52.917C33.3089 52.9841 33.2418 53.0514 33.1747 53.1188C33.0811 53.2126 32.9872 53.3061 32.8932 53.3995C32.8653 53.4276 32.8375 53.4557 32.8088 53.4846C32.6159 53.6751 32.6159 53.6751 32.4904 53.6751C32.4718 53.7308 32.4532 53.7866 32.4341 53.844C32.3459 53.9309 32.3459 53.9309 32.2335 54.0235C32.0675 54.1641 31.9106 54.3082 31.7583 54.4635C31.6153 54.6087 31.4697 54.7463 31.3148 54.8788C31.082 55.0786 30.8683 55.2951 30.6543 55.5147C30.2881 55.8713 30.2881 55.8713 30.1252 55.8713C30.1252 55.9085 30.1252 55.9456 30.1252 55.9839C30.0469 56.0585 30.0469 56.0585 29.9422 56.1353C29.8912 56.1739 29.8912 56.1739 29.8392 56.2134C29.6998 56.2806 29.6498 56.259 29.5058 56.2092C29.3821 56.1052 29.2661 56.0009 29.1503 55.8889C29.0852 55.8272 29.0201 55.7655 28.9549 55.7039C28.9082 55.6596 28.9082 55.6596 28.8606 55.6144C28.754 55.5151 28.6433 55.4217 28.5308 55.3293C28.4809 55.2852 28.4309 55.241 28.3795 55.1955C28.3795 55.1584 28.3795 55.1212 28.3795 55.0829C28.3467 55.0686 28.3139 55.0543 28.28 55.0396C28.1406 54.9628 28.0526 54.8778 27.943 54.7626C27.7626 54.5776 27.5766 54.4056 27.3808 54.2371C27.2232 54.0993 27.0692 53.9577 26.9153 53.8159C26.7216 53.6373 26.5267 53.4604 26.3275 53.2879C25.991 52.9943 25.991 52.9943 25.8453 52.8304C25.8453 52.6614 25.8453 52.6614 25.9194 52.5833C25.9549 52.555 25.9904 52.5267 26.027 52.4975C26.24 52.3191 26.4368 52.1308 26.6315 51.9331C26.6609 51.9034 26.6902 51.8738 26.7204 51.8432C26.8426 51.7195 26.9645 51.5956 27.0862 51.4715C27.1761 51.3799 27.2663 51.2887 27.3566 51.1975C27.3842 51.1691 27.4117 51.1408 27.4401 51.1116C27.5071 51.0442 27.577 50.9796 27.6474 50.9157C27.6846 50.9157 27.7217 50.9157 27.76 50.9157C27.7786 50.8599 27.7972 50.8042 27.8163 50.7467C27.9278 50.6515 28.0404 50.5576 28.1542 50.4652C28.1728 50.428 28.1914 50.3908 28.2105 50.3525C28.2477 50.3525 28.2849 50.3525 28.3232 50.3525C28.3232 50.3154 28.3232 50.2782 28.3232 50.2399C28.3603 50.2399 28.3975 50.2399 28.4358 50.2399C28.473 50.1656 28.5101 50.0912 28.5484 50.0147C28.5856 50.0147 28.6228 50.0147 28.661 50.0147C28.6727 49.9847 28.6843 49.9548 28.6962 49.924C28.8063 49.7326 28.9551 49.5917 29.1116 49.4374C29.1577 49.3906 29.1577 49.3906 29.2048 49.3428C29.4352 49.1136 29.4352 49.1136 29.5621 49.1136C29.5992 49.0393 29.6364 48.965 29.6747 48.8884C29.7119 48.8884 29.749 48.8884 29.7873 48.8884C29.7873 48.8512 29.7873 48.814 29.7873 48.7757C29.8245 48.7757 29.8617 48.7757 29.9 48.7757C29.9 48.7386 29.9 48.7014 29.9 48.6631C29.9371 48.6631 29.9743 48.6631 30.0126 48.6631C30.0498 48.5888 30.0869 48.5144 30.1252 48.4379C30.1624 48.4379 30.1995 48.4379 30.2378 48.4379C30.2587 48.3891 30.2587 48.3891 30.2801 48.3393C30.3608 48.1941 30.4509 48.0965 30.5757 47.9873C30.6129 47.9873 30.6501 47.9873 30.6884 47.9873C30.6997 47.957 30.711 47.9267 30.7226 47.8955C30.8338 47.7063 30.9916 47.5753 31.1534 47.4304C31.718 46.9138 32.2564 46.3714 32.7968 45.8297C32.906 45.7204 33.0155 45.6112 33.1249 45.5021C33.256 45.3712 33.3868 45.2402 33.5177 45.1092C33.5909 45.0361 33.5909 45.0361 33.6656 44.9617C33.7325 44.8945 33.7325 44.8945 33.8008 44.8259C33.8401 44.7865 33.8795 44.7471 33.92 44.7065C34.0152 44.613 34.0152 44.613 34.0672 44.4959C34.1044 44.4959 34.1415 44.4959 34.1798 44.4959C34.1798 44.4587 34.1798 44.4215 34.1798 44.3832C34.217 44.3832 34.2542 44.3832 34.2925 44.3832C34.2925 44.3461 34.2925 44.3089 34.2925 44.2706C34.3677 44.1965 34.3677 44.1965 34.4763 44.1075C34.8034 43.8291 35.1026 43.5238 35.4053 43.2196C35.4684 43.1564 35.5314 43.0933 35.5945 43.0301C35.7594 42.865 35.9242 42.6997 36.0888 42.5344C36.2562 42.3664 36.4238 42.1986 36.5913 42.0308C36.886 41.7356 37.1806 41.4402 37.4751 41.1446C37.5717 41.0478 37.6689 40.9517 37.7668 40.8561C37.903 40.7244 37.903 40.7244 38.0092 40.5539C38.0464 40.5539 38.0835 40.5539 38.1218 40.5539C38.1433 40.5048 38.1433 40.5048 38.1652 40.4547C38.2419 40.315 38.327 40.2242 38.441 40.1131C38.482 40.0726 38.5231 40.0322 38.5654 39.9905C38.6083 39.9488 38.6513 39.907 38.6955 39.864C39.0066 39.5602 39.3039 39.2518 39.586 38.9208C39.6373 38.8619 39.6887 38.8031 39.7402 38.7444C40.3008 38.0928 40.779 37.407 41.2191 36.6682C41.2513 36.6166 41.2835 36.565 41.3168 36.5118C42.0945 35.24 42.5542 33.7846 42.8522 32.332C42.8632 32.2816 42.8743 32.2312 42.8857 32.1792C43.1991 30.7191 43.2023 29.077 42.9648 27.6017C42.9576 27.5555 42.9503 27.5094 42.9428 27.4619C42.5396 24.9809 41.4917 22.6626 39.771 20.8143C39.6632 20.6976 39.5609 20.5788 39.4593 20.4568C38.9044 19.8231 38.2443 19.3006 37.5587 18.8167C37.5177 18.7877 37.4767 18.7587 37.4345 18.7288C36.8602 18.326 36.2775 17.9899 35.644 17.6904C35.5536 17.6425 35.4632 17.5944 35.373 17.5461C34.2282 16.9756 32.9706 16.7012 31.7214 16.4792C31.5894 16.4515 31.5894 16.4515 31.4767 16.3952C31.1087 16.3394 30.7377 16.3294 30.3661 16.3274C30.3157 16.327 30.2652 16.3266 30.2133 16.3262C30.0514 16.3252 29.8894 16.3249 29.7275 16.3248C29.6446 16.3247 29.6446 16.3247 29.5599 16.3247C28.4493 16.3259 27.3686 16.356 26.3102 16.7258C26.1535 16.7801 26.0041 16.8205 25.8418 16.8527C25.6611 16.8891 25.5066 16.949 25.3387 17.0269C25.1935 17.0836 25.0468 17.1166 24.895 17.1519C24.6279 17.2149 24.3924 17.2998 24.1469 17.4218C24.0433 17.4651 24.0433 17.4651 23.8743 17.4651C23.8743 17.5023 23.8743 17.5395 23.8743 17.5778C23.8367 17.5915 23.799 17.6053 23.7602 17.6196C22.6463 18.0532 21.6763 18.7739 20.7771 19.5487C20.7348 19.5848 20.6924 19.6208 20.6488 19.6579C20.4321 19.8442 20.2283 20.0389 20.0285 20.2432C19.9369 20.3327 19.8421 20.412 19.7423 20.492C19.466 20.7244 19.2545 21.0127 19.0313 21.2945C18.9955 21.3372 18.9596 21.38 18.9227 21.424C18.6719 21.7252 18.4502 22.0426 18.2324 22.368C18.2043 22.4099 18.1761 22.4518 18.1472 22.4949C17.9574 22.7818 17.7872 23.0757 17.6235 23.3781C17.5813 23.4539 17.5392 23.5296 17.497 23.6053C17.2067 24.135 16.9739 24.6654 16.7788 25.2365C16.7537 25.308 16.7286 25.3795 16.7035 25.4509C16.2245 26.8459 16.0331 28.1667 16.0291 29.6325C16.0289 29.6844 16.0288 29.7363 16.0286 29.7898C16.0283 31.0023 16.155 32.1783 16.4972 33.3457C16.5098 33.3904 16.5225 33.4351 16.5355 33.4811C16.6969 34.0516 16.8673 34.6086 17.1167 35.1477C17.1352 35.189 17.1538 35.2302 17.1729 35.2727C17.834 36.7388 18.6798 38.0696 19.7634 39.2587C19.7946 39.293 19.8258 39.3274 19.858 39.3629C20.2719 39.8172 20.6992 40.2569 21.1379 40.6874C21.3087 40.8558 21.4732 41.0255 21.6286 41.2083C21.9366 41.5655 22.2792 41.8908 22.6143 42.2222C22.7501 42.3565 22.8858 42.491 23.0213 42.6256C23.0671 42.6708 23.0671 42.6708 23.1139 42.7168C23.3051 42.9068 23.4781 43.105 23.6491 43.3133C23.7454 43.4033 23.7454 43.4033 23.8392 43.4752C24.0242 43.6287 24.1757 43.7979 24.331 43.9809C24.4883 44.1593 24.6588 44.3236 24.8282 44.4904C24.9227 44.5865 25.0085 44.6826 25.0921 44.788C25.1978 44.9131 25.2914 45.0055 25.4159 45.1083C25.6008 45.2617 25.7521 45.4309 25.9076 45.6134C26.1333 45.8702 26.371 46.1333 26.6489 46.3338C26.6811 46.3591 26.7132 46.3844 26.7464 46.4106C26.7464 46.4477 26.7464 46.4849 26.7464 46.5232C26.8207 46.5603 26.895 46.5975 26.9716 46.6358C26.9507 46.9199 26.8005 47.0634 26.6058 47.2528C26.5749 47.2837 26.544 47.3145 26.5122 47.3463C26.447 47.4112 26.3815 47.4758 26.3157 47.5401C26.2149 47.6389 26.1149 47.7387 26.0151 47.8385C25.9516 47.9015 25.888 47.9643 25.8244 48.0272C25.7944 48.0571 25.7644 48.087 25.7334 48.1178C25.5205 48.3252 25.5205 48.3252 25.3948 48.3252C25.3948 48.3624 25.3948 48.3996 25.3948 48.4379C25.3187 48.5127 25.3187 48.5127 25.2094 48.6022C24.8908 48.873 24.6006 49.1717 24.3073 49.4691C24.1974 49.5805 24.0873 49.6917 23.9771 49.8028C23.9049 49.876 23.9049 49.876 23.8312 49.9507C23.7054 50.071 23.7054 50.071 23.5365 50.1836C23.3564 50.1649 23.261 50.0989 23.1326 49.9755C23.1001 49.9447 23.0675 49.9139 23.034 49.8821C23 49.8492 22.9661 49.8163 22.9311 49.7824C22.86 49.7148 22.7889 49.6472 22.7177 49.5798C22.6838 49.5474 22.6499 49.5151 22.6149 49.4818C22.5095 49.3827 22.401 49.288 22.2905 49.1946C22.0663 49.0016 21.8598 48.7917 21.6534 48.5801C21.5051 48.4291 21.3532 48.2865 21.1922 48.149C20.928 47.9189 20.6818 47.6729 20.4354 47.424C20.3883 47.3766 20.3411 47.3292 20.2925 47.2804C20.143 47.1302 19.9937 46.9798 19.8444 46.8294C19.6474 46.6309 19.4502 46.4326 19.2529 46.2344C19.2083 46.1893 19.1637 46.1442 19.1177 46.0978C18.8996 45.8787 18.6798 45.6678 18.4403 45.4722C18.3469 45.3892 18.2693 45.2998 18.1901 45.2033C18.0794 45.0699 17.968 44.9562 17.8347 44.8456C17.4837 44.5424 17.1603 44.21 16.833 43.8817C16.7192 43.7676 16.6051 43.6538 16.4909 43.54C16.1433 43.1925 15.7988 42.8461 15.4835 42.4686C15.4335 42.411 15.3835 42.3535 15.3333 42.2961C13.8074 40.5171 12.5969 38.489 11.7632 36.2991C11.7294 36.2108 11.695 36.1227 11.66 36.0349C11.2972 35.126 11.1105 34.1727 10.9105 33.218C10.8771 33.0611 10.8415 32.9056 10.8035 32.7498C10.6586 32.0916 10.6231 31.4241 10.6236 30.7524C10.6234 30.674 10.6231 30.5956 10.6229 30.5172C10.6225 30.354 10.6225 30.1908 10.6228 30.0275C10.623 29.8638 10.6226 29.7001 10.6216 29.5364C10.6125 28.0831 10.6977 26.674 11.0572 25.2587C11.0883 25.1349 11.1173 25.0109 11.1454 24.8865C11.5586 23.0857 12.3915 21.3153 13.3999 19.774C13.4543 19.6897 13.4543 19.6897 13.5097 19.6037C14.2377 18.491 15.0928 17.4511 16.0326 16.5114C16.1165 16.4275 16.1998 16.3431 16.2832 16.2587C16.6365 15.9033 17.0061 15.5817 17.3982 15.2689C17.4636 15.2136 17.5286 15.1579 17.5931 15.1017C17.9676 14.7764 18.3515 14.4823 18.7653 14.2073C18.8681 14.1388 18.9703 14.0694 19.0725 13.9998C19.8244 13.4899 20.5978 13.0754 21.4206 12.6912C21.568 12.6209 21.7134 12.5474 21.8589 12.4732C22.0759 12.364 22.2924 12.2742 22.5228 12.1962C22.7478 12.1196 22.9689 12.0384 23.1887 11.9481C23.4657 11.8364 23.7452 11.7484 24.0327 11.6683C24.0835 11.654 24.1342 11.6398 24.1865 11.6251C25.0378 11.389 25.891 11.183 26.7672 11.0654C26.8695 11.0515 26.9716 11.037 27.0737 11.022C28.6823 10.7876 30.3022 10.8032 31.9132 11.0031Z" fill="#16878C"/>
<path d="M29.6184 21.6886C29.6556 21.6886 29.6928 21.6886 29.7311 21.6886C30.3039 22.8192 30.8472 23.963 31.3651 25.1197C31.5274 25.4822 31.6914 25.8439 31.8593 26.2039C31.8757 26.239 31.8921 26.2742 31.909 26.3104C31.988 26.4792 32.0682 26.6471 32.1526 26.8132C32.2579 26.8173 32.2579 26.8173 32.3653 26.8216C32.4621 26.8258 32.559 26.83 32.6559 26.8343C32.7016 26.8361 32.7473 26.8378 32.7943 26.8396C33.0681 26.8521 33.3377 26.8757 33.6096 26.9108C34.1295 26.9778 34.643 27.0009 35.1669 27.0083C36.062 27.0213 36.9492 27.0619 37.8403 27.1511C37.7425 27.359 37.621 27.5034 37.4637 27.672C37.3937 27.7473 37.3937 27.7473 37.3222 27.8242C37.2843 27.865 37.2843 27.865 37.2457 27.9066C37.1572 28.0038 37.0717 28.1033 36.986 28.2031C36.7722 28.4478 36.5456 28.6772 36.3145 28.9056C36.2723 28.9477 36.23 28.9897 36.1865 29.033C36.0077 29.2109 35.8286 29.3884 35.6495 29.566C35.5179 29.6965 35.3865 29.8272 35.2551 29.958C35.2153 29.9974 35.1754 30.0367 35.1344 30.0773C34.9094 30.3012 34.6957 30.5307 34.4903 30.7728C34.3783 30.8977 34.2502 30.9982 34.12 31.1036C33.9671 31.2553 33.9021 31.3251 33.8853 31.5418C33.9142 31.7354 33.9589 31.918 34.0109 32.1067C34.0397 32.238 34.0679 32.3694 34.0954 32.5009C34.1171 32.5988 34.1171 32.5988 34.1392 32.6987C34.1905 32.9463 34.2281 33.1948 34.2628 33.4453C34.2931 33.6308 34.3332 33.8122 34.3749 33.9955C34.429 34.2434 34.473 34.4932 34.5178 34.7429C34.5324 34.8247 34.5324 34.8247 34.5474 34.9082C34.5666 35.0153 34.5857 35.1225 34.6048 35.2297C34.626 35.3485 34.6479 35.4672 34.67 35.5859C34.7293 35.9148 34.7542 36.2211 34.743 36.5555C34.3238 36.4397 33.9264 36.2899 33.5252 36.1226C33.3921 36.0677 33.2589 36.0128 33.1257 35.9581C33.0899 35.9433 33.0541 35.9286 33.0172 35.9134C32.7045 35.785 32.3908 35.6592 32.0769 35.534C32.0017 35.504 32.0017 35.504 31.925 35.4734C31.7237 35.3931 31.5224 35.3129 31.3211 35.2329C31.1792 35.1765 31.0374 35.12 30.8956 35.0634C30.8538 35.0468 30.8119 35.0303 30.7688 35.0132C30.5121 34.9107 30.2596 34.8013 30.0085 34.6856C29.8661 34.6269 29.7702 34.6121 29.6184 34.6408C29.5053 34.6961 29.3927 34.7526 29.2805 34.8098C29.1907 34.8383 29.1003 34.8652 29.0095 34.8907C28.7667 34.9597 28.5451 35.0507 28.3181 35.1607C28.2106 35.204 28.2106 35.204 28.0416 35.204C28.0416 35.2412 28.0416 35.2783 28.0416 35.3166C27.9531 35.3451 27.9531 35.3451 27.8628 35.3743C27.7851 35.3996 27.7075 35.425 27.6298 35.4504C27.591 35.4628 27.5521 35.4753 27.512 35.4882C27.3316 35.5475 27.187 35.6048 27.028 35.7108C26.9442 35.7378 26.8596 35.7622 26.7746 35.7847C26.559 35.8463 26.364 35.9231 26.1622 36.0205C25.8414 36.1724 25.5156 36.256 25.1696 36.3303C25.1696 36.3674 25.1696 36.4046 25.1696 36.4429C25.0395 36.4801 24.9094 36.5172 24.7754 36.5555C24.7938 36.0026 24.8316 35.4745 24.9505 34.9325C25.0149 34.6387 25.0655 34.3424 25.1168 34.046C25.1266 33.9898 25.1363 33.9335 25.1464 33.8756C25.2071 33.521 25.262 33.1661 25.3102 32.8095C25.3323 32.6566 25.3566 32.5047 25.3828 32.3524C25.3906 32.307 25.3984 32.2617 25.4064 32.2149C25.4217 32.1265 25.4373 32.0381 25.4532 31.9498C25.5436 31.534 25.5436 31.534 25.4331 31.1443C25.3996 31.11 25.3661 31.0756 25.3315 31.0403C25.2955 31.0022 25.2595 30.9642 25.2224 30.925C25.1864 30.8875 25.1504 30.8501 25.1133 30.8115C25.0542 30.7427 24.9955 30.6735 24.9373 30.6038C24.7681 30.402 24.5799 30.2202 24.3921 30.0358C24.2791 29.925 24.1665 29.8139 24.0539 29.7028C24.0149 29.6647 23.9759 29.6267 23.9357 29.5874C23.8988 29.551 23.862 29.5145 23.824 29.4769C23.7736 29.4274 23.7736 29.4274 23.7222 29.3769C23.6491 29.291 23.6491 29.291 23.6491 29.1784C23.5934 29.1598 23.5376 29.1412 23.4802 29.1221C23.3953 29.0358 23.3953 29.0358 23.3042 28.925C23.154 28.7475 22.9984 28.5811 22.8326 28.4181C22.6397 28.2276 22.4573 28.0321 22.2811 27.8262C22.2127 27.7466 22.1432 27.6679 22.073 27.5899C22.0368 27.5496 22.0006 27.5094 21.9632 27.4678C21.9302 27.4314 21.8972 27.395 21.8631 27.3574C21.7908 27.2637 21.7908 27.2637 21.7908 27.1511C22.5818 27.0669 23.3714 27.0238 24.1659 26.9923C24.9752 26.96 25.7821 26.9238 26.588 26.8414C26.6887 26.8313 26.6887 26.8313 26.7914 26.8211C27.1102 26.8042 27.1102 26.8042 27.3659 26.6443C27.4096 26.5374 27.4502 26.4292 27.4891 26.3204C27.6141 25.9873 27.7625 25.6758 27.9244 25.3594C28.2954 24.6241 28.6217 23.8646 28.9544 23.1115C29.1662 22.6331 29.3817 22.1552 29.6184 21.6886Z" fill="#17878C"/>
<path d="M121.098 17.2432C121.264 17.2435 121.429 17.2432 121.594 17.2428C124.203 17.2417 126.667 17.7211 129.04 18.8365C129.139 18.882 129.239 18.9246 129.339 18.967C129.558 19.0619 129.77 19.1665 129.983 19.2743C130.021 19.2932 130.058 19.312 130.097 19.3314C130.172 19.3692 130.247 19.4071 130.322 19.445C130.51 19.5399 130.699 19.6341 130.888 19.7284C130.888 19.7655 130.888 19.8027 130.888 19.841C130.926 19.8542 130.964 19.8674 131.004 19.881C131.208 19.9705 131.387 20.089 131.571 20.2141C131.626 20.2517 131.626 20.2517 131.683 20.2902C133.323 21.4017 134.857 22.7241 136.054 24.3091C136.124 24.4006 136.195 24.4907 136.266 24.5806C136.863 25.3322 137.362 26.1478 137.814 26.9929C137.833 27.0273 137.852 27.0617 137.871 27.0971C138.251 27.8054 138.543 28.5511 138.828 29.3018C138.843 29.3414 138.858 29.3811 138.874 29.422C138.964 29.6604 139.04 29.9016 139.11 30.1465C139.125 30.1997 139.14 30.253 139.156 30.3078C140.033 33.4553 140.011 36.874 139.053 40.0014C139.038 40.0524 139.024 40.1033 139.008 40.1557C138.938 40.3962 138.865 40.6301 138.765 40.8602C138.671 41.0775 138.581 41.2953 138.494 41.5153C137.918 42.9687 137.199 44.3378 136.238 45.5765C136.186 45.6438 136.186 45.6438 136.132 45.7125C136.019 45.8563 135.904 45.9982 135.787 46.1397C135.763 46.1686 135.74 46.1975 135.715 46.2273C135.413 46.5933 135.106 46.9433 134.765 47.2743C134.654 47.3814 134.654 47.3814 134.545 47.5264C134.415 47.6857 134.269 47.8113 134.113 47.9446C133.976 48.062 133.843 48.1828 133.711 48.3042C132.571 49.328 131.266 50.1265 129.91 50.8304C129.875 50.8489 129.84 50.8674 129.803 50.8865C129.705 50.9264 129.705 50.9264 129.536 50.9264C129.536 50.9635 129.536 51.0007 129.536 51.039C129.437 51.0769 129.337 51.1143 129.237 51.1516C129.182 51.1725 129.126 51.1934 129.069 51.215C128.917 51.2642 128.917 51.2642 128.748 51.2642C128.729 51.32 128.711 51.3757 128.692 51.4332C128.546 51.4987 128.546 51.4987 128.352 51.561C128.317 51.5723 128.282 51.5837 128.246 51.5954C128.131 51.6324 128.015 51.6684 127.9 51.7042C127.84 51.7229 127.84 51.7229 127.78 51.7419C126.74 52.0684 125.708 52.3291 124.63 52.4891C124.592 52.4948 124.553 52.5005 124.514 52.5064C123.434 52.6649 122.36 52.7477 121.269 52.7431C121.099 52.7425 120.929 52.7431 120.758 52.7438C119.904 52.7444 119.091 52.6828 118.256 52.4902C118.064 52.4502 117.875 52.4213 117.681 52.3949C116.974 52.2967 116.305 52.0988 115.627 51.8837C115.545 51.8579 115.545 51.8579 115.462 51.8316C114.558 51.5427 113.711 51.1912 112.867 50.7574C112.825 50.7358 112.783 50.7143 112.739 50.692C111.739 50.182 110.807 49.6227 109.928 48.9232C109.841 48.8541 109.753 48.786 109.665 48.718C108.678 47.9481 107.706 47.029 106.954 46.027C106.89 45.9437 106.825 45.8604 106.761 45.7771C105.621 44.2957 104.737 42.7065 104.082 40.9588C104.057 40.8934 104.033 40.8281 104.007 40.7608C103.934 40.5651 103.867 40.3685 103.801 40.1704C103.788 40.1317 103.775 40.093 103.761 40.0532C102.964 37.6298 102.823 34.9681 103.181 32.4553C103.189 32.3998 103.196 32.3442 103.203 32.287C103.538 29.7303 104.585 27.2426 106.053 25.1345C106.088 25.0839 106.123 25.0333 106.16 24.9812C106.434 24.5937 106.736 24.2337 107.046 23.8743C107.118 23.7891 107.189 23.7023 107.259 23.6154C107.595 23.203 107.959 22.8228 108.334 22.4455C108.407 22.3716 108.407 22.3716 108.482 22.2962C108.819 21.9608 109.172 21.6563 109.545 21.3615C109.611 21.3084 109.611 21.3084 109.679 21.2543C110.162 20.8685 110.646 20.4969 111.178 20.1789C111.23 20.146 111.281 20.1131 111.335 20.0792C112.179 19.545 113.07 19.0429 113.994 18.6584C114.084 18.6205 114.084 18.6205 114.175 18.5818C115.73 17.9455 117.301 17.576 118.966 17.3849C119.123 17.3671 119.123 17.3671 119.287 17.3069C119.886 17.2276 120.495 17.2419 121.098 17.2432Z" fill="#FEFDF5"/>
<path d="M143.953 17.9263C161.369 17.9263 161.369 17.9263 163.663 19.1089C163.697 19.1261 163.731 19.1433 163.766 19.161C164.186 19.3741 164.593 19.6061 164.993 19.8551C165.03 19.8783 165.068 19.9015 165.106 19.9254C165.311 20.0552 165.503 20.1924 165.69 20.3478C165.758 20.4018 165.758 20.4018 165.827 20.4569C167.897 22.1231 169.266 24.3277 169.801 26.9366C169.81 26.9786 169.819 27.0206 169.829 27.0639C170.153 28.555 170.06 30.1981 169.688 31.667C169.675 31.7226 169.662 31.7782 169.648 31.8355C169.557 32.2152 169.446 32.5816 169.312 32.9481C169.292 33.0016 169.272 33.0551 169.252 33.1101C168.744 34.4642 167.953 35.6622 166.955 36.7053C166.899 36.7637 166.844 36.8224 166.788 36.8813C164.894 38.8955 162.116 40.0023 159.383 40.1704C159.109 40.1777 158.835 40.1775 158.562 40.1768C158.48 40.1768 158.399 40.1768 158.318 40.1768C158.102 40.1768 157.887 40.1765 157.671 40.1761C157.468 40.1758 157.265 40.1758 157.062 40.1757C156.47 40.1754 155.878 40.1746 155.286 40.1739C153.962 40.1727 152.638 40.1716 151.273 40.1704C151.273 44.0172 151.273 47.864 151.273 51.8274C148.858 51.8274 146.442 51.8274 143.953 51.8274C143.953 40.64 143.953 29.4527 143.953 17.9263Z" fill="#FDFDF5"/>
<path d="M177.572 17.9263C180.19 17.9251 182.807 17.9241 185.425 17.9235C185.734 17.9234 186.042 17.9233 186.351 17.9233C186.443 17.9232 186.443 17.9232 186.537 17.9232C187.534 17.923 188.53 17.9225 189.527 17.922C190.548 17.9215 191.57 17.9212 192.592 17.9211C193.223 17.921 193.854 17.9207 194.485 17.9203C194.917 17.92 195.349 17.9199 195.781 17.92C196.03 17.92 196.28 17.9199 196.53 17.9196C196.758 17.9194 196.986 17.9193 197.214 17.9195C197.297 17.9196 197.38 17.9195 197.463 17.9193C197.575 17.9191 197.687 17.9192 197.799 17.9194C197.893 17.9194 197.893 17.9194 197.988 17.9194C198.127 17.9263 198.127 17.9263 198.183 17.9827C198.183 20.1755 198.183 22.3684 198.183 24.6277C193.296 24.6277 188.408 24.6277 183.373 24.6277C183.373 24.8693 183.373 25.1109 183.373 25.3598C183.354 25.4156 183.335 25.4713 183.316 25.5287C183.295 25.6813 183.277 25.8333 183.26 25.9863C183.255 26.0311 183.25 26.0759 183.245 26.122C183.212 26.4309 183.191 26.739 183.176 27.0492C183.161 27.3457 183.129 27.6261 183.061 27.9153C183.012 28.1864 183.006 28.4624 182.992 28.7371C182.978 28.9076 182.978 28.9076 182.922 28.9639C182.901 29.1054 182.883 29.2461 182.867 29.3882C182.862 29.4307 182.858 29.4731 182.852 29.5168C182.837 29.6527 182.821 29.7888 182.806 29.9248C182.795 30.0168 182.785 30.1087 182.774 30.2007C182.748 30.4266 182.722 30.6526 182.697 30.8786C182.753 30.8521 182.809 30.8257 182.867 30.7984C182.942 30.763 183.017 30.7276 183.093 30.6923C183.129 30.6749 183.166 30.6575 183.204 30.6397C184.002 30.2652 184.829 30.0275 185.682 29.8086C185.72 29.7985 185.759 29.7884 185.799 29.7779C186.915 29.4905 188.044 29.4601 189.191 29.4602C189.239 29.4601 189.287 29.4601 189.336 29.46C189.474 29.46 189.612 29.4605 189.75 29.4613C189.812 29.4614 189.812 29.4614 189.876 29.4615C190.051 29.4631 190.188 29.4713 190.356 29.527C190.46 29.5316 190.564 29.5349 190.669 29.5376C191.087 29.5643 191.485 29.6504 191.894 29.7453C191.956 29.7597 192.019 29.7742 192.083 29.7891C193.631 30.1586 195.087 30.8774 196.269 31.9485C196.311 31.9847 196.352 32.0209 196.396 32.0581C197.014 32.5967 197.565 33.1871 198.008 33.8782C198.075 33.9822 198.143 34.0853 198.211 34.1884C198.699 34.9366 199.062 35.7272 199.366 36.5663C199.383 36.6112 199.401 36.656 199.419 36.7022C199.563 37.0803 199.66 37.4545 199.739 37.851C199.75 37.906 199.762 37.9611 199.774 38.0178C199.809 38.1906 199.841 38.3637 199.873 38.5373C199.884 38.5973 199.894 38.6573 199.906 38.7191C199.995 39.2711 200.003 39.8135 199.999 40.371C199.999 40.4182 199.999 40.4653 199.999 40.5139C199.991 42.2539 199.781 44.0625 198.972 45.6329C198.942 45.6949 198.913 45.7569 198.883 45.8207C198.666 46.2723 198.417 46.6879 198.127 47.097C198.09 47.1492 198.054 47.2013 198.016 47.255C197.429 48.0772 196.768 48.8732 195.987 49.5185C195.933 49.5645 195.879 49.6104 195.824 49.6578C195.29 50.1032 194.702 50.4447 194.099 50.7888C193.971 50.8637 193.846 50.9422 193.721 51.0227C193.377 51.2397 192.991 51.3581 192.608 51.4895C192.55 51.5096 192.492 51.5297 192.433 51.5504C191.56 51.8504 190.707 52.0972 189.792 52.2216C189.736 52.2299 189.68 52.2381 189.621 52.2466C187.336 52.5734 185.039 52.4213 182.809 51.8274C182.745 51.8104 182.745 51.8104 182.68 51.7931C181.787 51.5525 180.934 51.2252 180.106 50.8138C180.065 50.7934 180.024 50.7731 179.982 50.7522C179.293 50.4095 178.65 50.0203 178.023 49.5749C177.973 49.5392 177.973 49.5392 177.921 49.5028C177.427 49.147 176.984 48.7418 176.546 48.3194C176.454 48.231 176.361 48.1436 176.268 48.0563C175.42 47.2498 174.507 46.1176 174.081 45.0134C174.091 44.8722 174.091 44.8722 174.137 44.7318C174.237 44.6486 174.237 44.6486 174.368 44.5803C174.417 44.5542 174.466 44.528 174.517 44.5011C174.57 44.4739 174.624 44.4466 174.679 44.4186C174.734 44.3896 174.789 44.3606 174.846 44.3308C175.022 44.2382 175.199 44.1471 175.376 44.0561C175.55 43.9655 175.725 43.8748 175.899 43.784C176.007 43.7277 176.115 43.6717 176.224 43.616C176.525 43.461 176.815 43.2953 177.104 43.1194C177.283 43.0139 177.466 42.9237 177.653 42.8348C178.067 42.6347 178.46 42.4067 178.851 42.1649C178.915 42.1261 178.915 42.1261 178.981 42.0866C179.019 42.0632 179.057 42.0399 179.096 42.0158C179.205 41.9725 179.205 41.9725 179.323 41.9815C179.457 42.0401 179.499 42.0982 179.579 42.2199C179.605 42.2595 179.632 42.299 179.659 42.3398C179.687 42.3823 179.715 42.4249 179.744 42.4687C180.018 42.8713 180.304 43.2311 180.646 43.5795C180.729 43.665 180.809 43.7524 180.89 43.8403C181.375 44.3595 181.929 44.7471 182.528 45.126C182.562 45.1474 182.595 45.1687 182.63 45.1907C183.159 45.5223 183.719 45.7932 184.314 45.9853C184.395 46.0115 184.475 46.0385 184.555 46.0668C186.094 46.6028 188.265 46.4808 189.736 45.8018C189.931 45.715 190.023 45.6892 190.243 45.6892C190.243 45.652 190.243 45.6148 190.243 45.5765C190.274 45.5634 190.306 45.5503 190.338 45.5367C191.584 44.9698 192.576 43.783 193.073 42.5215C193.107 42.4142 193.14 42.3061 193.171 42.1977C193.192 42.129 193.213 42.0602 193.235 41.9894C193.633 40.5539 193.436 39.1189 192.777 37.8052C192.582 37.4611 192.334 37.1604 192.081 36.8571C191.989 36.7352 191.989 36.7352 191.932 36.5663C191.895 36.5663 191.858 36.5663 191.82 36.5663C191.725 36.4734 191.631 36.3794 191.538 36.2847C189.988 35.0236 188.104 34.6278 186.132 34.7643C185.494 34.8333 184.81 34.9107 184.217 35.1584C184.116 35.1833 184.014 35.2067 183.911 35.2288C183.504 35.3277 183.134 35.493 182.753 35.6653C182.709 35.6838 182.664 35.7023 182.618 35.7214C181.89 36.0252 181.254 36.446 180.687 36.9946C180.638 37.0414 180.59 37.0882 180.539 37.1365C180.497 37.1796 180.454 37.2227 180.41 37.2671C180.275 37.3547 180.275 37.3547 180.102 37.3463C179.931 37.2964 179.785 37.2215 179.628 37.1387C179.385 37.0258 179.13 36.9501 178.875 36.8679C178.633 36.7893 178.393 36.7047 178.153 36.6191C177.877 36.5209 177.601 36.425 177.322 36.334C177.071 36.2515 176.828 36.1566 176.584 36.0562C176.395 35.9837 176.203 35.9282 176.008 35.8743C175.883 35.8343 175.774 35.7814 175.658 35.7216C175.65 35.3262 175.671 34.9394 175.71 34.546C175.715 34.4941 175.72 34.4421 175.725 34.3885C175.763 34.0038 175.763 34.0038 175.798 33.8702C175.837 33.7069 175.849 33.5452 175.863 33.378C175.87 33.303 175.876 33.228 175.883 33.153C175.886 33.1138 175.89 33.0747 175.893 33.0343C175.949 32.4012 176.014 31.7718 176.105 31.1428C176.162 30.7444 176.202 30.3456 176.238 29.9447C176.27 29.5869 176.315 29.2326 176.365 28.8768C176.398 28.6175 176.416 28.358 176.432 28.0972C176.446 27.9503 176.446 27.9503 176.502 27.7813C176.585 27.2519 176.63 26.7237 176.652 26.1887C176.668 25.9213 176.703 25.6567 176.737 25.3911C176.798 24.9204 176.847 24.4486 176.897 23.9766C176.901 23.9296 176.906 23.8825 176.912 23.8341C176.968 23.3001 177.021 22.7663 177.062 22.2309C177.11 21.6213 177.197 21.0176 177.282 20.4123C177.381 19.699 177.459 18.9873 177.504 18.2682C177.516 18.1499 177.542 18.0413 177.572 17.9263Z" fill="#16898E"/>
<path d="M121.436 23.8851C121.586 23.885 121.736 23.884 121.886 23.8829C121.982 23.8828 122.078 23.8826 122.174 23.8826C122.219 23.8822 122.263 23.8818 122.309 23.8814C122.564 23.8824 122.763 23.9159 123.004 24.0082C123.099 24.016 123.194 24.0205 123.289 24.0223C124.215 24.087 125.206 24.4678 126.021 24.8973C126.163 24.9707 126.163 24.9707 126.341 25.0408C128.703 26.0424 130.614 28.4258 131.565 30.742C132.095 32.0691 132.377 33.4935 132.373 34.9226C132.373 34.9624 132.373 35.0022 132.373 35.0432C132.371 35.8275 132.287 36.5859 132.127 37.3546C132.114 37.4156 132.114 37.4156 132.101 37.4778C132.048 37.7227 131.979 37.9612 131.901 38.1993C131.886 38.2479 131.87 38.2964 131.854 38.3464C131.311 40.006 130.52 41.4881 129.311 42.7608C129.247 42.8356 129.184 42.9106 129.121 42.986C128.49 43.7112 127.7 44.2806 126.889 44.7881C126.849 44.8137 126.808 44.8393 126.766 44.8657C125.778 45.4723 124.698 45.8203 123.574 46.0833C123.527 46.0943 123.48 46.1054 123.431 46.1167C122.726 46.2693 122.002 46.2656 121.283 46.2663C121.238 46.2664 121.194 46.2665 121.148 46.2666C120.457 46.2663 119.795 46.2271 119.118 46.0833C119.055 46.0718 118.993 46.0602 118.928 46.0483C117.014 45.6627 115.271 44.6114 113.881 43.2676C113.802 43.193 113.802 43.193 113.721 43.1169C113.336 42.7447 113.013 42.3476 112.698 41.9161C112.663 41.8679 112.628 41.8198 112.591 41.7702C112.127 41.1214 111.743 40.4402 111.403 39.7198C111.359 39.6263 111.359 39.6263 111.314 39.5309C110.151 36.9494 110.024 33.924 110.998 31.2621C111.175 30.799 111.395 30.358 111.628 29.9212C111.646 29.8876 111.664 29.8541 111.682 29.8196C112.096 29.051 112.573 28.3328 113.178 27.7023C113.294 27.5804 113.404 27.4564 113.511 27.3272C113.685 27.1273 113.874 26.9472 114.067 26.7676C114.097 26.7398 114.127 26.712 114.158 26.6833C114.374 26.486 114.374 26.486 114.5 26.486C114.5 26.4488 114.5 26.4117 114.5 26.3734C114.619 26.2754 114.738 26.1848 114.863 26.0953C114.901 26.0681 114.938 26.0409 114.977 26.0129C115.596 25.5704 116.214 25.1405 116.922 24.8529C116.982 24.826 117.042 24.799 117.103 24.7713C117.596 24.551 118.094 24.3846 118.611 24.2334C118.68 24.2128 118.748 24.1922 118.819 24.171C118.972 24.13 119.106 24.1042 119.262 24.0927C119.415 24.0783 119.528 24.059 119.674 24.0082C120.227 23.8312 120.861 23.8851 121.436 23.8851Z" fill="#051834"/>
<path d="M76.2052 17.9189C76.266 17.9191 76.266 17.9191 76.328 17.9194C76.3922 17.9193 76.3922 17.9193 76.4578 17.9192C76.6032 17.919 76.7487 17.9193 76.8941 17.9195C76.9987 17.9195 77.1032 17.9195 77.2078 17.9194C77.4966 17.9193 77.7854 17.9195 78.0742 17.9198C78.3851 17.92 78.696 17.9199 79.0069 17.9199C79.5461 17.9199 80.0852 17.92 80.6243 17.9204C81.4038 17.9208 82.1833 17.921 82.9628 17.921C84.2274 17.9211 85.4919 17.9215 86.7565 17.9221C87.9852 17.9226 89.214 17.923 90.4427 17.9232C90.4806 17.9232 90.5184 17.9232 90.5574 17.9232C90.9375 17.9233 91.3177 17.9234 91.6978 17.9235C94.8874 17.924 98.077 17.9251 101.267 17.9263C101.267 20.1192 101.267 22.312 101.267 24.5714C98.349 24.5714 95.4313 24.5714 92.4253 24.5714C92.4253 33.5658 92.4253 42.5603 92.4253 51.8274C90.028 51.8274 87.6307 51.8274 85.1608 51.8274C85.1608 42.8329 85.1608 33.8384 85.1608 24.5714C82.0945 24.5714 79.0282 24.5714 75.8689 24.5714C75.8678 23.4854 75.8666 22.3994 75.8654 21.2805C75.8649 20.937 75.8644 20.5936 75.8639 20.2397C75.8636 19.8217 75.8636 19.8217 75.8636 19.6263C75.8635 19.4893 75.8633 19.3522 75.863 19.2151C75.8626 19.008 75.8625 18.8009 75.8626 18.5938C75.8623 18.5323 75.8621 18.4708 75.8619 18.4074C75.862 18.352 75.8621 18.2966 75.8622 18.2395C75.8621 18.191 75.8621 18.1425 75.862 18.0924C75.876 17.87 76.0154 17.9196 76.2052 17.9189Z" fill="#FDFBF3"/>
<path d="M151.274 24.1772C152.97 24.1737 152.97 24.1737 154.702 24.1701C155.058 24.1691 155.415 24.1681 155.782 24.167C156.219 24.1665 156.219 24.1665 156.424 24.1664C156.566 24.1663 156.709 24.1659 156.851 24.1653C157.068 24.1645 157.284 24.1643 157.5 24.1644C157.595 24.1638 157.595 24.1638 157.691 24.1632C158.062 24.1641 158.402 24.2042 158.763 24.2898C158.82 24.3004 158.876 24.311 158.934 24.3219C160.182 24.5895 161.342 25.4836 162.03 26.5459C162.24 26.8854 162.406 27.235 162.536 27.6123C162.554 27.6614 162.572 27.7105 162.591 27.761C162.938 28.8798 162.73 30.2525 162.2 31.2804C161.564 32.4411 160.535 33.3414 159.261 33.7316C158.591 33.9163 157.945 33.9845 157.251 33.9822C157.185 33.9822 157.119 33.9822 157.051 33.9822C156.839 33.9822 156.627 33.9818 156.416 33.9813C156.284 33.9812 156.153 33.9812 156.021 33.9811C155.536 33.9809 155.05 33.9801 154.564 33.9793C152.935 33.9776 152.935 33.9776 151.274 33.9758C151.274 30.7423 151.274 27.5087 151.274 24.1772Z" fill="#051633"/>
</svg>
