<svg width="13" height="12" viewBox="0 0 13 12" fill="none" xmlns="http://www.w3.org/2000/svg">
<path d="M11.8 12C10.4111 12 9.03622 11.7 7.67533 11.1C6.31444 10.5 5.07822 9.64444 3.96667 8.53333C2.85511 7.42222 1.99956 6.18889 1.4 4.83333C0.800444 3.47778 0.500444 2.1 0.5 0.7V0H4.43333L5.05 3.35L3.15 5.26667C3.39444 5.7 3.66667 6.11111 3.96667 6.5C4.26667 6.88889 4.58889 7.25 4.93333 7.58333C5.25556 7.90556 5.60844 8.214 5.992 8.50867C6.37556 8.80333 6.78933 9.07822 7.23333 9.33333L9.16667 7.4L12.5 8.08333V12H11.8Z" fill="#475467"/>
</svg>
