<svg width="14" height="15" viewBox="0 0 14 15" fill="none" xmlns="http://www.w3.org/2000/svg">
<path d="M10.5 11.6567C10.85 11.8067 11.2 11.9067 11.55 11.9067C12.85 11.9067 14 10.7567 14 9.45667C14 8.10667 12.95 7.00667 11.65 6.95667H1.1C0.5 6.95667 0 7.40667 0 7.95667V8.00667C0 10.6067 1.7 12.8067 4.05 13.5567H0.55C0.25 13.5567 0 13.8067 0 14.1067C0 14.4067 0.25 14.6567 0.55 14.6567H12.15C12.45 14.6567 12.7 14.4067 12.7 14.1067C12.7 13.8067 12.45 13.5567 12.15 13.5567H7.75C8.8 13.2567 9.75 12.5567 10.5 11.6567ZM11.75 8.05666C12.55 8.15666 13.1 8.95666 12.9 9.80666C12.75 10.4067 12.2 10.8067 11.6 10.8067C11.45 10.8067 11.25 10.8067 11.1 10.7567C11.5 9.90667 11.75 9.00666 11.75 8.05666Z" fill="#475467"/>
<path d="M3.69996 4.70662C2.94996 4.95662 3.29996 6.10662 3.99996 5.85662C4.84996 5.55662 5.14996 4.70662 4.94996 3.85662C4.84996 3.45662 4.59996 3.05662 4.39996 2.65662C4.29996 2.45662 4.04996 1.95662 4.34996 1.75662C4.99996 1.35662 4.39996 0.306622 3.74996 0.706622C3.04996 1.20662 2.89996 2.05662 3.14996 2.80662C3.24996 3.05662 4.24996 4.55662 3.69996 4.70662Z" fill="#475467"/>
<path d="M7.00001 5.15657C6.25001 5.40657 6.60001 6.55657 7.30001 6.30657C8.15001 6.00657 8.45001 5.15657 8.25001 4.30657C8.15001 3.90657 7.90001 3.50657 7.70001 3.10657C7.60001 2.90657 7.35001 2.40657 7.65001 2.20657C8.30001 1.80657 7.70001 0.756573 7.05001 1.15657C6.35001 1.60657 6.20001 2.45657 6.45001 3.20657C6.55001 3.50657 7.55001 4.95657 7.00001 5.15657Z" fill="#475467"/>
</svg>
