<svg width="14" height="14" viewBox="0 0 14 14" fill="none" xmlns="http://www.w3.org/2000/svg">
<path d="M12.9625 13.8579C11.4 13.8579 9.85325 13.5204 8.32225 12.8454C6.79125 12.1704 5.4005 11.2079 4.15 9.95791C2.8995 8.70791 1.937 7.32041 1.2625 5.79541C0.588 4.27041 0.2505 2.72041 0.25 1.14541V0.35791H4.675L5.36875 4.12666L3.23125 6.28291C3.50625 6.77041 3.8125 7.23291 4.15 7.67041C4.4875 8.10791 4.85 8.51416 5.2375 8.88916C5.6 9.25166 5.997 9.59866 6.4285 9.93016C6.86 10.2617 7.3255 10.5709 7.825 10.8579L10 8.68291L13.75 9.45166V13.8579H12.9625Z" fill="#475467"/>
</svg>
