<svg width="12" height="12" viewBox="0 0 12 12" fill="none" xmlns="http://www.w3.org/2000/svg">
<path d="M11.4424 0.0318917C11.5159 0.000221148 11.5973 -0.00865286 11.6759 0.00641787C11.7545 0.0214886 11.8268 0.0598105 11.8835 0.116425C11.9401 0.17304 11.9784 0.245342 11.9935 0.323976C12.0085 0.402609 11.9997 0.483957 11.968 0.557492L7.16799 11.7575C7.13603 11.8321 7.08216 11.8952 7.01351 11.9384C6.94486 11.9817 6.86469 12.003 6.78363 11.9996C6.70256 11.9962 6.62445 11.9683 6.55964 11.9195C6.49484 11.8706 6.44641 11.8033 6.42079 11.7263L4.88399 7.11589L0.273586 5.57989C0.196352 5.55442 0.128716 5.50601 0.0796957 5.44112C0.0306749 5.37623 0.00259972 5.29794 -0.000789642 5.21669C-0.004179 5.13543 0.0172796 5.05507 0.0607262 4.98633C0.104173 4.91758 0.167542 4.86371 0.242387 4.83189L11.4424 0.0318917Z" fill="white"/>
</svg>
