<svg width="13" height="13" viewBox="0 0 13 13" fill="none" xmlns="http://www.w3.org/2000/svg">
<path d="M11.9424 0.649323C12.0159 0.617653 12.0973 0.608779 12.1759 0.62385C12.2545 0.63892 12.3268 0.677242 12.3835 0.733857C12.4401 0.790471 12.4784 0.862773 12.4935 0.941407C12.5085 1.02004 12.4997 1.10139 12.468 1.17492L7.66799 12.3749C7.63603 12.4495 7.58216 12.5126 7.51351 12.5558C7.44486 12.5991 7.36469 12.6204 7.28363 12.617C7.20256 12.6137 7.12445 12.5857 7.05964 12.5369C6.99484 12.4881 6.94641 12.4207 6.92079 12.3437L5.38399 7.73333L0.773586 6.19732C0.696352 6.17185 0.628716 6.12345 0.579696 6.05856C0.530675 5.99366 0.5026 5.91537 0.49921 5.83412C0.495821 5.75286 0.51728 5.67251 0.560726 5.60376C0.604173 5.53501 0.667542 5.48114 0.742387 5.44932L11.9424 0.649323Z" fill="#475467"/>
</svg>
