<svg width="13" height="14" viewBox="0 0 13 14" fill="none" xmlns="http://www.w3.org/2000/svg">
<path d="M10.5989 5.83317C10.5989 8.74575 7.66354 11.7791 6.67783 12.7159C6.58601 12.7919 6.47423 12.833 6.35933 12.833C6.24444 12.833 6.13266 12.7919 6.04084 12.7159C5.05513 11.7791 2.11975 8.74575 2.11975 5.83317C2.11975 4.59549 2.56642 3.40851 3.3615 2.53334C4.15657 1.65817 5.23493 1.1665 6.35933 1.1665C7.48374 1.1665 8.5621 1.65817 9.35717 2.53334C10.1522 3.40851 10.5989 4.59549 10.5989 5.83317Z" stroke="#475467" stroke-linecap="round" stroke-linejoin="round"/>
<path d="M6.35938 7.5835C7.23742 7.5835 7.94922 6.79999 7.94922 5.8335C7.94922 4.867 7.23742 4.0835 6.35938 4.0835C5.48133 4.0835 4.76953 4.867 4.76953 5.8335C4.76953 6.79999 5.48133 7.5835 6.35938 7.5835Z" stroke="#475467" stroke-linecap="round" stroke-linejoin="round"/>
</svg>
