<svg width="16" height="13" viewBox="0 0 16 13" fill="none" xmlns="http://www.w3.org/2000/svg">
<path d="M2 12.1079C1.5875 12.1079 1.2345 11.9612 0.941 11.6677C0.6475 11.3742 0.5005 11.0209 0.5 10.6079V1.60791C0.5 1.19541 0.647 0.84241 0.941 0.54891C1.235 0.25541 1.588 0.10841 2 0.10791H14C14.4125 0.10791 14.7657 0.25491 15.0597 0.54891C15.3538 0.84291 15.5005 1.19591 15.5 1.60791V10.6079C15.5 11.0204 15.3533 11.3737 15.0597 11.6677C14.7662 11.9617 14.413 12.1084 14 12.1079H2ZM8 6.72666C8.0625 6.72666 8.12825 6.71716 8.19725 6.69816C8.26625 6.67916 8.33175 6.65116 8.39375 6.61416L13.7 3.29541C13.8 3.23291 13.875 3.15491 13.925 3.06141C13.975 2.96791 14 2.86466 14 2.75166C14 2.50166 13.8938 2.31416 13.6813 2.18916C13.4688 2.06416 13.25 2.07041 13.025 2.20791L8 5.35791L2.975 2.20791C2.75 2.07041 2.53125 2.06741 2.31875 2.19891C2.10625 2.33041 2 2.51466 2 2.75166C2 2.87666 2.025 2.98616 2.075 3.08016C2.125 3.17416 2.2 3.24591 2.3 3.29541L7.60625 6.61416C7.66875 6.65166 7.7345 6.67991 7.8035 6.69891C7.8725 6.71791 7.938 6.72716 8 6.72666Z" fill="#475467"/>
</svg>
