<svg width="14" height="15" viewBox="0 0 14 15" fill="none" xmlns="http://www.w3.org/2000/svg">
<path d="M5.723 0.671311C5.78917 0.704113 5.84725 0.751166 5.89307 0.809089C5.93889 0.867012 5.97131 0.934367 5.988 1.00631C6.006 1.08531 6.5 3.19931 6.5 4.61731C6.5 5.56731 6.058 6.41431 5.37 6.96331C5.12 7.16331 5 7.38131 5 7.56331V8.04931C5 8.07264 5.00133 8.09464 5.004 8.11531C5.038 8.36331 5.161 9.28431 5.276 10.2393C5.389 11.1763 5.5 12.1983 5.5 12.6173C5.5 13.1477 5.28929 13.6565 4.91421 14.0315C4.53914 14.4066 4.03043 14.6173 3.5 14.6173C2.96957 14.6173 2.46086 14.4066 2.08579 14.0315C1.71071 13.6565 1.5 13.1477 1.5 12.6173C1.5 12.1973 1.611 11.1773 1.724 10.2393C1.839 9.28431 1.962 8.36331 1.996 8.11531L2 8.04931V7.56331C2 7.38131 1.88 7.16331 1.63 6.96331C1.27748 6.6823 0.992828 6.32546 0.797195 5.9193C0.601562 5.51315 0.49998 5.06813 0.5 4.61731C0.5 3.20431 0.99 1.10131 1.012 1.00731C1.038 0.896151 1.10089 0.797079 1.19042 0.726252C1.27995 0.655426 1.39084 0.617025 1.505 0.617311C1.785 0.617311 2.012 0.844311 2.012 1.12431V4.12231C2.00806 4.18984 2.018 4.25746 2.04121 4.321C2.06442 4.38454 2.1004 4.44265 2.14695 4.49174C2.19349 4.54082 2.2496 4.57985 2.31181 4.60641C2.37402 4.63297 2.44102 4.6465 2.50866 4.64615C2.57631 4.64581 2.64316 4.63161 2.7051 4.60442C2.76705 4.57723 2.82276 4.53764 2.8688 4.48808C2.91484 4.43852 2.95024 4.38006 2.9728 4.31629C2.99537 4.25252 3.00463 4.1848 3 4.11731V1.11731C3 0.984703 3.05268 0.857526 3.14645 0.763758C3.24021 0.66999 3.36739 0.617311 3.5 0.617311C3.63261 0.617311 3.75979 0.66999 3.85355 0.763758C3.94732 0.857526 4 0.984703 4 1.11731V4.14331C4.00278 4.27459 4.05761 4.39939 4.15241 4.49025C4.24721 4.58112 4.37422 4.6306 4.5055 4.62781C4.63678 4.62503 4.76158 4.5702 4.85244 4.4754C4.9433 4.3806 4.99278 4.25359 4.99 4.12231V1.12231C4.99 0.843311 5.216 0.617311 5.496 0.617311C5.518 0.617311 5.616 0.617311 5.723 0.671311ZM8 5.11731C8 3.92384 8.47411 2.77924 9.31802 1.93533C10.1619 1.09142 11.3065 0.617311 12.5 0.617311C12.6326 0.617311 12.7598 0.66999 12.8536 0.763758C12.9473 0.857526 13 0.984703 13 1.11731V7.09031L13.019 7.26731C13.0985 8.01365 13.1749 8.76032 13.248 9.50731C13.371 10.7633 13.5 12.1713 13.5 12.6173C13.5 13.1477 13.2893 13.6565 12.9142 14.0315C12.5391 14.4066 12.0304 14.6173 11.5 14.6173C10.9696 14.6173 10.4609 14.4066 10.0858 14.0315C9.71071 13.6565 9.5 13.1477 9.5 12.6173C9.5 12.1713 9.629 10.7633 9.752 9.50731C9.815 8.87031 9.878 8.26031 9.925 7.80831L9.945 7.61731H9C8.73478 7.61731 8.48043 7.51195 8.29289 7.32442C8.10536 7.13688 8 6.88253 8 6.61731V5.11731Z" fill="white"/>
</svg>
