<svg width="10" height="12" viewBox="0 0 10 12" fill="none" xmlns="http://www.w3.org/2000/svg">
<path fill-rule="evenodd" clip-rule="evenodd" d="M1.68667 0.503207C3.88816 0.247629 6.11184 0.247629 8.31333 0.503207C9.18658 0.604707 9.8125 1.35487 9.8125 2.21237V11.25C9.8124 11.3245 9.79327 11.3977 9.75694 11.4627C9.7206 11.5278 9.66826 11.5825 9.60487 11.6216C9.54148 11.6607 9.46914 11.6831 9.39472 11.6864C9.32029 11.6898 9.24624 11.6741 9.17958 11.6408L5 9.55187L0.820417 11.642C0.753672 11.6753 0.679515 11.691 0.604993 11.6876C0.530471 11.6842 0.458058 11.6617 0.394637 11.6225C0.331216 11.5832 0.278892 11.5283 0.242638 11.4631C0.206384 11.3979 0.187403 11.3246 0.1875 11.25V2.21237C0.1875 1.35487 0.813417 0.604707 1.68667 0.503207Z" fill="#00A896"/>
</svg>
