<svg width="15" height="15" viewBox="0 0 15 15" fill="none" xmlns="http://www.w3.org/2000/svg">
<path d="M10.9166 9.28396H10.2583L10.025 9.05896C10.5458 8.45393 10.9264 7.74127 11.1396 6.97197C11.3528 6.20267 11.3934 5.39575 11.2583 4.60896C10.8666 2.29229 8.93331 0.442289 6.59998 0.158955C5.77966 0.0551767 4.94647 0.140432 4.16417 0.408196C3.38186 0.675961 2.67118 1.11914 2.08651 1.70381C1.50183 2.28849 1.05865 2.99917 0.790886 3.78148C0.523122 4.56378 0.437867 5.39697 0.541646 6.21729C0.824979 8.55062 2.67498 10.484 4.99165 10.8756C5.77844 11.0107 6.58536 10.9701 7.35466 10.7569C8.12396 10.5437 8.83662 10.1631 9.44165 9.64229L9.66665 9.87562V10.534L13.2083 14.0756C13.55 14.4173 14.1083 14.4173 14.45 14.0756C14.7916 13.734 14.7916 13.1756 14.45 12.834L10.9166 9.28396ZM5.91665 9.28396C3.84165 9.28396 2.16665 7.60896 2.16665 5.53396C2.16665 3.45896 3.84165 1.78396 5.91665 1.78396C7.99165 1.78396 9.66665 3.45896 9.66665 5.53396C9.66665 7.60896 7.99165 9.28396 5.91665 9.28396Z" fill="#475467"/>
</svg>
