<svg width="12" height="12" viewBox="0 0 12 12" fill="none" xmlns="http://www.w3.org/2000/svg">
<path d="M1.19999 2.95998L0.0799893 1.09332L0.826656 0.346649L2.69332 1.46665V2.21332L4.61332 4.13332C4.61332 4.18665 4.61332 4.23998 4.61332 4.29332L3.91999 4.93332L1.94666 2.95998H1.19999ZM9.19999 7.49331C9.03999 7.49331 8.93332 7.49331 8.77332 7.49331C8.39999 7.49331 8.07999 7.43998 7.75999 7.38665L6.63999 8.66665L9.14666 11.4933C9.73332 12.1333 10.7467 12.1866 11.3333 11.5466C11.9733 10.9066 11.92 9.94665 11.28 9.35998L9.19999 7.49331ZM11.0133 5.46665C11.8667 4.61332 12.1333 3.33332 11.8133 2.21332C11.76 1.99998 11.4933 1.94665 11.3867 2.10665L9.51999 3.97332L8.02666 2.47998L9.89332 0.613315C10.0533 0.453315 9.99999 0.239982 9.78666 0.186649C8.66666 -0.186685 7.38666 0.0799821 6.53332 0.986649C5.57332 1.94665 5.35999 3.43998 5.89332 4.61332L0.559989 9.35998C-0.0800106 9.94665 -0.133344 10.96 0.506656 11.5466C1.14666 12.1866 2.10666 12.1333 2.69332 11.4933L7.43999 6.15998C8.61332 6.69332 10.0533 6.47998 11.0133 5.46665Z" fill="#475467"/>
</svg>
