<svg width="7" height="11" viewBox="0 0 7 11" fill="none" xmlns="http://www.w3.org/2000/svg">
<path d="M3.5 5.36731C3.16848 5.36731 2.85054 5.23561 2.61612 5.00119C2.3817 4.76677 2.25 4.44883 2.25 4.11731C2.25 3.78579 2.3817 3.46785 2.61612 3.23343C2.85054 2.99901 3.16848 2.86731 3.5 2.86731C3.83152 2.86731 4.14946 2.99901 4.38388 3.23343C4.6183 3.46785 4.75 3.78579 4.75 4.11731C4.75 4.28146 4.71767 4.44401 4.65485 4.59566C4.59203 4.74732 4.49996 4.88512 4.38388 5.00119C4.26781 5.11727 4.13001 5.20934 3.97835 5.27216C3.8267 5.33498 3.66415 5.36731 3.5 5.36731ZM3.5 0.61731C2.57174 0.61731 1.6815 0.986058 1.02513 1.64244C0.368749 2.29881 0 3.18905 0 4.11731C0 6.74231 3.5 10.6173 3.5 10.6173C3.5 10.6173 7 6.74231 7 4.11731C7 3.18905 6.63125 2.29881 5.97487 1.64244C5.3185 0.986058 4.42826 0.61731 3.5 0.61731Z" fill="#475467"/>
</svg>
