<svg width="80" height="29" viewBox="0 0 80 29" fill="none" xmlns="http://www.w3.org/2000/svg">
<path d="M12.1893 0.000162345C12.2776 0.000286368 12.3659 0.000162452 12.4541 1.60303e-05C12.7112 -6.98401e-05 12.968 0.0012782 13.2248 0.0128017C13.253 0.0140145 13.253 0.0140145 13.2818 0.0152518C13.4345 0.0231922 13.5819 0.048214 13.7317 0.0779005C13.8555 0.101542 13.9807 0.113347 14.1062 0.124536C14.1994 0.13354 14.2731 0.152365 14.3592 0.187569C14.4293 0.202964 14.5001 0.21434 14.5709 0.226466C14.9765 0.300266 15.3713 0.417608 15.7652 0.537644C15.8017 0.548731 15.8017 0.548731 15.8389 0.560042C15.9659 0.5994 16.0895 0.642835 16.2124 0.693385C16.2794 0.720592 16.3469 0.746111 16.4146 0.771478C16.6824 0.872219 16.9417 0.974948 17.1943 1.10958C17.2556 1.14065 17.3172 1.17119 17.3787 1.20178C17.41 1.21744 17.4412 1.23311 17.4725 1.24878C17.5296 1.27738 17.5869 1.30552 17.6444 1.33342C17.952 1.48348 18.2453 1.65942 18.5312 1.84718C18.5464 1.8571 18.5615 1.86703 18.5771 1.87725C18.8113 2.0313 19.0426 2.18873 19.2689 2.35429C19.3043 2.38018 19.3043 2.38018 19.3405 2.4066C19.4827 2.51175 19.6197 2.62169 19.7548 2.73579C19.8168 2.78783 19.8798 2.83833 19.9431 2.88877C20.1011 3.0178 20.2477 3.15886 20.3955 3.29929C20.4449 3.34588 20.4945 3.39204 20.5444 3.4381C20.5607 3.45323 20.577 3.46837 20.5938 3.48396C20.6247 3.51258 20.6556 3.54113 20.6866 3.56961C20.7748 3.65161 20.8552 3.73727 20.9335 3.82863C20.9894 3.89259 21.0482 3.9535 21.107 4.01473C21.2713 4.18592 21.4229 4.36141 21.5662 4.55035C21.5979 4.5914 21.6304 4.63159 21.6634 4.67165C21.8479 4.89636 22.0123 5.1318 22.1732 5.37387C22.1868 5.39419 22.2005 5.41452 22.2145 5.43547C22.6268 6.05037 22.9811 6.68932 23.2767 7.36771C23.283 7.38203 23.2892 7.39635 23.2957 7.4111C23.3735 7.58982 23.444 7.76933 23.5075 7.95356C23.5317 8.02054 23.5587 8.08506 23.5879 8.14998C24.1002 9.36766 24.2754 10.8227 24.2765 12.1348C24.2765 12.154 24.2766 12.1731 24.2766 12.1929C24.2762 12.6116 24.2474 13.0254 24.2016 13.4414C24.1986 13.469 24.1957 13.4965 24.1926 13.5249C24.1528 13.8785 24.0838 14.2249 24.0086 14.5723C24.0022 14.6018 24.0022 14.6018 23.9958 14.6319C23.9377 14.9008 23.8653 15.1619 23.779 15.4231C23.7562 15.4927 23.7347 15.5626 23.7132 15.6327C23.706 15.6562 23.6987 15.6797 23.6913 15.704C23.6787 15.7456 23.6664 15.7874 23.6545 15.8293C23.6178 15.9584 23.5703 16.0795 23.5174 16.2028C23.4855 16.2803 23.458 16.3587 23.4309 16.438C23.3867 16.5634 23.3343 16.6792 23.2729 16.797C23.2339 16.875 23.1987 16.9539 23.1639 17.0338C23.0417 17.3131 22.8995 17.5788 22.7494 17.844C22.7387 17.8631 22.7279 17.8823 22.7168 17.902C22.475 18.3301 22.2129 18.7401 21.9196 19.1348C21.9099 19.1481 21.9001 19.1613 21.89 19.1749C21.8313 19.2542 21.7719 19.3329 21.7122 19.4114C21.6943 19.4352 21.6764 19.459 21.658 19.4836C21.5144 19.6735 21.3616 19.8544 21.2051 20.0338C21.1899 20.0514 21.1746 20.0689 21.159 20.087C21.1208 20.131 21.0823 20.1746 21.0437 20.2182C21.0274 20.2366 21.0112 20.255 20.9944 20.274C20.8996 20.3804 20.8033 20.4839 20.7007 20.5829C20.6611 20.6236 20.6249 20.6648 20.5883 20.7081C20.4555 20.8602 20.3102 21.0006 20.1672 21.1431C20.1344 21.1758 20.1017 21.2085 20.0689 21.2413C19.9986 21.3115 19.9283 21.3816 19.858 21.4518C19.7467 21.5627 19.6356 21.6737 19.5244 21.7848C19.2885 22.0204 19.0525 22.256 18.8165 22.4915C18.5615 22.746 18.3065 23.0005 18.0517 23.2551C17.9412 23.3654 17.8307 23.4757 17.7201 23.586C17.6514 23.6546 17.5826 23.7232 17.5139 23.7919C17.4821 23.8237 17.4503 23.8554 17.4184 23.8872C17.3748 23.9306 17.3314 23.974 17.2879 24.0175C17.2691 24.0362 17.2691 24.0362 17.2498 24.0553C17.1726 24.1328 17.1024 24.2135 17.033 24.2981C16.9951 24.337 16.9566 24.3754 16.9177 24.4133C16.8903 24.4407 16.8629 24.4681 16.8355 24.4956C16.2833 25.0477 15.7312 25.5999 15.179 26.1521C15.1576 26.1735 15.1576 26.1735 15.1358 26.1953C15.102 26.2291 15.0681 26.2627 15.0341 26.2963C14.9821 26.349 14.9328 26.4032 14.8838 26.4587C14.7805 26.5741 14.6728 26.6839 14.5628 26.7927C14.5435 26.8119 14.5243 26.8311 14.5044 26.8509C14.4436 26.9115 14.3826 26.972 14.3217 27.0324C14.2411 27.1124 14.1606 27.1924 14.0802 27.2725C14.062 27.2905 14.0438 27.3084 14.0251 27.327C13.9296 27.4221 13.8384 27.5192 13.7504 27.6213C13.6642 27.7202 13.5704 27.812 13.4779 27.9048C13.4416 27.9413 13.4056 27.9781 13.3696 28.0148C13.1885 28.1978 13.0003 28.3497 12.7687 28.4644C12.7309 28.4835 12.7309 28.4835 12.6923 28.503C12.505 28.5872 12.3311 28.6203 12.1262 28.6171C12.1039 28.6169 12.0816 28.6166 12.0586 28.6164C11.4296 28.6024 11.0473 28.2087 10.6298 27.7882C10.5701 27.728 10.5101 27.668 10.4501 27.608C10.4117 27.5695 10.3733 27.531 10.3349 27.4924C10.3083 27.4657 10.3083 27.4657 10.2811 27.4385C10.191 27.3477 10.1064 27.2555 10.0257 27.1563C9.9863 27.1195 9.9863 27.1195 9.94792 27.09C9.88855 27.0411 9.83804 26.9899 9.78831 26.9313C9.71083 26.8416 9.62961 26.7572 9.54548 26.6738C9.53066 26.659 9.51583 26.6443 9.50055 26.629C9.46868 26.5972 9.43679 26.5655 9.40487 26.5337C9.35421 26.4834 9.30363 26.433 9.25307 26.3825C9.14572 26.2754 9.03828 26.1684 8.93083 26.0614C8.8062 25.9374 8.68162 25.8132 8.55713 25.689C8.50755 25.6396 8.4579 25.5902 8.40825 25.5409C8.37755 25.5103 8.34686 25.4796 8.31617 25.449C8.30256 25.4355 8.28895 25.4221 8.27493 25.4082C8.1913 25.3245 8.11283 25.2377 8.03546 25.1482C7.98309 25.0887 7.92772 25.0327 7.87151 24.9768C7.86005 24.9654 7.8486 24.954 7.83679 24.9422C7.81228 24.9178 7.78775 24.8934 7.76319 24.869C7.72415 24.8303 7.68519 24.7915 7.64624 24.7526C7.56356 24.6702 7.48078 24.5879 7.39799 24.5055C7.30192 24.41 7.2059 24.3145 7.10997 24.2188C7.07189 24.1809 7.03373 24.143 6.99557 24.1051C6.97187 24.0815 6.94816 24.0579 6.92447 24.0343C6.90402 24.0139 6.88357 23.9936 6.8625 23.9727C6.8145 23.9227 6.76906 23.8724 6.72396 23.82C6.6265 23.7077 6.52173 23.6034 6.41633 23.4986C6.39453 23.4768 6.37274 23.4551 6.35096 23.4333C6.30438 23.3868 6.25777 23.3403 6.21113 23.2939C6.13722 23.2203 6.06341 23.1466 5.98961 23.0729C5.83294 22.9165 5.67617 22.7602 5.51939 22.6039C5.35008 22.4351 5.18078 22.2663 5.0116 22.0973C4.93839 22.0242 4.86512 21.9512 4.79181 21.8782C4.74605 21.8326 4.70035 21.787 4.65466 21.7414C4.62369 21.7104 4.59266 21.6796 4.56163 21.6488C4.46197 21.5491 4.36612 21.4478 4.27424 21.3409C4.23267 21.293 4.18897 21.2478 4.14394 21.2031C4.12694 21.1862 4.10994 21.1693 4.09242 21.1519C4.0746 21.1342 4.05678 21.1166 4.03842 21.0984C4.01017 21.0703 4.01017 21.0703 3.98135 21.0416C3.92168 20.9822 3.86192 20.9229 3.80215 20.8636C3.72333 20.7854 3.64458 20.7071 3.56589 20.6288C3.54807 20.6112 3.53025 20.5935 3.51189 20.5754C3.41679 20.4807 3.32558 20.3842 3.23828 20.2822C3.17955 20.2143 3.1175 20.1495 3.0559 20.0842C2.92962 19.9491 2.81085 19.8098 2.69574 19.665C2.67292 19.6368 2.65008 19.6087 2.62722 19.5805C2.49761 19.4206 2.37318 19.2594 2.25779 19.0887C2.23849 19.0608 2.21916 19.0328 2.1998 19.0048C2.14491 18.9255 2.09041 18.8459 2.03602 18.7663C2.00694 18.7239 1.97754 18.6817 1.94805 18.6396C1.76206 18.371 1.60684 18.0847 1.45103 17.7979C1.43921 17.7762 1.42739 17.7545 1.41522 17.7321C1.03721 17.0332 0.731994 16.2879 0.50646 15.5258C0.490435 15.472 0.474011 15.4184 0.457236 15.3648C0.373669 15.095 0.315221 14.822 0.261062 14.545C0.256526 14.522 0.251991 14.499 0.247318 14.4753C0.127116 13.8642 0.127116 13.8642 0.0977856 13.5565C0.0929043 13.5064 0.087552 13.4564 0.0819161 13.4063C-0.0400277 12.3199 -0.0382209 11.1888 0.172198 10.1137C0.184705 10.0452 0.194823 9.97653 0.204877 9.90765C0.228302 9.75255 0.261261 9.60064 0.297078 9.44799C0.302887 9.4225 0.308696 9.39701 0.314681 9.37074C0.344025 9.24436 0.376955 9.1218 0.419808 8.99938C0.438996 8.93991 0.453434 8.88015 0.467793 8.81933C0.511986 8.63827 0.572042 8.46286 0.632747 8.28684C0.638837 8.26914 0.644927 8.25144 0.651202 8.23321C0.975089 7.2958 1.41921 6.41281 1.95813 5.58132C1.97445 5.55603 1.99076 5.53075 2.00757 5.5047C2.17033 5.25641 2.34646 5.01685 2.53385 4.78663C2.57848 4.73097 2.62175 4.67441 2.66481 4.61753C2.75974 4.49231 2.85812 4.37334 2.96501 4.25794C3.01483 4.20234 3.06083 4.14522 3.10686 4.08648C3.2366 3.92716 3.38101 3.78352 3.52686 3.63905C3.57321 3.59312 3.61938 3.547 3.66552 3.50086C3.80702 3.35974 3.94855 3.22035 4.1018 3.0919C4.12759 3.06948 4.15334 3.04704 4.17906 3.02455C4.35158 2.87512 4.52761 2.73134 4.70827 2.59187C4.74575 2.56287 4.78306 2.53366 4.82032 2.50439C5.1584 2.24073 5.51106 2.00178 5.87667 1.77803C5.89606 1.76612 5.91545 1.75421 5.93543 1.74194C6.32983 1.50085 6.73968 1.26365 7.16748 1.08653C7.19695 1.07199 7.22628 1.05716 7.25536 1.04187C7.41189 0.962855 7.57568 0.904152 7.74086 0.845941C7.83857 0.811493 7.93412 0.775147 8.02899 0.733571C8.44902 0.556334 8.89291 0.436753 9.3342 0.32587C9.35899 0.319627 9.38378 0.313383 9.40932 0.306951C9.76352 0.218854 10.1179 0.153692 10.4795 0.104254C10.5362 0.0962233 10.5362 0.0962233 10.602 0.0723181C11.1276 -0.000571883 11.6597 -0.000720475 12.1893 0.000162345ZM10.4098 2.42533C10.3101 2.45032 10.2112 2.46256 10.1093 2.4753C9.84105 2.51038 9.58877 2.59443 9.33244 2.67829C9.2502 2.70484 9.16753 2.72973 9.08465 2.75421C8.81612 2.8345 8.55659 2.94088 8.29694 3.0458C8.29694 3.06101 8.29694 3.07622 8.29694 3.0919C8.27127 3.09475 8.2456 3.0976 8.21915 3.10054C8.13488 3.1068 8.13488 3.1068 8.08949 3.16105C8.05568 3.17592 8.0213 3.18953 7.98667 3.20238C7.85805 3.2524 7.73633 3.31182 7.61408 3.3757C7.58013 3.39343 7.58013 3.39343 7.54549 3.41152C7.28028 3.5524 7.02776 3.71279 6.77563 3.8756C6.74815 3.89308 6.72065 3.91055 6.69315 3.92801C6.22249 4.23278 5.75617 4.60337 5.36698 5.00771C5.32565 5.04898 5.28296 5.08667 5.23838 5.12437C5.13344 5.21555 5.03811 5.31426 4.94314 5.41565C4.92638 5.43322 4.90962 5.4508 4.89235 5.4689C4.87655 5.48571 4.86074 5.50251 4.84445 5.51982C4.83018 5.53497 4.8159 5.55012 4.80119 5.56573C4.76546 5.60212 4.76546 5.60212 4.77026 5.65047C4.75505 5.65047 4.73983 5.65047 4.72416 5.65047C4.68196 5.69496 4.68196 5.69496 4.63628 5.7542C4.61774 5.77743 4.5992 5.80067 4.5801 5.82461C4.56485 5.84381 4.56485 5.84381 4.5493 5.86339C4.51535 5.90571 4.48082 5.94749 4.44612 5.9892C4.26576 6.20665 4.09875 6.4307 3.94045 6.66468C3.92845 6.68238 3.91645 6.70008 3.90409 6.71832C3.6236 7.13467 3.37003 7.56995 3.15675 8.02464C3.14756 8.04389 3.13837 8.06314 3.1289 8.08296C2.86134 8.64764 2.64555 9.2576 2.51134 9.86866C2.50657 9.89027 2.50181 9.91188 2.4969 9.93414C2.34923 10.6151 2.2712 11.2983 2.27507 11.995C2.27516 12.019 2.27525 12.0429 2.27534 12.0675C2.27831 12.7714 2.32456 13.4426 2.46524 14.1329C2.47009 14.1574 2.47493 14.1819 2.47993 14.2071C2.54889 14.5519 2.65158 14.8837 2.76489 15.2163C2.77286 15.2399 2.78082 15.2636 2.78902 15.2879C3.10336 16.2143 3.55015 17.0881 4.13898 17.8706C4.16797 17.9092 4.19654 17.9481 4.22507 17.987C4.41745 18.2482 4.62257 18.5017 4.83941 18.743C4.85299 18.7587 4.86657 18.7744 4.88056 18.7905C5.01697 18.9461 5.16313 19.0913 5.31057 19.2364C5.32772 19.2533 5.34487 19.2703 5.36254 19.2877C5.37776 19.3027 5.39298 19.3176 5.40866 19.333C5.45038 19.3765 5.4892 19.4205 5.52816 19.4663C5.64669 19.6026 5.77612 19.7283 5.90418 19.8556C5.95174 19.9029 5.99922 19.9502 6.04669 19.9975C6.14746 20.0981 6.24832 20.1985 6.3492 20.2989C6.46621 20.4153 6.58318 20.5318 6.70005 20.6484C6.74656 20.6948 6.79315 20.7411 6.83974 20.7874C6.86857 20.8161 6.8974 20.8449 6.92622 20.8736C6.93897 20.8863 6.95171 20.8989 6.96484 20.9119C7.03043 20.9775 7.09298 21.0446 7.15358 21.1148C7.2394 21.2139 7.33078 21.3064 7.42378 21.3988C7.44176 21.4167 7.45973 21.4346 7.47825 21.4531C7.51699 21.4918 7.55575 21.5304 7.59454 21.569C7.65604 21.6302 7.71746 21.6915 7.77887 21.7528C7.90924 21.8829 8.0397 22.0129 8.17017 22.1429C8.32145 22.2936 8.47269 22.4444 8.62384 22.5953C8.68414 22.6554 8.74452 22.7155 8.8049 22.7756C8.84212 22.8127 8.87934 22.8499 8.91655 22.887C8.93318 22.9035 8.9498 22.92 8.96693 22.937C9.05783 23.0279 9.1441 23.1213 9.22806 23.2186C9.2793 23.2771 9.33361 23.332 9.38872 23.3868C9.39995 23.3979 9.41119 23.4091 9.42276 23.4207C9.44677 23.4446 9.47082 23.4685 9.49489 23.4924C9.53315 23.5304 9.57134 23.5684 9.60951 23.6065C9.69055 23.6872 9.77169 23.7679 9.85283 23.8486C9.94699 23.9422 10.0411 24.0359 10.1351 24.1296C10.1725 24.1668 10.2098 24.2039 10.2472 24.241C10.3561 24.3493 10.462 24.4588 10.5619 24.5755C10.6439 24.6682 10.7327 24.7543 10.8204 24.8415C10.8409 24.8619 10.8614 24.8824 10.8824 24.9034C10.9364 24.9573 10.9904 25.0111 11.0444 25.0648C11.0993 25.1194 11.154 25.1741 11.2088 25.2288C11.3063 25.326 11.4038 25.4232 11.5014 25.5203C11.5392 25.558 11.5769 25.5958 11.6146 25.6336C11.664 25.6829 11.7144 25.7307 11.766 25.7776C11.7829 25.7932 11.7998 25.8087 11.8171 25.8247C11.9525 25.9297 12.0966 25.9286 12.2616 25.9116C12.3931 25.8745 12.4791 25.7941 12.5709 25.6961C12.6073 25.6581 12.6073 25.6581 12.665 25.6134C12.7157 25.5715 12.7538 25.5313 12.7962 25.4815C12.8787 25.3863 12.9657 25.2971 13.0554 25.2086C13.0711 25.1929 13.0869 25.1772 13.1031 25.1611C13.1697 25.0949 13.2364 25.0288 13.3031 24.9628C13.3522 24.9141 13.4011 24.8654 13.4501 24.8167C13.4723 24.7948 13.4723 24.7948 13.4949 24.7725C13.5662 24.7016 13.6347 24.6297 13.7003 24.5535C13.7903 24.4493 13.8872 24.3531 13.9852 24.2565C14.0236 24.2184 14.0619 24.1804 14.1002 24.1423C14.1602 24.0829 14.2202 24.0236 14.2802 23.9643C14.3385 23.9067 14.3967 23.8489 14.4549 23.7912C14.473 23.7733 14.4912 23.7555 14.5099 23.7371C14.5264 23.7206 14.543 23.7042 14.56 23.6872C14.5747 23.6727 14.5894 23.6582 14.6045 23.6433C14.6407 23.6088 14.6407 23.6088 14.6358 23.5605C14.651 23.5605 14.6662 23.5605 14.6819 23.5605C14.7154 23.5274 14.7154 23.5274 14.7505 23.4833C14.8545 23.3612 14.9675 23.2489 15.0811 23.1359C15.1048 23.1123 15.1284 23.0888 15.152 23.0652C15.2025 23.0148 15.253 22.9644 15.3036 22.914C15.3837 22.8342 15.4637 22.7543 15.5437 22.6744C15.7279 22.4905 15.9123 22.3066 16.0966 22.1228C16.2657 21.9542 16.4348 21.7855 16.6037 21.6168C16.6831 21.5375 16.7625 21.4583 16.842 21.3792C16.8916 21.3297 16.9411 21.2803 16.9907 21.2308C17.0135 21.208 17.0363 21.1853 17.0591 21.1626C17.1734 21.049 17.2844 20.9343 17.3894 20.8121C17.4414 20.7524 17.4966 20.6971 17.5527 20.6413C17.5644 20.6296 17.5761 20.618 17.5881 20.606C17.6131 20.5811 17.6382 20.5562 17.6632 20.5313C17.703 20.4918 17.7428 20.4522 17.7825 20.4126C17.8811 20.3143 17.9798 20.2161 18.0785 20.118C18.1622 20.0348 18.2458 19.9515 18.3294 19.8681C18.3682 19.8294 18.4072 19.7908 18.4461 19.7522C18.5599 19.6389 18.672 19.5251 18.7759 19.4024C18.8258 19.3445 18.8799 19.292 18.9346 19.2386C19.0186 19.1557 19.0988 19.0712 19.1752 18.9813C19.2147 18.9365 19.255 18.893 19.2962 18.8497C19.4475 18.6906 19.5911 18.5306 19.7221 18.3544C19.7744 18.2841 19.8283 18.2154 19.8826 18.1466C20.5029 17.3439 21.0419 16.4254 21.3895 15.4699C21.3963 15.4513 21.4032 15.4328 21.4103 15.4136C21.5321 15.0833 21.6297 14.7492 21.7175 14.4083C21.7351 14.3408 21.7536 14.2735 21.7722 14.2062C21.8614 13.8803 21.898 13.5462 21.9348 13.2111C21.9416 13.151 21.9492 13.0911 21.9573 13.0312C21.993 12.7446 21.993 12.4578 21.9931 12.1694C21.9931 12.1488 21.9931 12.1282 21.9932 12.107C21.9931 11.7068 21.9759 11.3118 21.9254 10.9146C21.9224 10.8911 21.9224 10.8911 21.9194 10.8671C21.8842 10.5893 21.8342 10.3163 21.7717 10.0434C21.7593 9.98839 21.7479 9.93327 21.7369 9.87793C21.6805 9.59798 21.5927 9.3295 21.503 9.05864C21.4825 8.99529 21.4635 8.93168 21.4448 8.86777C21.4214 8.7887 21.3944 8.71538 21.3578 8.64124C21.3129 8.54623 21.2763 8.45116 21.2425 8.35167C21.188 8.19561 21.1185 8.0515 21.0422 7.9051C21.0205 7.86301 20.9997 7.82062 20.9791 7.77802C20.7908 7.39041 20.5758 7.01803 20.3292 6.66468C20.3122 6.64024 20.3122 6.64024 20.2949 6.61531C20.165 6.42831 20.0339 6.24291 19.8912 6.06537C19.8713 6.03992 19.8713 6.03992 19.851 6.01396C19.5153 5.58694 19.147 5.17943 18.7387 4.82066C18.7259 4.80942 18.7132 4.79818 18.7 4.78659C18.4953 4.60706 18.2848 4.43502 18.0702 4.26746C18.0557 4.25605 18.0411 4.24464 18.0261 4.23288C17.7823 4.04265 17.5276 3.87496 17.2635 3.71425C17.2396 3.69956 17.2396 3.69956 17.2152 3.68457C16.4929 3.24195 15.7042 2.86787 14.8835 2.64989C14.8202 2.63089 14.8202 2.63089 14.7778 2.60877C14.5768 2.51206 14.3306 2.49275 14.1128 2.45802C14.0514 2.44806 13.9899 2.43804 13.9285 2.42803C13.8993 2.42329 13.8701 2.41855 13.84 2.41366C13.7574 2.39998 13.6751 2.38529 13.5927 2.37003C13.4482 2.34325 13.3037 2.3218 13.1577 2.30531C13.1423 2.30356 13.1269 2.30182 13.111 2.30002C13.0584 2.29447 13.0058 2.28968 12.9531 2.28514C12.93 2.28312 12.9069 2.2811 12.8831 2.27902C12.6037 2.25744 12.3242 2.25551 12.044 2.25489C12.0181 2.25482 11.9922 2.25476 11.9656 2.2547C11.4388 2.25457 10.9194 2.28045 10.4098 2.42533Z" fill="#16898E"/>
<path d="M13.0624 4.50372C13.091 4.50726 13.091 4.50726 13.1201 4.51086C13.5207 4.56163 13.9289 4.62662 14.3114 4.75871C14.423 4.79692 14.535 4.83199 14.6485 4.86404C14.8005 4.90696 14.9424 4.95499 15.0849 5.02433C15.1418 5.05077 15.1983 5.07054 15.2579 5.09006C15.4602 5.16162 15.6464 5.27126 15.8342 5.37387C15.8503 5.38258 15.8664 5.3913 15.883 5.40028C16.2546 5.60202 16.6106 5.82366 16.9406 6.08842C16.9742 6.11391 17.0078 6.13936 17.0414 6.16478C17.3568 6.41071 17.6746 6.68081 17.9318 6.98738C17.9605 7.01912 17.9893 7.05081 18.0182 7.08246C18.1313 7.20957 18.2354 7.34341 18.3392 7.47813C18.3666 7.5135 18.3944 7.54854 18.4223 7.58354C18.587 7.7945 18.72 8.02378 18.8538 8.25514C18.864 8.27281 18.8743 8.29048 18.8849 8.30868C19.2221 8.89215 19.4712 9.49443 19.6425 10.146C19.6592 10.2093 19.6764 10.2725 19.6937 10.3356C19.9197 11.1749 19.9518 12.0979 19.8449 12.9574C19.8418 12.9839 19.8387 13.0105 19.8356 13.0378C19.7863 13.4586 19.7215 13.8641 19.5853 14.2659C19.5528 14.3643 19.5251 14.4641 19.4967 14.5638C19.4643 14.6761 19.4266 14.7849 19.3839 14.8936C19.3773 14.9109 19.3706 14.9281 19.3638 14.9459C19.3004 15.1078 19.229 15.2658 19.1563 15.4238C19.1447 15.4494 19.1331 15.475 19.1211 15.5014C19.0572 15.6403 18.9891 15.7732 18.908 15.9029C18.8751 15.9568 18.8455 16.0118 18.8163 16.0677C18.6424 16.3884 18.4381 16.6888 18.2145 16.9766C18.1898 17.0084 18.1654 17.0405 18.141 17.0727C17.9608 17.309 17.7637 17.5328 17.563 17.7518C17.5529 17.7629 17.5428 17.7739 17.5324 17.7853C17.2905 18.0495 17.0385 18.3037 16.7851 18.557C16.7266 18.6155 16.6682 18.6742 16.6098 18.733C16.5645 18.7786 16.5191 18.824 16.4736 18.8695C16.4415 18.9016 16.4096 18.9338 16.3776 18.966C16.3584 18.9852 16.3391 19.0044 16.3193 19.0242C16.3023 19.0412 16.2854 19.0581 16.2679 19.0756C16.226 19.1118 16.226 19.1118 16.1799 19.1118C16.1723 19.1346 16.1647 19.1574 16.1569 19.1809C16.1417 19.1809 16.1265 19.1809 16.1108 19.1809C16.1048 19.1947 16.0988 19.2085 16.0926 19.2227C16.0626 19.2769 16.0349 19.3035 15.987 19.3422C15.8646 19.4459 15.7529 19.5596 15.6402 19.6735C15.6009 19.7132 15.5616 19.7528 15.5222 19.7924C15.4104 19.9048 15.2987 20.0173 15.1871 20.1299C15.1186 20.199 15.0499 20.2681 14.9811 20.3371C14.955 20.3634 14.9289 20.3897 14.9029 20.4161C14.8667 20.4527 14.8304 20.4892 14.794 20.5256C14.7734 20.5464 14.7527 20.5673 14.7315 20.5887C14.6817 20.6331 14.6817 20.6331 14.6356 20.6331C14.6304 20.6457 14.6253 20.6584 14.6199 20.6714C14.5803 20.7415 14.5274 20.7938 14.4707 20.85C14.4586 20.8622 14.4466 20.8743 14.4341 20.8869C14.3943 20.9269 14.3543 20.9667 14.3143 21.0066C14.2866 21.0344 14.2588 21.0621 14.2311 21.0899C14.1731 21.148 14.1149 21.2061 14.0567 21.2641C13.982 21.3385 13.9075 21.4132 13.833 21.4879C13.7759 21.5453 13.7186 21.6025 13.6612 21.6597C13.6337 21.6872 13.6062 21.7148 13.5787 21.7423C13.5404 21.7807 13.502 21.819 13.4635 21.8572C13.4521 21.8687 13.4407 21.8802 13.429 21.8921C13.35 21.97 13.35 21.97 13.2987 21.97C13.2911 21.9928 13.2835 22.0157 13.2756 22.0392C13.2395 22.0747 13.2395 22.0747 13.1935 22.1126C13.1256 22.1702 13.0613 22.2292 12.999 22.2927C12.9405 22.3522 12.8809 22.4085 12.8175 22.4627C12.7222 22.5445 12.6347 22.6331 12.5471 22.723C12.3972 22.869 12.3972 22.869 12.3306 22.869C12.3306 22.8842 12.3306 22.8994 12.3306 22.9151C12.2985 22.9456 12.2985 22.9456 12.2556 22.977C12.2348 22.9928 12.2348 22.9928 12.2135 23.009C12.1564 23.0365 12.136 23.0277 12.077 23.0073C12.0264 22.9647 11.9789 22.922 11.9315 22.8762C11.9049 22.8509 11.8782 22.8257 11.8515 22.8005C11.8324 22.7823 11.8324 22.7823 11.8129 22.7638C11.7693 22.7232 11.724 22.685 11.6779 22.6471C11.6575 22.6291 11.6371 22.611 11.616 22.5924C11.616 22.5772 11.616 22.5619 11.616 22.5463C11.6026 22.5404 11.5891 22.5346 11.5753 22.5285C11.5182 22.4971 11.4822 22.4623 11.4374 22.4152C11.3635 22.3394 11.2874 22.269 11.2072 22.2001C11.1427 22.1437 11.0797 22.0857 11.0167 22.0276C10.9374 21.9546 10.8576 21.8821 10.7761 21.8115C10.6384 21.6914 10.6384 21.6914 10.5787 21.6243C10.5787 21.5551 10.5787 21.5551 10.609 21.5231C10.6236 21.5116 10.6381 21.5 10.6531 21.488C10.7403 21.415 10.8208 21.3379 10.9005 21.257C10.9125 21.2449 10.9245 21.2327 10.9369 21.2202C10.9869 21.1696 11.0368 21.1189 11.0866 21.0681C11.1234 21.0306 11.1604 20.9932 11.1973 20.9559C11.2086 20.9443 11.2199 20.9327 11.2315 20.9208C11.2589 20.8931 11.2875 20.8667 11.3163 20.8406C11.3316 20.8406 11.3468 20.8406 11.3624 20.8406C11.3701 20.8177 11.3777 20.7949 11.3855 20.7714C11.4311 20.7324 11.4772 20.694 11.5238 20.6562C11.5314 20.6409 11.539 20.6257 11.5468 20.6101C11.5621 20.6101 11.5773 20.6101 11.5929 20.6101C11.5929 20.5948 11.5929 20.5796 11.5929 20.564C11.6082 20.564 11.6234 20.564 11.639 20.564C11.6543 20.5335 11.6695 20.5031 11.6851 20.4718C11.7004 20.4718 11.7156 20.4718 11.7312 20.4718C11.736 20.4595 11.7408 20.4473 11.7457 20.4347C11.7907 20.3563 11.8516 20.2986 11.9157 20.2355C11.9345 20.2163 11.9345 20.2163 11.9538 20.1968C12.0481 20.103 12.0481 20.103 12.1001 20.103C12.1153 20.0725 12.1305 20.0421 12.1462 20.0108C12.1614 20.0108 12.1766 20.0108 12.1923 20.0108C12.1923 19.9955 12.1923 19.9803 12.1923 19.9647C12.2075 19.9647 12.2227 19.9647 12.2384 19.9647C12.2384 19.9494 12.2384 19.9342 12.2384 19.9185C12.2536 19.9185 12.2688 19.9185 12.2845 19.9185C12.2997 19.8881 12.3149 19.8577 12.3306 19.8263C12.3458 19.8263 12.361 19.8263 12.3767 19.8263C12.3852 19.8064 12.3852 19.8064 12.3939 19.786C12.427 19.7266 12.4639 19.6866 12.515 19.6419C12.5302 19.6419 12.5454 19.6419 12.5611 19.6419C12.5657 19.6295 12.5703 19.6171 12.5751 19.6043C12.6206 19.5269 12.6852 19.4733 12.7514 19.414C12.9825 19.2025 13.2029 18.9805 13.4241 18.7588C13.4688 18.714 13.5136 18.6694 13.5584 18.6247C13.612 18.5711 13.6656 18.5175 13.7192 18.4639C13.7491 18.434 13.7491 18.434 13.7797 18.4035C13.8071 18.376 13.8071 18.376 13.835 18.3479C13.8511 18.3318 13.8672 18.3157 13.8838 18.2991C13.9228 18.2608 13.9228 18.2608 13.9441 18.2128C13.9593 18.2128 13.9745 18.2128 13.9902 18.2128C13.9902 18.1976 13.9902 18.1824 13.9902 18.1667C14.0054 18.1667 14.0206 18.1667 14.0363 18.1667C14.0363 18.1515 14.0363 18.1363 14.0363 18.1206C14.0671 18.0903 14.0671 18.0903 14.1115 18.0539C14.2454 17.9399 14.3679 17.8149 14.4918 17.6904C14.5176 17.6646 14.5434 17.6387 14.5692 17.6129C14.6367 17.5453 14.7042 17.4776 14.7716 17.41C14.8401 17.3412 14.9087 17.2725 14.9772 17.2038C15.0979 17.083 15.2184 16.9621 15.339 16.8411C15.3785 16.8015 15.4183 16.7621 15.4584 16.723C15.5141 16.6691 15.5141 16.6691 15.5576 16.5993C15.5728 16.5993 15.588 16.5993 15.6037 16.5993C15.6125 16.5792 15.6125 16.5792 15.6215 16.5587C15.6528 16.5015 15.6877 16.4644 15.7343 16.4189C15.7511 16.4023 15.7679 16.3858 15.7853 16.3687C15.8028 16.3516 15.8204 16.3346 15.8385 16.317C15.9658 16.1926 16.0875 16.0663 16.203 15.9309C16.224 15.9068 16.2451 15.8827 16.2661 15.8587C16.4956 15.5919 16.6913 15.3112 16.8714 15.0089C16.8846 14.9877 16.8978 14.9666 16.9114 14.9448C17.2298 14.4243 17.4179 13.8286 17.5399 13.234C17.5444 13.2133 17.5489 13.1927 17.5536 13.1714C17.6819 12.5738 17.6832 11.9017 17.586 11.2978C17.583 11.2789 17.5801 11.26 17.577 11.2406C17.412 10.225 16.983 9.27615 16.2787 8.51959C16.2346 8.47185 16.1927 8.4232 16.1511 8.37328C15.924 8.11388 15.6538 7.90004 15.3732 7.70194C15.3564 7.69007 15.3396 7.6782 15.3224 7.66598C15.0873 7.50111 14.8488 7.36354 14.5895 7.24093C14.5525 7.22132 14.5155 7.20164 14.4785 7.18187C14.01 6.94836 13.4952 6.83603 12.9839 6.7452C12.9299 6.73383 12.9299 6.73383 12.8838 6.71078C12.7331 6.68795 12.5812 6.68385 12.4291 6.68305C12.4085 6.68288 12.3879 6.68272 12.3666 6.68256C12.3003 6.68216 12.234 6.68201 12.1678 6.68197C12.1338 6.68194 12.1338 6.68194 12.0992 6.68192C11.6446 6.68242 11.2022 6.69477 10.769 6.84611C10.7049 6.86836 10.6437 6.88487 10.5773 6.89806C10.5033 6.91294 10.4401 6.93748 10.3714 6.96937C10.3119 6.99255 10.2519 7.00606 10.1898 7.02052C10.0804 7.04631 9.98401 7.08104 9.88354 7.13099C9.84113 7.14873 9.84113 7.14873 9.77198 7.14873C9.77198 7.16395 9.77198 7.17916 9.77198 7.19483C9.75656 7.20048 9.74114 7.20612 9.72525 7.21194C9.2693 7.38942 8.87229 7.68442 8.50422 8.00159C8.48689 8.01633 8.46957 8.03107 8.45172 8.04625C8.36302 8.12253 8.27959 8.20222 8.19781 8.28585C8.16034 8.32246 8.12151 8.35492 8.08067 8.38768C7.96759 8.4828 7.88099 8.60079 7.78966 8.71615C7.77498 8.73365 7.7603 8.75115 7.74518 8.76918C7.64255 8.89246 7.55179 9.02238 7.46264 9.15554C7.45113 9.17269 7.43962 9.18983 7.42776 9.2075C7.35009 9.32492 7.28041 9.44524 7.2134 9.569C7.19615 9.60001 7.1789 9.63102 7.16163 9.66202C7.04282 9.87881 6.94751 10.0959 6.86765 10.3297C6.85739 10.3589 6.84713 10.3882 6.83686 10.4175C6.64078 10.9884 6.56243 11.5291 6.5608 12.129C6.56073 12.1503 6.56067 12.1715 6.56061 12.1934C6.56046 12.6897 6.61232 13.1711 6.7524 13.6489C6.75757 13.6672 6.76275 13.6855 6.76808 13.7043C6.83415 13.9378 6.90388 14.1658 7.00595 14.3865C7.01355 14.4034 7.02114 14.4203 7.02897 14.4377C7.29957 15.0378 7.64577 15.5824 8.08931 16.0692C8.10209 16.0832 8.11486 16.0973 8.12802 16.1118C8.29746 16.2978 8.47236 16.4778 8.65191 16.654C8.7218 16.7229 8.78917 16.7924 8.85276 16.8672C8.97881 17.0134 9.11906 17.1465 9.25623 17.2822C9.31182 17.3372 9.36734 17.3922 9.4228 17.4473C9.44157 17.4658 9.44157 17.4658 9.46072 17.4847C9.53898 17.5624 9.60979 17.6435 9.67978 17.7288C9.71919 17.7656 9.71919 17.7656 9.75757 17.795C9.8333 17.8579 9.89533 17.9272 9.9589 18.0021C10.0233 18.0751 10.0931 18.1423 10.1624 18.2106C10.2011 18.2499 10.2362 18.2893 10.2704 18.3324C10.3137 18.3836 10.352 18.4214 10.403 18.4635C10.4786 18.5263 10.5406 18.5955 10.6042 18.6702C10.6966 18.7754 10.7939 18.8831 10.9077 18.9651C10.9208 18.9755 10.934 18.9859 10.9475 18.9965C10.9475 19.0118 10.9475 19.027 10.9475 19.0426C10.978 19.0579 11.0084 19.0731 11.0397 19.0887C11.0312 19.205 10.9697 19.2638 10.89 19.3413C10.8774 19.3539 10.8647 19.3666 10.8517 19.3796C10.825 19.4061 10.7982 19.4326 10.7713 19.4589C10.73 19.4993 10.6891 19.5402 10.6482 19.581C10.6222 19.6068 10.5962 19.6325 10.5702 19.6582C10.5579 19.6705 10.5456 19.6827 10.5329 19.6953C10.4458 19.7802 10.4458 19.7802 10.3943 19.7802C10.3943 19.7955 10.3943 19.8107 10.3943 19.8263C10.3632 19.857 10.3632 19.857 10.3184 19.8936C10.188 20.0045 10.0693 20.1267 9.94918 20.2485C9.90419 20.2941 9.85914 20.3396 9.81403 20.385C9.78446 20.415 9.78446 20.415 9.7543 20.4456C9.70283 20.4948 9.70283 20.4948 9.63368 20.5409C9.55997 20.5333 9.52092 20.5063 9.46836 20.4557C9.45505 20.4431 9.44173 20.4305 9.42802 20.4175C9.41411 20.404 9.40021 20.3906 9.38589 20.3767C9.35679 20.349 9.32768 20.3214 9.29855 20.2937C9.28467 20.2805 9.27078 20.2673 9.25648 20.2537C9.21334 20.2131 9.16891 20.1743 9.12369 20.1361C9.03191 20.0571 8.9474 19.9712 8.86293 19.8846C8.80221 19.8228 8.74004 19.7644 8.67413 19.7081C8.56601 19.6139 8.46522 19.5133 8.36439 19.4114C8.34508 19.392 8.32577 19.3726 8.30587 19.3526C8.24467 19.2911 8.18355 19.2295 8.12245 19.168C8.04181 19.0867 7.96109 19.0055 7.88033 18.9244C7.86208 18.906 7.84383 18.8875 7.82502 18.8685C7.73572 18.7788 7.64579 18.6925 7.54773 18.6124C7.50951 18.5785 7.47776 18.5419 7.44535 18.5024C7.40002 18.4478 7.35444 18.4013 7.29984 18.356C7.15618 18.2319 7.02383 18.0958 6.88986 17.9614C6.84327 17.9147 6.79656 17.8681 6.74983 17.8216C6.60754 17.6794 6.46655 17.5376 6.3375 17.383C6.31703 17.3595 6.29653 17.3359 6.276 17.3124C5.65142 16.5842 5.15594 15.7541 4.81472 14.8578C4.80088 14.8216 4.7868 14.7856 4.77244 14.7496C4.62397 14.3776 4.54752 13.9874 4.46569 13.5966C4.45202 13.5324 4.43742 13.4687 4.4219 13.405C4.36257 13.1356 4.34805 12.8624 4.34824 12.5874C4.34815 12.5553 4.34805 12.5232 4.34794 12.4911C4.34777 12.4243 4.34778 12.3575 4.3479 12.2907C4.34801 12.2237 4.34785 12.1567 4.34743 12.0897C4.34372 11.4948 4.37858 10.9181 4.52572 10.3387C4.53844 10.2881 4.55032 10.2373 4.56182 10.1864C4.73094 9.44934 5.07186 8.72468 5.48464 8.09379C5.50688 8.05929 5.50688 8.05929 5.52957 8.0241C5.82756 7.56862 6.17756 7.14299 6.56225 6.75836C6.59656 6.724 6.63068 6.68946 6.66479 6.65491C6.80942 6.50944 6.96069 6.3778 7.1212 6.24977C7.14794 6.22714 7.17456 6.20436 7.20098 6.18134C7.35427 6.04819 7.5114 5.92782 7.68077 5.81525C7.72286 5.78721 7.76469 5.75879 7.8065 5.73033C8.11427 5.52162 8.43084 5.35195 8.76761 5.1947C8.82795 5.16593 8.88748 5.13583 8.94703 5.10546C9.03584 5.06077 9.12446 5.02402 9.21877 4.9921C9.31086 4.96071 9.40137 4.9275 9.49132 4.89053C9.60472 4.84481 9.7191 4.8088 9.83681 4.776C9.85757 4.77017 9.87834 4.76434 9.89973 4.75833C10.2482 4.6617 10.5974 4.57735 10.9561 4.52921C10.9979 4.52355 11.0397 4.51761 11.0815 4.51145C11.7399 4.41551 12.403 4.42188 13.0624 4.50372Z" fill="#16878C"/>
<path d="M12.1233 8.87744C12.1385 8.87744 12.1537 8.87744 12.1694 8.87744C12.4039 9.34022 12.6262 9.80837 12.8382 10.2818C12.9047 10.4302 12.9718 10.5783 13.0405 10.7256C13.0472 10.74 13.054 10.7544 13.0609 10.7692C13.0932 10.8383 13.126 10.907 13.1606 10.975C13.2037 10.9767 13.2037 10.9767 13.2476 10.9784C13.2873 10.9802 13.3269 10.9819 13.3666 10.9837C13.3853 10.9844 13.404 10.9851 13.4232 10.9858C13.5353 10.9909 13.6457 11.0006 13.7569 11.015C13.9698 11.0424 14.1799 11.0518 14.3944 11.0549C14.7607 11.0602 15.1239 11.0768 15.4886 11.1133C15.4486 11.1984 15.3989 11.2575 15.3345 11.3265C15.3058 11.3574 15.3058 11.3574 15.2766 11.3888C15.2611 11.4055 15.2611 11.4055 15.2452 11.4225C15.209 11.4624 15.174 11.5031 15.139 11.5439C15.0514 11.6441 14.9587 11.738 14.8641 11.8315C14.8468 11.8487 14.8295 11.8659 14.8117 11.8836C14.7385 11.9564 14.6652 12.0291 14.5919 12.1018C14.538 12.1552 14.4843 12.2087 14.4305 12.2622C14.4142 12.2783 14.3979 12.2945 14.3811 12.3111C14.289 12.4027 14.2015 12.4967 14.1174 12.5957C14.0716 12.6469 14.0192 12.688 13.9659 12.7311C13.9033 12.7932 13.8767 12.8218 13.8698 12.9105C13.8816 12.9898 13.8999 13.0645 13.9212 13.1417C13.933 13.1955 13.9445 13.2492 13.9558 13.3031C13.9647 13.3432 13.9647 13.3432 13.9737 13.384C13.9947 13.4854 14.0101 13.5871 14.0243 13.6896C14.0367 13.7656 14.0531 13.8398 14.0702 13.9148C14.0923 14.0163 14.1103 14.1185 14.1287 14.2208C14.1347 14.2542 14.1347 14.2542 14.1408 14.2884C14.1486 14.3323 14.1565 14.3761 14.1643 14.42C14.173 14.4687 14.1819 14.5172 14.191 14.5658C14.2153 14.7005 14.2254 14.8258 14.2209 14.9627C14.0493 14.9153 13.8866 14.854 13.7224 14.7855C13.6679 14.763 13.6134 14.7406 13.5589 14.7181C13.5442 14.7121 13.5296 14.7061 13.5145 14.6999C13.3865 14.6473 13.2581 14.5958 13.1296 14.5446C13.0988 14.5323 13.0988 14.5323 13.0674 14.5198C12.985 14.4869 12.9026 14.4541 12.8202 14.4213C12.7621 14.3982 12.7041 14.3751 12.6461 14.352C12.6289 14.3452 12.6118 14.3384 12.5942 14.3314C12.4891 14.2894 12.3857 14.2447 12.2829 14.1973C12.2247 14.1733 12.1854 14.1672 12.1233 14.179C12.077 14.2016 12.0309 14.2247 11.985 14.2481C11.9482 14.2598 11.9112 14.2708 11.8741 14.2813C11.7747 14.3095 11.684 14.3467 11.5911 14.3918C11.547 14.4095 11.547 14.4095 11.4779 14.4095C11.4779 14.4247 11.4779 14.4399 11.4779 14.4556C11.4417 14.4673 11.4417 14.4673 11.4047 14.4792C11.3729 14.4896 11.3411 14.4999 11.3093 14.5103C11.2934 14.5154 11.2775 14.5206 11.2611 14.5258C11.1873 14.5501 11.1281 14.5736 11.063 14.6169C11.0287 14.628 10.9941 14.638 10.9593 14.6472C10.871 14.6724 10.7912 14.7038 10.7086 14.7437C10.5773 14.8059 10.4439 14.8401 10.3023 14.8705C10.3023 14.8857 10.3023 14.9009 10.3023 14.9166C10.2491 14.9318 10.1958 14.947 10.141 14.9627C10.1485 14.7364 10.164 14.5202 10.2126 14.2984C10.239 14.1781 10.2597 14.0568 10.2807 13.9355C10.2847 13.9125 10.2887 13.8895 10.2928 13.8658C10.3177 13.7206 10.3401 13.5753 10.3599 13.4294C10.3689 13.3668 10.3789 13.3046 10.3896 13.2423C10.3928 13.2237 10.396 13.2052 10.3992 13.186C10.4055 13.1498 10.4119 13.1137 10.4184 13.0775C10.4554 12.9073 10.4554 12.9073 10.4102 12.7478C10.3965 12.7338 10.3827 12.7197 10.3686 12.7052C10.3539 12.6896 10.3391 12.6741 10.3239 12.658C10.3092 12.6427 10.2945 12.6274 10.2793 12.6116C10.2551 12.5834 10.231 12.5551 10.2072 12.5266C10.138 12.444 10.061 12.3696 9.98406 12.2941C9.93784 12.2487 9.89174 12.2033 9.84564 12.1578C9.82967 12.1422 9.8137 12.1266 9.79725 12.1105C9.78217 12.0956 9.76709 12.0807 9.75155 12.0653C9.73092 12.045 9.73092 12.045 9.70988 12.0244C9.67997 11.9892 9.67997 11.9892 9.67997 11.9431C9.65715 11.9355 9.63433 11.9279 9.61082 11.9201C9.57606 11.8848 9.57606 11.8848 9.53879 11.8394C9.47731 11.7668 9.41361 11.6987 9.34574 11.6319C9.26681 11.5539 9.19214 11.4739 9.12001 11.3896C9.09203 11.3571 9.06358 11.3249 9.03483 11.2929C9.02001 11.2765 9.00518 11.26 8.9899 11.243C8.97638 11.2281 8.96286 11.2131 8.94893 11.1978C8.91931 11.1594 8.91931 11.1594 8.91931 11.1133C9.24307 11.0788 9.56629 11.0612 9.89148 11.0483C10.2228 11.0351 10.553 11.0203 10.8829 10.9865C10.9241 10.9824 10.9241 10.9824 10.9662 10.9783C11.0966 10.9713 11.0966 10.9713 11.2013 10.9059C11.2192 10.8621 11.2358 10.8178 11.2517 10.7733C11.3029 10.637 11.3636 10.5095 11.4299 10.3799C11.5818 10.079 11.7153 9.76812 11.8515 9.45983C11.9382 9.26404 12.0264 9.06841 12.1233 8.87744Z" fill="#17878C"/>
<path d="M47.7044 7.05787C47.7721 7.05799 47.8397 7.05787 47.9074 7.05772C48.975 7.05724 49.9839 7.2535 50.955 7.71003C50.9954 7.72867 51.0363 7.74609 51.0773 7.76346C51.167 7.80231 51.254 7.84511 51.3411 7.88924C51.3564 7.89695 51.3718 7.90466 51.3875 7.91261C51.4183 7.92809 51.449 7.94359 51.4798 7.9591C51.5569 7.99796 51.6341 8.03651 51.7114 8.07508C51.7114 8.0903 51.7114 8.10551 51.7114 8.12119C51.727 8.12659 51.7426 8.132 51.7587 8.13757C51.8424 8.17421 51.9156 8.22269 51.9909 8.27389C52.0137 8.28931 52.0137 8.28931 52.037 8.30504C52.708 8.76003 53.3359 9.30128 53.8259 9.95005C53.8545 9.98749 53.8836 10.0244 53.9129 10.0612C54.1572 10.3688 54.3614 10.7027 54.5466 11.0486C54.5542 11.0626 54.5618 11.0767 54.5696 11.0912C54.7254 11.3811 54.8446 11.6864 54.9615 11.9936C54.9677 12.0099 54.9739 12.0261 54.9803 12.0428C55.017 12.1404 55.0482 12.2392 55.0767 12.3394C55.0829 12.3612 55.0891 12.383 55.0955 12.4054C55.4546 13.6937 55.4455 15.093 55.0537 16.3732C55.0475 16.394 55.0414 16.4148 55.0351 16.4363C55.0063 16.5347 54.9765 16.6305 54.9355 16.7247C54.8973 16.8136 54.8601 16.9028 54.8246 16.9928C54.5887 17.5877 54.2948 18.1481 53.9011 18.6551C53.8798 18.6827 53.8798 18.6827 53.858 18.7108C53.8116 18.7696 53.7644 18.8277 53.7167 18.8856C53.707 18.8975 53.6973 18.9093 53.6873 18.9215C53.5638 19.0713 53.4378 19.2146 53.2984 19.3501C53.2529 19.3939 53.2529 19.3939 53.2082 19.4532C53.155 19.5185 53.0953 19.5699 53.0314 19.6244C52.9755 19.6725 52.9212 19.7219 52.8668 19.7716C52.4005 20.1907 51.866 20.5175 51.3113 20.8056C51.2968 20.8132 51.2823 20.8208 51.2674 20.8286C51.2273 20.8449 51.2273 20.8449 51.1582 20.8449C51.1582 20.8601 51.1582 20.8753 51.1582 20.891C51.1174 20.9065 51.0766 20.9218 51.0357 20.9371C51.013 20.9457 50.9903 20.9542 50.9668 20.963C50.9046 20.9832 50.9046 20.9832 50.8355 20.9832C50.8279 21.006 50.8203 21.0288 50.8124 21.0524C50.753 21.0792 50.753 21.0792 50.6733 21.1047C50.659 21.1093 50.6447 21.114 50.6299 21.1187C50.5828 21.1339 50.5356 21.1486 50.4883 21.1633C50.4639 21.1709 50.4639 21.1709 50.4391 21.1787C50.0136 21.3124 49.5913 21.4191 49.1499 21.4845C49.1343 21.4869 49.1186 21.4892 49.1025 21.4916C48.6606 21.5565 48.2209 21.5904 47.7742 21.5885C47.7046 21.5883 47.6349 21.5885 47.5653 21.5888C47.2156 21.5891 46.8827 21.5638 46.5409 21.485C46.4625 21.4686 46.3849 21.4568 46.3056 21.446C46.0164 21.4058 45.7426 21.3248 45.4648 21.2368C45.4314 21.2262 45.4314 21.2262 45.3974 21.2154C45.0272 21.0972 44.6807 20.9533 44.3353 20.7757C44.318 20.7669 44.3006 20.7581 44.2828 20.749C43.8735 20.5402 43.492 20.3113 43.1321 20.025C43.0965 19.9967 43.0606 19.9688 43.0246 19.941C42.6205 19.6259 42.2226 19.2496 41.915 18.8395C41.8886 18.8054 41.8622 18.7713 41.8358 18.7372C41.3694 18.1309 41.0073 17.4804 40.7395 16.765C40.7293 16.7383 40.7191 16.7115 40.7086 16.684C40.6789 16.6039 40.6511 16.5234 40.6242 16.4423C40.6189 16.4265 40.6136 16.4107 40.6081 16.3943C40.2818 15.4024 40.2241 14.313 40.3707 13.2844C40.3736 13.2617 40.3766 13.2389 40.3796 13.2155C40.5168 12.169 40.9453 11.1508 41.5462 10.2879C41.5606 10.2672 41.5749 10.2465 41.5897 10.2251C41.7022 10.0665 41.8256 9.9192 41.9524 9.77209C41.982 9.73721 42.0109 9.70167 42.0397 9.66609C42.1774 9.49729 42.3262 9.3417 42.4798 9.18726C42.5097 9.15699 42.5097 9.15699 42.5403 9.12612C42.6782 8.98885 42.8228 8.8642 42.9753 8.74354C43.0025 8.72184 43.0025 8.72184 43.0301 8.69969C43.2282 8.54175 43.4261 8.38964 43.6438 8.25949C43.665 8.24603 43.6861 8.23257 43.7079 8.2187C44.0535 8.00002 44.4184 7.79453 44.7963 7.63713C44.8331 7.62162 44.8331 7.62162 44.8707 7.6058C45.5072 7.34533 46.15 7.19408 46.8317 7.11586C46.896 7.10857 46.896 7.10857 46.963 7.08393C47.2083 7.05148 47.4576 7.05734 47.7044 7.05787Z" fill="#16898E"/>
<path d="M57.0591 7.33752C64.1879 7.33752 64.1879 7.33752 65.1267 7.82158C65.1406 7.82861 65.1545 7.83565 65.1688 7.8429C65.3409 7.93013 65.5074 8.02508 65.6712 8.12699C65.6865 8.1365 65.7018 8.146 65.7175 8.15579C65.8016 8.20891 65.8799 8.26505 65.9565 8.32868C65.9843 8.35079 65.9843 8.35079 66.0127 8.37334C66.86 9.05534 67.4201 9.95769 67.6391 11.0256C67.6429 11.0428 67.6467 11.06 67.6507 11.0777C67.7831 11.688 67.7452 12.3605 67.593 12.9618C67.5876 12.9845 67.5823 13.0073 67.5767 13.0307C67.5395 13.1862 67.494 13.3362 67.4389 13.4862C67.4308 13.5081 67.4228 13.5299 67.4145 13.5525C67.2064 14.1067 66.8826 14.5971 66.4743 15.024C66.4514 15.048 66.4287 15.072 66.4061 15.0961C65.6307 15.9205 64.4937 16.3736 63.3748 16.4424C63.2628 16.4453 63.1508 16.4453 63.0387 16.445C63.0055 16.445 62.9722 16.445 62.9389 16.445C62.8507 16.445 62.7625 16.4449 62.6742 16.4447C62.5911 16.4446 62.508 16.4446 62.4249 16.4445C62.1826 16.4444 61.9402 16.4441 61.6979 16.4438C61.156 16.4433 60.614 16.4428 60.0556 16.4424C60.0556 18.0169 60.0556 19.5915 60.0556 21.2138C59.0668 21.2138 58.0779 21.2138 57.0591 21.2138C57.0591 16.6346 57.0591 12.0554 57.0591 7.33752Z" fill="#16898E"/>
<path d="M70.8201 7.33752C71.8915 7.33699 72.9629 7.33659 74.0344 7.33634C74.1607 7.33631 74.2871 7.33628 74.4134 7.33625C74.4511 7.33624 74.4511 7.33624 74.4896 7.33623C74.8975 7.33613 75.3054 7.33595 75.7132 7.33574C76.1314 7.33553 76.5496 7.3354 76.9678 7.33535C77.2261 7.33532 77.4843 7.33522 77.7426 7.33503C77.9194 7.33491 78.0963 7.33487 78.2731 7.3349C78.3753 7.33492 78.4775 7.33489 78.5797 7.33477C78.6731 7.33466 78.7665 7.33465 78.8599 7.33473C78.8938 7.33474 78.9278 7.33471 78.9617 7.33464C79.0075 7.33455 79.0534 7.33461 79.0992 7.33468C79.1375 7.33467 79.1375 7.33467 79.1766 7.33466C79.2334 7.33752 79.2334 7.33752 79.2565 7.36057C79.2565 8.25814 79.2565 9.15572 79.2565 10.0805C77.256 10.0805 75.2554 10.0805 73.1943 10.0805C73.1943 10.1794 73.1943 10.2783 73.1943 10.3801C73.1867 10.403 73.1791 10.4258 73.1712 10.4493C73.1626 10.5117 73.155 10.5739 73.1482 10.6366C73.1461 10.6549 73.1441 10.6732 73.142 10.6921C73.1285 10.8186 73.1198 10.9447 73.1136 11.0717C73.1077 11.193 73.0946 11.3078 73.0669 11.4261C73.0469 11.5371 73.0441 11.6501 73.0386 11.7625C73.0329 11.8323 73.0329 11.8323 73.0099 11.8554C73.0013 11.9133 72.9939 11.9709 72.9875 12.029C72.9854 12.0464 72.9834 12.0638 72.9814 12.0817C72.9749 12.1373 72.9686 12.193 72.9623 12.2487C72.958 12.2863 72.9537 12.324 72.9493 12.3616C72.9387 12.4541 72.9281 12.5466 72.9177 12.6391C72.9406 12.6282 72.9635 12.6174 72.9872 12.6063C73.018 12.5918 73.0488 12.5773 73.0797 12.5628C73.0947 12.5557 73.1097 12.5486 73.1252 12.5413C73.4521 12.388 73.7905 12.2907 74.1393 12.2011C74.1552 12.197 74.171 12.1928 74.1873 12.1886C74.6442 12.0709 75.1062 12.0585 75.5757 12.0585C75.5953 12.0585 75.615 12.0584 75.6353 12.0584C75.6917 12.0584 75.7481 12.0586 75.8044 12.0589C75.83 12.059 75.83 12.059 75.8561 12.059C75.9277 12.0597 75.984 12.063 76.0525 12.0859C76.0952 12.0877 76.138 12.0891 76.1807 12.0902C76.3521 12.1011 76.515 12.1364 76.6821 12.1752C76.7076 12.1811 76.7332 12.187 76.7595 12.1931C77.3932 12.3444 77.9892 12.6386 78.4728 13.077C78.49 13.0918 78.5071 13.1066 78.5248 13.1219C78.7778 13.3423 79.0034 13.584 79.1847 13.8669C79.2121 13.9094 79.2399 13.9516 79.2678 13.9938C79.4674 14.3001 79.6161 14.6237 79.7405 14.9671C79.7477 14.9855 79.7548 15.0039 79.7621 15.0228C79.8211 15.1775 79.8611 15.3307 79.8932 15.493C79.8979 15.5155 79.9026 15.538 79.9075 15.5613C79.9219 15.632 79.9352 15.7028 79.948 15.7739C79.9524 15.7984 79.9569 15.823 79.9615 15.8483C79.9982 16.0743 80.0014 16.2962 79.9999 16.5245C79.9998 16.5438 79.9997 16.5631 79.9996 16.5829C79.9965 17.2951 79.9105 18.0355 79.5792 18.6782C79.5672 18.7036 79.5551 18.729 79.5427 18.7551C79.4539 18.9399 79.3521 19.1101 79.2334 19.2775C79.2185 19.2989 79.2035 19.3202 79.1881 19.3422C78.9478 19.6787 78.6773 20.0045 78.3575 20.2687C78.3355 20.2875 78.3135 20.3063 78.2908 20.3257C78.0721 20.508 77.8314 20.6478 77.5847 20.7886C77.5322 20.8193 77.481 20.8514 77.4299 20.8844C77.289 20.9732 77.1312 21.0217 76.9745 21.0754C76.9508 21.0837 76.9271 21.0919 76.9027 21.1004C76.5457 21.2231 76.1963 21.3242 75.822 21.3751C75.7989 21.3785 75.7758 21.3819 75.752 21.3853C74.8164 21.5191 73.8764 21.4568 72.9638 21.2137C72.9375 21.2068 72.9375 21.2068 72.9108 21.1997C72.5453 21.1012 72.1963 20.9672 71.8574 20.7988C71.8405 20.7905 71.8237 20.7822 71.8063 20.7736C71.5245 20.6334 71.2611 20.4741 71.0045 20.2917C70.9839 20.2771 70.9839 20.2771 70.9629 20.2622C70.7605 20.1166 70.5792 19.9507 70.4 19.7779C70.3624 19.7417 70.3244 19.7059 70.2863 19.6702C69.9393 19.3401 69.5654 18.8766 69.391 18.4247C69.395 18.3669 69.395 18.3669 69.414 18.3094C69.4548 18.2753 69.4548 18.2753 69.5086 18.2474C69.5287 18.2367 69.5488 18.226 69.5695 18.215C69.5914 18.2038 69.6133 18.1927 69.6359 18.1812C69.6584 18.1693 69.6809 18.1575 69.7041 18.1453C69.7763 18.1074 69.8487 18.0701 69.9211 18.0328C69.9925 17.9958 70.0638 17.9586 70.1351 17.9214C70.1794 17.8984 70.2238 17.8755 70.2682 17.8527C70.3913 17.7892 70.5103 17.7214 70.6286 17.6494C70.7015 17.6062 70.7767 17.5693 70.8532 17.5329C71.0224 17.451 71.1837 17.3577 71.3435 17.2587C71.3698 17.2429 71.3698 17.2429 71.3967 17.2267C71.4122 17.2171 71.4278 17.2075 71.4437 17.1977C71.4886 17.18 71.4886 17.18 71.5366 17.1837C71.5914 17.2077 71.6088 17.2314 71.6414 17.2813C71.6522 17.2974 71.6631 17.3136 71.6743 17.3303C71.6857 17.3477 71.6972 17.3651 71.709 17.3831C71.8213 17.5479 71.9382 17.6951 72.0782 17.8378C72.1122 17.8727 72.1451 17.9085 72.178 17.9445C72.3765 18.157 72.6035 18.3157 72.8485 18.4708C72.8623 18.4795 72.8761 18.4882 72.8903 18.4973C73.107 18.633 73.3362 18.7438 73.5796 18.8225C73.6126 18.8332 73.6455 18.8443 73.6783 18.8558C74.3084 19.0752 75.1968 19.0253 75.799 18.7474C75.8789 18.7118 75.9162 18.7013 76.0064 18.7013C76.0064 18.6861 76.0064 18.6708 76.0064 18.6552C76.0193 18.6498 76.0322 18.6444 76.0455 18.6389C76.5555 18.4068 76.9615 17.921 77.1647 17.4047C77.1789 17.3608 77.1923 17.3165 77.205 17.2722C77.2136 17.244 77.2221 17.2159 77.2309 17.1869C77.3939 16.5993 77.3134 16.012 77.0437 15.4742C76.9638 15.3334 76.8621 15.2103 76.7587 15.0862C76.721 15.0363 76.721 15.0363 76.6979 14.9671C76.6827 14.9671 76.6675 14.9671 76.6518 14.9671C76.613 14.9291 76.5746 14.8906 76.5366 14.8519C75.9019 14.3357 75.1309 14.1737 74.3237 14.2295C74.0627 14.2578 73.7827 14.2895 73.54 14.3909C73.4984 14.4011 73.4566 14.4106 73.4147 14.4197C73.2479 14.4602 73.0966 14.5278 72.9407 14.5983C72.9225 14.6059 72.9043 14.6135 72.8855 14.6213C72.5876 14.7457 72.3269 14.9179 72.095 15.1424C72.075 15.1616 72.0551 15.1808 72.0346 15.2005C72.0171 15.2182 71.9996 15.2358 71.9815 15.254C71.9265 15.2898 71.9265 15.2898 71.8556 15.2864C71.7855 15.266 71.7259 15.2353 71.6614 15.2014C71.5622 15.1552 71.4575 15.1242 71.3535 15.0906C71.2543 15.0584 71.156 15.0238 71.0578 14.9887C70.9449 14.9485 70.8318 14.9093 70.7178 14.8721C70.6151 14.8383 70.5156 14.7994 70.4156 14.7583C70.3384 14.7287 70.2597 14.7059 70.1799 14.6839C70.1287 14.6675 70.0841 14.6459 70.0364 14.6214C70.0334 14.4595 70.0417 14.3012 70.058 14.1402C70.06 14.1189 70.062 14.0977 70.0641 14.0757C70.0795 13.9183 70.0795 13.9183 70.0939 13.8636C70.1098 13.7968 70.1146 13.7306 70.1205 13.6621C70.1232 13.6314 70.1259 13.6007 70.1286 13.57C70.13 13.554 70.1314 13.538 70.1329 13.5214C70.1556 13.2623 70.1821 13.0047 70.2195 12.7472C70.2428 12.5841 70.2591 12.4209 70.2738 12.2568C70.287 12.1103 70.3054 11.9654 70.326 11.8197C70.3394 11.7136 70.3469 11.6074 70.3534 11.5006C70.3591 11.4405 70.3591 11.4405 70.3822 11.3713C70.4161 11.1546 70.4343 10.9384 70.4434 10.7194C70.4498 10.61 70.4643 10.5017 70.4784 10.3929C70.5031 10.2003 70.5233 10.0072 70.5435 9.81398C70.5455 9.79473 70.5476 9.77548 70.5497 9.75565C70.5727 9.53706 70.5943 9.31858 70.6112 9.09942C70.6308 8.84991 70.6664 8.6028 70.7011 8.35505C70.742 8.06309 70.7737 7.7718 70.792 7.47744C70.7971 7.42902 70.8079 7.38457 70.8201 7.33752Z" fill="#16898E"/>
<path d="M47.8429 9.77649C47.9042 9.77644 47.9656 9.77602 48.0269 9.77558C48.0663 9.77551 48.1056 9.77547 48.145 9.77545C48.1631 9.77528 48.1813 9.77511 48.2 9.77494C48.3044 9.77538 48.3858 9.78909 48.4845 9.82686C48.5233 9.83005 48.5623 9.83192 48.6012 9.83262C48.9804 9.8591 49.3858 10.015 49.7197 10.1908C49.7778 10.2208 49.7778 10.2208 49.8503 10.2495C50.8173 10.6595 51.5994 11.6351 51.9889 12.5831C52.2059 13.1263 52.3211 13.7093 52.3195 14.2943C52.3195 14.3106 52.3195 14.3269 52.3195 14.3437C52.3187 14.6647 52.2841 14.9751 52.2187 15.2898C52.2135 15.3147 52.2135 15.3147 52.2082 15.3402C52.1864 15.4404 52.1582 15.5381 52.1265 15.6355C52.12 15.6554 52.1136 15.6752 52.107 15.6957C51.8848 16.375 51.561 16.9817 51.0662 17.5026C51.0401 17.5332 51.0141 17.5639 50.9884 17.5948C50.7299 17.8916 50.4067 18.1247 50.075 18.3324C50.0583 18.3429 50.0415 18.3533 50.0243 18.3641C49.6201 18.6125 49.1781 18.7549 48.7179 18.8625C48.6986 18.8671 48.6794 18.8716 48.6595 18.8762C48.3707 18.9387 48.0743 18.9372 47.7801 18.9375C47.7618 18.9375 47.7435 18.9375 47.7247 18.9375C47.4422 18.9374 47.1711 18.9214 46.8941 18.8625C46.8684 18.8578 46.8427 18.8531 46.8162 18.8482C46.0327 18.6904 45.3195 18.2601 44.7504 17.71C44.7181 17.6795 44.7181 17.6795 44.6851 17.6484C44.5275 17.496 44.395 17.3334 44.2663 17.1568C44.2519 17.1371 44.2375 17.1174 44.2226 17.0971C44.0323 16.8315 43.8754 16.5527 43.7362 16.2579C43.718 16.2196 43.718 16.2196 43.6995 16.1805C43.2236 15.1239 43.1716 13.8855 43.5705 12.796C43.643 12.6064 43.7328 12.4259 43.8284 12.2471C43.8357 12.2334 43.843 12.2197 43.8505 12.2056C44.0198 11.8909 44.2151 11.597 44.4627 11.3389C44.5103 11.289 44.555 11.2383 44.5991 11.1854C44.67 11.1036 44.7474 11.0298 44.8267 10.9563C44.8389 10.9449 44.8511 10.9336 44.8637 10.9218C44.9522 10.8411 44.9522 10.8411 45.0039 10.8411C45.0039 10.8259 45.0039 10.8106 45.0039 10.795C45.0525 10.7549 45.1012 10.7178 45.1523 10.6812C45.1677 10.67 45.1832 10.6589 45.199 10.6474C45.4523 10.4663 45.7055 10.2903 45.9951 10.1726C46.0196 10.1616 46.0441 10.1506 46.0693 10.1392C46.271 10.049 46.4748 9.98091 46.6866 9.91906C46.7147 9.91062 46.7427 9.90218 46.7716 9.89349C46.834 9.8767 46.8891 9.86615 46.9531 9.86143C47.0155 9.85556 47.0619 9.84767 47.1217 9.82686C47.348 9.75442 47.6074 9.77647 47.8429 9.77649Z" fill="white"/>
<path d="M29.329 7.33439C29.3539 7.33448 29.3539 7.33448 29.3792 7.33457C29.4055 7.33453 29.4055 7.33453 29.4324 7.33449C29.4919 7.33443 29.5514 7.33454 29.611 7.33464C29.6538 7.33463 29.6966 7.33461 29.7394 7.33458C29.8576 7.33453 29.9758 7.33462 30.094 7.33473C30.2213 7.33483 30.3485 7.3348 30.4758 7.33478C30.6964 7.33477 30.9171 7.33484 31.1378 7.33497C31.4569 7.33516 31.7759 7.33522 32.095 7.33525C32.6126 7.3353 33.1302 7.33545 33.6478 7.33567C34.1507 7.33588 34.6537 7.33605 35.1566 7.33614C35.1721 7.33615 35.1876 7.33615 35.2036 7.33615C35.3592 7.33618 35.5147 7.33621 35.6703 7.33624C36.9759 7.33648 38.2814 7.33691 39.587 7.33741C39.587 8.23498 39.587 9.13256 39.587 10.0573C38.3928 10.0573 37.1985 10.0573 35.9681 10.0573C35.9681 13.7389 35.9681 17.4205 35.9681 21.2136C34.9869 21.2136 34.0056 21.2136 32.9946 21.2136C32.9946 17.5321 32.9946 13.8505 32.9946 10.0573C31.7395 10.0573 30.4845 10.0573 29.1913 10.0573C29.1909 9.61282 29.1904 9.16832 29.1899 8.71034C29.1897 8.56975 29.1895 8.42917 29.1893 8.28432C29.1892 8.11323 29.1892 8.11323 29.1891 8.03326C29.1891 7.97715 29.189 7.92104 29.1889 7.86494C29.1887 7.78017 29.1887 7.69541 29.1887 7.61064C29.1886 7.58546 29.1886 7.56028 29.1885 7.53433C29.1885 7.51165 29.1885 7.48898 29.1886 7.46561C29.1886 7.44575 29.1885 7.42588 29.1885 7.40541C29.1943 7.31437 29.2513 7.33466 29.329 7.33439Z" fill="#16898E"/>
<path d="M60.0555 9.896C60.7501 9.89457 60.7501 9.89457 61.4587 9.89311C61.6046 9.89269 61.7506 9.89227 61.9009 9.89184C62.0798 9.89163 62.0798 9.89163 62.1637 9.8916C62.222 9.89152 62.2803 9.89136 62.3386 9.89113C62.4272 9.89079 62.5157 9.89074 62.6043 9.89076C62.6429 9.89051 62.6429 9.89051 62.6823 9.89026C62.8343 9.89066 62.9734 9.90706 63.1212 9.9421C63.1443 9.94643 63.1675 9.95077 63.1913 9.95524C63.7018 10.0648 64.1766 10.4307 64.4581 10.8655C64.5442 11.0045 64.6124 11.1476 64.6656 11.3021C64.6729 11.3221 64.6803 11.3422 64.6878 11.3629C64.8298 11.8209 64.7447 12.3827 64.5278 12.8035C64.2675 13.2785 63.8462 13.6471 63.3248 13.8068C63.0508 13.8824 62.7863 13.9103 62.5022 13.9093C62.4753 13.9094 62.4483 13.9094 62.4205 13.9094C62.3337 13.9093 62.247 13.9092 62.1602 13.909C62.1064 13.9089 62.0526 13.9089 61.9988 13.9089C61.8001 13.9088 61.6013 13.9085 61.4025 13.9082C60.7358 13.9075 60.7358 13.9075 60.0555 13.9067C60.0555 12.5832 60.0555 11.2596 60.0555 9.896Z" fill="white"/>
</svg>
