<svg width="12" height="12" viewBox="0 0 12 12" fill="none" xmlns="http://www.w3.org/2000/svg">
<path d="M4.125 6C4.125 6.475 4.14625 6.9355 4.18575 7.375H7.81425C7.85375 6.9355 7.875 6.475 7.875 6C7.875 5.525 7.85375 5.0645 7.814 4.625H4.18625C4.14625 5.0645 4.125 5.525 4.125 6ZM3.43325 4.625C3.39412 5.08229 3.37469 5.54104 3.375 6C3.375 6.4715 3.395 6.93175 3.433 7.375H0.54425C0.43375 6.935 0.375 6.47425 0.375 6C0.375 5.52575 0.43375 5.065 0.54425 4.625H3.43325ZM4.27475 3.875H7.725C7.614 3.11825 7.446 2.4435 7.23775 1.88925C7.043 1.371 6.8205 0.97725 6.59275 0.72025C6.3645 0.46225 6.163 0.375 6 0.375C5.837 0.375 5.6355 0.4625 5.407 0.72C5.17925 0.9775 4.95675 1.371 4.762 1.88925C4.55375 2.4435 4.38575 3.11825 4.2745 3.875M8.56675 4.625C8.605 5.06825 8.625 5.5285 8.625 6C8.625 6.4715 8.605 6.93175 8.567 7.375H11.4558C11.5663 6.935 11.625 6.47425 11.625 6C11.625 5.52575 11.5663 5.065 11.4558 4.625H8.56675ZM11.21 3.875H8.48275C8.36525 3.028 8.17925 2.2625 7.94 1.6255C7.78725 1.219 7.60925 0.855 7.4065 0.55225C9.1365 0.99775 10.544 2.2455 11.2095 3.875M3.517 3.875H0.79025C1.4555 2.2455 2.86325 0.99775 4.59325 0.5525C4.39075 0.855 4.2125 1.219 4.05975 1.6255C3.8205 2.2625 3.63475 3.028 3.51725 3.875M3.5165 8.125H0.79025C1.45525 9.75375 2.86175 11.001 4.59025 11.447C4.38775 11.1445 4.21025 10.7805 4.05775 10.3745C3.819 9.737 3.6335 8.972 3.5165 8.125ZM7.24 10.111C7.4475 9.55675 7.615 8.882 7.726 8.125H4.274C4.38475 8.882 4.55225 9.55675 4.76 10.111C4.9545 10.6292 5.17675 11.0227 5.405 11.2797C5.633 11.5372 5.835 11.625 6 11.625C6.165 11.625 6.367 11.5372 6.595 11.2797C6.82325 11.0227 7.0455 10.6292 7.24 10.111ZM7.94225 10.3743C8.181 9.73725 8.3665 8.97175 8.4835 8.125H11.2098C10.5448 9.75375 9.13825 11.001 7.40975 11.447C7.61225 11.1445 7.78975 10.7803 7.94225 10.3743Z" fill="#475467"/>
</svg>
