<svg width="14" height="13" viewBox="0 0 14 13" fill="none" xmlns="http://www.w3.org/2000/svg">
<path d="M1.66659 1.66634H3.66659L4.99992 0.333008H8.99992L10.3333 1.66634H12.3333C12.6869 1.66634 13.026 1.80682 13.2761 2.05687C13.5261 2.30691 13.6666 2.64605 13.6666 2.99967V10.9997C13.6666 11.3533 13.5261 11.6924 13.2761 11.9425C13.026 12.1925 12.6869 12.333 12.3333 12.333H1.66659C1.31296 12.333 0.973825 12.1925 0.723776 11.9425C0.473728 11.6924 0.333252 11.3533 0.333252 10.9997V2.99967C0.333252 2.64605 0.473728 2.30691 0.723776 2.05687C0.973825 1.80682 1.31296 1.66634 1.66659 1.66634ZM6.99992 3.66634C6.11586 3.66634 5.26802 4.01753 4.6429 4.64265C4.01777 5.26777 3.66659 6.11562 3.66659 6.99967C3.66659 7.88373 4.01777 8.73158 4.6429 9.3567C5.26802 9.98182 6.11586 10.333 6.99992 10.333C7.88397 10.333 8.73182 9.98182 9.35694 9.3567C9.98206 8.73158 10.3333 7.88373 10.3333 6.99967C10.3333 6.11562 9.98206 5.26777 9.35694 4.64265C8.73182 4.01753 7.88397 3.66634 6.99992 3.66634ZM6.99992 4.99967C7.53035 4.99967 8.03906 5.21039 8.41413 5.58546C8.78921 5.96053 8.99992 6.46924 8.99992 6.99967C8.99992 7.53011 8.78921 8.03882 8.41413 8.41389C8.03906 8.78896 7.53035 8.99967 6.99992 8.99967C6.46949 8.99967 5.96078 8.78896 5.5857 8.41389C5.21063 8.03882 4.99992 7.53011 4.99992 6.99967C4.99992 6.46924 5.21063 5.96053 5.5857 5.58546C5.96078 5.21039 6.46949 4.99967 6.99992 4.99967Z" fill="#00A896"/>
</svg>
