<svg width="14" height="14" viewBox="0 0 14 14" fill="none" xmlns="http://www.w3.org/2000/svg">
<path d="M6.43933 10.2424C6.88127 9.80042 7.10224 9.27009 7.10224 8.65137C7.10224 8.03265 6.88127 7.50232 6.43933 7.06038C5.99738 6.61844 5.46705 6.39746 4.84834 6.39746C4.22962 6.39746 3.69929 6.61844 3.25735 7.06038C2.8154 7.50232 2.59443 8.03265 2.59443 8.65137C2.59443 9.27009 2.8154 9.80042 3.25735 10.2424C3.69929 10.6843 4.22962 10.9053 4.84834 10.9053C5.46705 10.9053 5.99738 10.6843 6.43933 10.2424ZM8.03032 11.8333C7.14643 12.7172 6.08577 13.1592 4.84834 13.1592C3.6109 13.1592 2.55024 12.7172 1.66636 11.8333C0.782472 10.9495 0.34053 9.8888 0.34053 8.65137C0.34053 7.41393 0.782472 6.35327 1.66636 5.46939C2.3823 4.75344 3.21103 4.3313 4.15254 4.20296C5.09406 4.07462 5.97122 4.20508 6.78404 4.59434L11.2256 0.152828L13.3204 0.152828L13.5855 4.1303L11.2123 4.40873V6.53005H9.09098L8.90536 6.71566C9.32079 7.57303 9.44895 8.47017 9.28985 9.40709C9.13075 10.344 8.71091 11.1528 8.03032 11.8333Z" fill="#00A896"/>
</svg>
