<svg width="12" height="17" viewBox="0 0 12 17" fill="none" xmlns="http://www.w3.org/2000/svg">
<path d="M1.5 16.5C1.0875 16.5 0.7345 16.3533 0.441 16.0597C0.1475 15.7662 0.0005 15.413 0 15V7.5C0 7.0875 0.147 6.7345 0.441 6.441C0.735 6.1475 1.088 6.0005 1.5 6H2.25V4.5C2.25 3.4625 2.61575 2.57825 3.34725 1.84725C4.07875 1.11625 4.963 0.750501 6 0.750001C7.037 0.749501 7.9215 1.11525 8.6535 1.84725C9.3855 2.57925 9.751 3.4635 9.75 4.5V6H10.5C10.9125 6 11.2657 6.147 11.5597 6.441C11.8538 6.735 12.0005 7.088 12 7.5V15C12 15.4125 11.8533 15.7657 11.5597 16.0597C11.2662 16.3538 10.913 16.5005 10.5 16.5H1.5ZM6 12.75C6.4125 12.75 6.76575 12.6033 7.05975 12.3098C7.35375 12.0163 7.5005 11.663 7.5 11.25C7.4995 10.837 7.35275 10.484 7.05975 10.191C6.76675 9.898 6.4135 9.751 6 9.75C5.5865 9.749 5.2335 9.896 4.941 10.191C4.6485 10.486 4.5015 10.839 4.5 11.25C4.4985 11.661 4.6455 12.0143 4.941 12.3098C5.2365 12.6053 5.5895 12.752 6 12.75ZM3.75 6H8.25V4.5C8.25 3.875 8.03125 3.34375 7.59375 2.90625C7.15625 2.46875 6.625 2.25 6 2.25C5.375 2.25 4.84375 2.46875 4.40625 2.90625C3.96875 3.34375 3.75 3.875 3.75 4.5V6Z" fill="#00A896"/>
</svg>
