<svg width="12" height="15" viewBox="0 0 12 15" fill="none" xmlns="http://www.w3.org/2000/svg">
<path d="M3.75 2.24988C3.55109 2.24988 3.36032 2.3289 3.21967 2.46955C3.07902 2.61021 3 2.80097 3 2.99988C3 3.1988 3.07902 3.38956 3.21967 3.53021C3.36032 3.67087 3.55109 3.74989 3.75 3.74989C3.94891 3.74989 4.13968 3.67087 4.28033 3.53021C4.42098 3.38956 4.5 3.1988 4.5 2.99988C4.5 2.80097 4.42098 2.61021 4.28033 2.46955C4.13968 2.3289 3.94891 2.24988 3.75 2.24988ZM1.6275 2.24988C1.78245 1.81074 2.0698 1.43046 2.44995 1.16148C2.8301 0.892494 3.28432 0.748047 3.75 0.748047C4.21569 0.748047 4.66991 0.892494 5.05005 1.16148C5.4302 1.43046 5.71755 1.81074 5.8725 2.24988H11.25C11.4489 2.24988 11.6397 2.3289 11.7803 2.46955C11.921 2.61021 12 2.80097 12 2.99988C12 3.1988 11.921 3.38956 11.7803 3.53021C11.6397 3.67087 11.4489 3.74989 11.25 3.74989H5.8725C5.71755 4.18903 5.4302 4.56931 5.05005 4.83829C4.66991 5.10728 4.21569 5.25172 3.75 5.25172C3.28432 5.25172 2.8301 5.10728 2.44995 4.83829C2.0698 4.56931 1.78245 4.18903 1.6275 3.74989H0.75C0.551088 3.74989 0.360322 3.67087 0.21967 3.53021C0.0790178 3.38956 0 3.1988 0 2.99988C0 2.80097 0.0790178 2.61021 0.21967 2.46955C0.360322 2.3289 0.551088 2.24988 0.75 2.24988H1.6275ZM8.25 6.74989C8.05109 6.74989 7.86032 6.8289 7.71967 6.96955C7.57902 7.11021 7.5 7.30097 7.5 7.49989C7.5 7.6988 7.57902 7.88956 7.71967 8.03021C7.86032 8.17087 8.05109 8.24989 8.25 8.24989C8.44891 8.24989 8.63968 8.17087 8.78033 8.03021C8.92098 7.88956 9 7.6988 9 7.49989C9 7.30097 8.92098 7.11021 8.78033 6.96955C8.63968 6.8289 8.44891 6.74989 8.25 6.74989ZM6.1275 6.74989C6.28245 6.31074 6.5698 5.93046 6.94995 5.66148C7.3301 5.39249 7.78432 5.24805 8.25 5.24805C8.71569 5.24805 9.16991 5.39249 9.55005 5.66148C9.9302 5.93046 10.2175 6.31074 10.3725 6.74989H11.25C11.4489 6.74989 11.6397 6.8289 11.7803 6.96955C11.921 7.11021 12 7.30097 12 7.49989C12 7.6988 11.921 7.88956 11.7803 8.03021C11.6397 8.17087 11.4489 8.24989 11.25 8.24989H10.3725C10.2175 8.68904 9.9302 9.06931 9.55005 9.33829C9.16991 9.60728 8.71569 9.75172 8.25 9.75172C7.78432 9.75172 7.3301 9.60728 6.94995 9.33829C6.5698 9.06931 6.28245 8.68904 6.1275 8.24989H0.75C0.551088 8.24989 0.360322 8.17087 0.21967 8.03021C0.0790178 7.88956 0 7.6988 0 7.49989C0 7.30097 0.0790178 7.11021 0.21967 6.96955C0.360322 6.8289 0.551088 6.74989 0.75 6.74989H6.1275ZM3.75 11.2499C3.55109 11.2499 3.36032 11.3289 3.21967 11.4696C3.07902 11.6102 3 11.801 3 11.9999C3 12.1988 3.07902 12.3896 3.21967 12.5302C3.36032 12.6709 3.55109 12.7499 3.75 12.7499C3.94891 12.7499 4.13968 12.6709 4.28033 12.5302C4.42098 12.3896 4.5 12.1988 4.5 11.9999C4.5 11.801 4.42098 11.6102 4.28033 11.4696C4.13968 11.3289 3.94891 11.2499 3.75 11.2499ZM1.6275 11.2499C1.78245 10.8107 2.0698 10.4305 2.44995 10.1615C2.8301 9.89249 3.28432 9.74805 3.75 9.74805C4.21569 9.74805 4.66991 9.89249 5.05005 10.1615C5.4302 10.4305 5.71755 10.8107 5.8725 11.2499H11.25C11.4489 11.2499 11.6397 11.3289 11.7803 11.4696C11.921 11.6102 12 11.801 12 11.9999C12 12.1988 11.921 12.3896 11.7803 12.5302C11.6397 12.6709 11.4489 12.7499 11.25 12.7499H5.8725C5.71755 13.189 5.4302 13.5693 5.05005 13.8383C4.66991 14.1073 4.21569 14.2517 3.75 14.2517C3.28432 14.2517 2.8301 14.1073 2.44995 13.8383C2.0698 13.5693 1.78245 13.189 1.6275 12.7499H0.75C0.551088 12.7499 0.360322 12.6709 0.21967 12.5302C0.0790178 12.3896 0 12.1988 0 11.9999C0 11.801 0.0790178 11.6102 0.21967 11.4696C0.360322 11.3289 0.551088 11.2499 0.75 11.2499H1.6275Z" fill="#00A896"/>
</svg>
