<svg width="14" height="16" viewBox="0 0 14 16" fill="none" xmlns="http://www.w3.org/2000/svg">
<path d="M2.83338 15.5C2.37504 15.5 1.98282 15.3369 1.65671 15.0108C1.3306 14.6847 1.16727 14.2922 1.16671 13.8333V3C0.930599 3 0.732821 2.92 0.573377 2.76C0.413933 2.6 0.333932 2.40222 0.333377 2.16667C0.332821 1.93111 0.412821 1.73333 0.573377 1.57333C0.733933 1.41333 0.93171 1.33333 1.16671 1.33333H4.50004C4.50004 1.09722 4.58004 0.899445 4.74004 0.74C4.90004 0.580556 5.09782 0.500556 5.33338 0.5H8.66671C8.90282 0.5 9.10088 0.58 9.26088 0.74C9.42088 0.9 9.5006 1.09778 9.50004 1.33333H12.8334C13.0695 1.33333 13.2675 1.41333 13.4275 1.57333C13.5875 1.73333 13.6673 1.93111 13.6667 2.16667C13.6662 2.40222 13.5862 2.60028 13.4267 2.76083C13.2673 2.92139 13.0695 3.00111 12.8334 3V13.8333C12.8334 14.2917 12.6703 14.6842 12.3442 15.0108C12.0181 15.3375 11.6256 15.5006 11.1667 15.5H2.83338ZM11.1667 3H2.83338V13.8333H11.1667V3ZM5.33338 12.1667C5.56949 12.1667 5.76754 12.0867 5.92754 11.9267C6.08754 11.7667 6.16727 11.5689 6.16671 11.3333V5.5C6.16671 5.26389 6.08671 5.06611 5.92671 4.90667C5.76671 4.74722 5.56893 4.66722 5.33338 4.66667C5.09782 4.66611 4.90004 4.74611 4.74004 4.90667C4.58004 5.06722 4.50004 5.265 4.50004 5.5V11.3333C4.50004 11.5694 4.58004 11.7675 4.74004 11.9275C4.90004 12.0875 5.09782 12.1672 5.33338 12.1667ZM8.66671 12.1667C8.90282 12.1667 9.10088 12.0867 9.26088 11.9267C9.42088 11.7667 9.5006 11.5689 9.50004 11.3333V5.5C9.50004 5.26389 9.42004 5.06611 9.26004 4.90667C9.10004 4.74722 8.90227 4.66722 8.66671 4.66667C8.43116 4.66611 8.23338 4.74611 8.07338 4.90667C7.91338 5.06722 7.83338 5.265 7.83338 5.5V11.3333C7.83338 11.5694 7.91338 11.7675 8.07338 11.9275C8.23338 12.0875 8.43116 12.1672 8.66671 12.1667Z" fill="#E43636"/>
</svg>
