<svg width="18" height="18" viewBox="0 0 18 18" fill="none" xmlns="http://www.w3.org/2000/svg">
<g clip-path="url(#clip0_205_1511)">
<path d="M13.1882 0.510362C13.5844 0.430148 13.8757 0.83122 13.6623 1.1755L9.52674 5.29884C9.04138 5.8735 8.83539 6.63329 8.95705 7.37639C9.00533 7.67222 9.22645 7.99757 9.05973 8.26645C6.96152 10.1794 4.7143 11.9329 2.60708 13.834C2.27879 14.1304 1.9286 14.3868 1.81692 14.8431C1.49731 16.1483 2.97014 17.1507 4.0664 16.3476C6.14142 14.0627 8.10026 11.664 10.1727 9.37598C10.4502 9.19534 10.8322 9.4517 11.157 9.4825C12.1287 9.57523 12.8136 9.22229 13.5194 8.60528C14.8123 7.4749 15.9672 6.0381 17.2549 4.88526C17.6476 4.5413 18.1523 4.909 17.9562 5.39157L13.9378 9.4071C13.7389 9.50111 13.5902 9.66122 13.4068 9.77609C12.5171 10.3344 11.5525 10.4948 10.5255 10.2388L4.90935 16.7384C2.56267 19.0354 -0.660114 15.6083 1.77025 13.4165L8.14532 7.93212C8.21356 7.81469 8.10026 7.5349 8.08353 7.38089C7.97956 6.43083 8.25476 5.44483 8.88335 4.72098C10.1186 3.29829 11.7341 2.02674 13.0032 0.613999C13.054 0.57325 13.1245 0.523517 13.1882 0.510362Z" fill="#00A896"/>
<path d="M2.15034 0.768818C2.90382 0.726464 3.58101 1.00946 4.13718 1.49652C5.33482 2.54476 6.40726 3.87344 7.59717 4.94574C7.96795 5.34329 7.52218 5.9311 7.0513 5.61826L3.54142 2.12252C2.88772 1.50872 1.80402 1.44743 1.12651 2.05834C0.600267 2.53321 1.03832 3.56413 1.28197 4.11793C2.18349 6.16693 3.75739 7.97496 5.10308 9.74192C5.21316 10.108 4.88551 10.4353 4.51987 10.2912C4.4423 10.2607 4.35572 10.159 4.2965 10.0968C3.85234 9.63122 3.34251 8.91924 2.94791 8.39304C1.94113 7.04896 -0.0408777 4.25622 0.000642221 2.57268C0.0276784 1.4824 1.16191 0.824326 2.15034 0.768818Z" fill="#00A896"/>
<path d="M12.8986 10.5203C13.0363 10.4924 13.1869 10.5338 13.2941 10.6246C14.2813 11.746 15.6067 12.7528 16.5604 13.8819C18.2221 15.8485 15.3917 18.6794 13.326 16.3362C12.1377 14.9879 11.053 13.5293 9.88531 12.1618C9.70539 11.7867 9.96868 11.4758 10.3784 11.5423C10.4962 11.5612 10.605 11.6956 10.6851 11.7819C11.9291 13.1231 13.0048 14.7335 14.2584 16.0808C15.3853 16.9603 16.8056 15.5677 15.9009 14.4434L12.6343 11.1861C12.4679 10.949 12.616 10.5781 12.8982 10.5206L12.8986 10.5203Z" fill="#00A896"/>
<path d="M16.086 3.33335C16.4934 3.27399 16.731 3.73314 16.4799 4.04822L12.8912 7.62579C12.4718 7.97263 11.9407 7.47113 12.2639 7.03252L15.8677 3.43795C15.9234 3.3879 16.0132 3.34426 16.0863 3.33335H16.086Z" fill="#00A896"/>
<path d="M14.0186 3.66571C13.1474 4.52721 12.2603 5.38872 11.3929 6.26145C10.8924 6.49728 10.5226 5.93161 10.895 5.54048L14.4863 1.99757C14.8133 1.76302 15.2353 2.07779 15.1461 2.46282C15.0936 2.68934 14.2359 3.45074 14.0186 3.66539V3.66571Z" fill="#00A896"/>
</g>
<defs>
<clipPath id="clip0_205_1511">
<rect width="18" height="17" fill="white" transform="translate(0 0.5)"/>
</clipPath>
</defs>
</svg>
