<svg width="13" height="13" viewBox="0 0 13 13" fill="none" xmlns="http://www.w3.org/2000/svg">
<path d="M6.28872 0C3.83338 0 1.68738 1.354 0.67605 3.392C0.231846 4.24956 0 5.20122 0 6.167C0 7.13278 0.231846 8.08444 0.67605 8.942C1.68738 10.9793 3.83338 12.3333 6.28872 12.3333C7.98205 12.3333 9.43538 11.782 10.4514 10.8507C12.1074 9.402 12.5747 7.118 12.2234 5.05867C12.2168 5.01993 12.1967 4.98477 12.1667 4.9594C12.1367 4.93402 12.0987 4.92007 12.0594 4.92H6.28872C6.24451 4.92 6.20212 4.93756 6.17087 4.96882C6.13961 5.00007 6.12205 5.04246 6.12205 5.08667V7.30667C6.12205 7.39867 6.19672 7.47333 6.28872 7.47333H9.46738C9.35672 7.96667 9.00938 8.638 8.34405 9.08867L8.33872 9.092C7.88205 9.42667 7.18205 9.66 6.28872 9.66C4.33138 9.66 2.77205 8.02333 2.77205 6.10667C2.77205 4.25133 4.42005 2.61333 6.28872 2.61333C7.40205 2.61333 8.10205 3.06867 8.57472 3.47333C8.60633 3.50036 8.6469 3.5146 8.68847 3.51324C8.73004 3.51189 8.7696 3.49504 8.79938 3.466L10.5181 1.786C10.5346 1.76989 10.5476 1.75052 10.5562 1.72913C10.5648 1.70774 10.5689 1.68478 10.5683 1.66172C10.5676 1.63866 10.5621 1.61599 10.5522 1.59516C10.5423 1.57432 10.5282 1.55576 10.5107 1.54067C9.43805 0.615333 7.98805 0 6.28872 0Z" fill="black"/>
</svg>
