<svg width="12" height="16" viewBox="0 0 12 16" fill="none" xmlns="http://www.w3.org/2000/svg">
<path d="M6 2.00002C4.76232 2.00002 3.57534 2.49168 2.70017 3.36685C1.825 4.24202 1.33333 5.42901 1.33333 6.66668C1.33333 8.57468 2.52133 10.4153 3.82533 11.8413C4.49209 12.5678 5.21962 13.236 6 13.8387C6.11644 13.7493 6.25311 13.6405 6.41 13.512C7.03654 12.9975 7.62621 12.4397 8.17467 11.8427C9.47867 10.4153 10.6667 8.57535 10.6667 6.66668C10.6667 5.42901 10.175 4.24202 9.29983 3.36685C8.42466 2.49168 7.23768 2.00002 6 2.00002ZM6 15.476L5.622 15.216L5.62 15.2147L5.616 15.2113L5.60267 15.202L5.55267 15.1667L5.37267 15.0353C4.46057 14.3499 3.61325 13.5822 2.84133 12.742C1.47867 11.25 0 9.09068 0 6.66602C2.37122e-08 5.07472 0.632141 3.54859 1.75736 2.42338C2.88258 1.29816 4.4087 0.666016 6 0.666016C7.5913 0.666016 9.11742 1.29816 10.2426 2.42338C11.3679 3.54859 12 5.07472 12 6.66602C12 9.09068 10.5213 11.2507 9.15867 12.7407C8.38696 13.5809 7.53986 14.3485 6.628 15.034C6.55204 15.0908 6.47536 15.1465 6.398 15.2014L6.384 15.2107L6.38 15.214L6.37867 15.2147L6 15.476ZM6 5.33335C5.64638 5.33335 5.30724 5.47383 5.05719 5.72387C4.80714 5.97392 4.66667 6.31306 4.66667 6.66668C4.66667 7.0203 4.80714 7.35944 5.05719 7.60949C5.30724 7.85954 5.64638 8.00002 6 8.00002C6.35362 8.00002 6.69276 7.85954 6.94281 7.60949C7.19286 7.35944 7.33333 7.0203 7.33333 6.66668C7.33333 6.31306 7.19286 5.97392 6.94281 5.72387C6.69276 5.47383 6.35362 5.33335 6 5.33335ZM3.33333 6.66668C3.33333 5.95944 3.61428 5.28116 4.11438 4.78106C4.61448 4.28097 5.29276 4.00002 6 4.00002C6.70724 4.00002 7.38552 4.28097 7.88562 4.78106C8.38572 5.28116 8.66667 5.95944 8.66667 6.66668C8.66667 7.37393 8.38572 8.0522 7.88562 8.5523C7.38552 9.0524 6.70724 9.33335 6 9.33335C5.29276 9.33335 4.61448 9.0524 4.11438 8.5523C3.61428 8.0522 3.33333 7.37393 3.33333 6.66668Z" fill="#00A896"/>
</svg>
