<svg width="17" height="16" viewBox="0 0 17 16" fill="none" xmlns="http://www.w3.org/2000/svg">
<path d="M10.1667 4.66634V2.99967C10.1667 2.55765 9.99107 2.13372 9.67851 1.82116C9.36595 1.5086 8.94203 1.33301 8.5 1.33301H2.66667C2.22464 1.33301 1.80072 1.5086 1.48816 1.82116C1.17559 2.13372 1 2.55765 1 2.99967V12.9997C1 13.4417 1.17559 13.8656 1.48816 14.1782C1.80072 14.4907 2.22464 14.6663 2.66667 14.6663H8.5C8.94203 14.6663 9.36595 14.4907 9.67851 14.1782C9.99107 13.8656 10.1667 13.4417 10.1667 12.9997V11.333" stroke="#E43636" stroke-width="1.5" stroke-linecap="round" stroke-linejoin="round"/>
<path d="M6 8H16M16 8L13.5 5.5M16 8L13.5 10.5" stroke="#E43636" stroke-width="1.5" stroke-linecap="round" stroke-linejoin="round"/>
</svg>
