<svg width="13" height="16" viewBox="0 0 13 16" fill="none" xmlns="http://www.w3.org/2000/svg">
<path fill-rule="evenodd" clip-rule="evenodd" d="M2.24 0.932973C5.0705 0.604373 7.92951 0.604373 10.76 0.932973C11.8828 1.06347 12.6875 2.02797 12.6875 3.13047V14.7502C12.6874 14.846 12.6628 14.9402 12.6161 15.0238C12.5693 15.1074 12.502 15.1777 12.4205 15.2281C12.339 15.2784 12.246 15.3071 12.1503 15.3114C12.0547 15.3157 11.9595 15.2955 11.8738 15.2527L6.5 12.567L1.12625 15.2542C1.04044 15.2971 0.945091 15.3173 0.849277 15.3129C0.753462 15.3085 0.660361 15.2797 0.578819 15.2292C0.497277 15.1787 0.430004 15.1081 0.383392 15.0243C0.336779 14.9405 0.312376 14.8461 0.3125 14.7502V3.13047C0.3125 2.02797 1.11725 1.06347 2.24 0.932973Z" fill="#00A896"/>
</svg>
