<svg width="180" height="176" viewBox="0 0 180 176" fill="none" xmlns="http://www.w3.org/2000/svg">
<path d="M65.5927 124.035C65.8324 124.035 66.0721 124.035 66.3117 124.034C70.0937 124.033 73.6678 124.728 77.1079 126.345C77.251 126.411 77.3961 126.473 77.5413 126.535C77.859 126.672 78.167 126.824 78.4758 126.98C78.5301 127.007 78.5844 127.035 78.6403 127.063C78.7492 127.118 78.8581 127.173 78.967 127.228C79.2401 127.365 79.5138 127.502 79.7874 127.638C79.7874 127.692 79.7874 127.746 79.7874 127.802C79.8428 127.821 79.8982 127.84 79.9552 127.86C80.2517 127.99 80.5109 128.161 80.7775 128.343C80.8584 128.397 80.8584 128.397 80.941 128.453C83.3179 130.065 85.5423 131.982 87.2782 134.281C87.3793 134.413 87.4824 134.544 87.5865 134.674C88.4516 135.764 89.175 136.947 89.831 138.172C89.858 138.222 89.885 138.272 89.9128 138.323C90.4645 139.35 90.8868 140.431 91.3008 141.52C91.3228 141.577 91.3448 141.635 91.3675 141.694C91.4974 142.04 91.6082 142.39 91.7091 142.745C91.7311 142.822 91.7531 142.899 91.7757 142.979C93.0477 147.542 93.0157 152.5 91.6274 157.034C91.6058 157.108 91.5842 157.182 91.5619 157.258C91.4596 157.607 91.3543 157.946 91.209 158.28C91.0736 158.595 90.9419 158.91 90.816 159.229C89.9805 161.337 88.9393 163.322 87.5447 165.118C87.4691 165.216 87.4691 165.216 87.3919 165.315C87.2274 165.524 87.0602 165.73 86.8914 165.935C86.857 165.977 86.8225 166.019 86.7871 166.062C86.3495 166.593 85.9034 167.1 85.4095 167.58C85.2482 167.735 85.2482 167.735 85.0899 167.946C84.9015 168.177 84.6898 168.359 84.4635 168.552C84.2656 168.722 84.0731 168.897 83.8804 169.073C82.2285 170.558 80.3351 171.716 78.3703 172.736C78.3189 172.763 78.2675 172.79 78.2145 172.818C78.0727 172.875 78.0727 172.875 77.8277 172.875C77.8277 172.929 77.8277 172.983 77.8277 173.039C77.6833 173.094 77.5386 173.148 77.3939 173.202C77.3134 173.232 77.2329 173.263 77.1499 173.294C76.9295 173.365 76.9295 173.365 76.6845 173.365C76.6576 173.446 76.6306 173.527 76.6029 173.61C76.3923 173.705 76.3923 173.705 76.1101 173.796C76.0594 173.812 76.0087 173.829 75.9564 173.846C75.7895 173.899 75.6221 173.951 75.4546 174.003C75.3684 174.03 75.3684 174.03 75.2804 174.058C73.7732 174.531 72.277 174.91 70.7135 175.141C70.658 175.15 70.6025 175.158 70.5453 175.167C68.9801 175.396 67.4225 175.516 65.8402 175.51C65.5934 175.509 65.3466 175.51 65.0998 175.511C63.8612 175.512 62.6818 175.422 61.4711 175.143C61.1932 175.085 60.9183 175.043 60.6373 175.005C59.6131 174.862 58.6429 174.576 57.6588 174.264C57.5408 174.226 57.5408 174.226 57.4203 174.188C56.1088 173.769 54.8811 173.26 53.6577 172.631C53.5963 172.599 53.5349 172.568 53.4716 172.536C52.0218 171.796 50.6705 170.985 49.3953 169.971C49.2691 169.871 49.1419 169.772 49.0145 169.673C47.5832 168.557 46.1735 167.224 45.0839 165.771C44.9904 165.651 44.8968 165.53 44.8032 165.409C43.1511 163.261 41.8684 160.957 40.9195 158.423C40.8834 158.328 40.8473 158.233 40.8101 158.135C40.7048 157.852 40.6066 157.567 40.5112 157.279C40.4924 157.223 40.4736 157.167 40.4542 157.109C39.2983 153.596 39.0939 149.736 39.613 146.093C39.6235 146.012 39.634 145.931 39.6448 145.848C40.1307 142.141 41.6485 138.534 43.7774 135.477C43.8283 135.404 43.8791 135.331 43.9315 135.255C44.33 134.693 44.767 134.171 45.2162 133.65C45.3213 133.527 45.4236 133.401 45.5257 133.275C46.0132 132.677 46.5405 132.125 47.0845 131.578C47.1905 131.471 47.1905 131.471 47.2988 131.362C47.7873 130.875 48.2996 130.434 48.8401 130.006C48.9361 129.93 48.9361 129.93 49.0341 129.851C49.7357 129.292 50.4369 128.753 51.2081 128.292C51.283 128.244 51.3579 128.196 51.4352 128.147C52.6595 127.373 53.952 126.645 55.2908 126.087C55.4212 126.032 55.4212 126.032 55.5543 125.976C57.8092 125.053 60.0862 124.518 62.5012 124.24C62.7289 124.215 62.7289 124.215 62.9664 124.127C63.8353 124.012 64.7183 124.033 65.5927 124.035Z" fill="#FEFDF5"/>
<path d="M89.9833 0.000575107C90.296 0.00101446 90.6087 0.000575487 90.9215 5.67872e-05C91.8321 -0.000247408 92.7418 0.00452801 93.6517 0.04535C93.7516 0.0496463 93.7516 0.0496463 93.8536 0.0540293C94.3943 0.0821583 94.9167 0.170798 95.4471 0.275962C95.8859 0.359713 96.3292 0.401531 96.7739 0.441167C97.1041 0.473067 97.3652 0.539753 97.67 0.664463C97.9185 0.718999 98.1695 0.759297 98.4202 0.802257C99.857 1.06369 101.255 1.47938 102.651 1.9046C102.78 1.94388 102.78 1.94388 102.912 1.98395C103.362 2.12337 103.8 2.27724 104.235 2.45632C104.472 2.5527 104.712 2.64309 104.951 2.73296C105.9 3.08983 106.819 3.45375 107.714 3.93068C107.931 4.04076 108.149 4.14895 108.367 4.2573C108.478 4.31278 108.588 4.36828 108.699 4.4238C108.901 4.52511 109.104 4.62481 109.308 4.72363C110.398 5.25523 111.437 5.87849 112.45 6.54365C112.503 6.57879 112.557 6.61393 112.612 6.65014C113.442 7.19588 114.261 7.75358 115.063 8.34006C115.188 8.4318 115.188 8.4318 115.316 8.52538C115.82 8.89786 116.306 9.28733 116.784 9.69152C117.004 9.87587 117.227 10.0548 117.451 10.2334C118.011 10.6905 118.53 11.1903 119.054 11.6877C119.229 11.8528 119.405 12.0163 119.581 12.1795C119.639 12.2331 119.697 12.2867 119.756 12.3419C119.866 12.4433 119.975 12.5445 120.085 12.6453C120.397 12.9358 120.682 13.2393 120.96 13.5629C121.158 13.7895 121.366 14.0053 121.574 14.2222C122.156 14.8286 122.693 15.4503 123.201 16.1196C123.313 16.265 123.429 16.4074 123.545 16.5493C124.199 17.3454 124.781 18.1794 125.351 19.0369C125.399 19.1089 125.448 19.1809 125.498 19.2551C126.958 21.4334 128.213 23.6969 129.26 26.1001C129.283 26.1508 129.305 26.2015 129.328 26.2538C129.603 26.8869 129.853 27.5228 130.078 28.1755C130.164 28.4128 130.259 28.6413 130.363 28.8713C132.178 33.1849 132.798 38.3394 132.802 42.9874C132.802 43.0554 132.802 43.1233 132.802 43.1934C132.801 44.6765 132.699 46.1426 132.537 47.6163C132.526 47.7138 132.516 47.8114 132.505 47.912C132.364 49.1646 132.119 50.3916 131.853 51.6225C131.831 51.727 131.831 51.727 131.808 51.8336C131.602 52.786 131.345 53.711 131.04 54.6361C130.959 54.8827 130.883 55.1306 130.807 55.3786C130.781 55.462 130.755 55.5454 130.729 55.6313C130.684 55.7789 130.641 55.9269 130.599 56.0753C130.469 56.5324 130.301 56.9616 130.113 57.3983C130 57.6731 129.903 57.9505 129.806 58.2315C129.65 58.6759 129.465 59.0862 129.247 59.5035C129.109 59.7798 128.984 60.0592 128.861 60.3422C128.428 61.3316 127.924 62.2729 127.393 63.2124C127.354 63.2801 127.316 63.3479 127.277 63.4176C126.42 64.9345 125.492 66.3866 124.453 67.7851C124.418 67.8319 124.384 67.8788 124.348 67.927C124.14 68.2079 123.93 68.4867 123.718 68.765C123.655 68.8493 123.591 68.9336 123.526 69.0205C123.017 69.6935 122.476 70.3343 121.922 70.9697C121.868 71.0319 121.814 71.0941 121.758 71.1582C121.623 71.3139 121.487 71.4686 121.35 71.6229C121.292 71.6882 121.235 71.7535 121.175 71.8207C120.839 72.1977 120.498 72.5642 120.135 72.9147C119.995 73.059 119.867 73.205 119.737 73.3584C119.266 73.8973 118.752 74.3946 118.245 74.8992C118.129 75.0152 118.013 75.1311 117.897 75.2471C117.648 75.4958 117.399 75.7443 117.15 75.9928C116.755 76.3858 116.362 76.7792 115.968 77.1726C115.132 78.0074 114.296 78.8418 113.46 79.6762C112.557 80.5777 111.654 81.4792 110.751 82.3811C110.359 82.772 109.968 83.1628 109.576 83.5533C109.333 83.7963 109.089 84.0395 108.846 84.2827C108.733 84.3953 108.62 84.5078 108.507 84.6203C108.353 84.774 108.199 84.928 108.045 85.082C107.978 85.1483 107.978 85.1483 107.91 85.2159C107.637 85.4903 107.388 85.7763 107.142 86.0759C107.008 86.2138 106.871 86.3497 106.734 86.4842C106.637 86.5812 106.539 86.6783 106.442 86.7755C104.486 88.7316 102.53 90.6876 100.574 92.6437C100.498 92.7196 100.498 92.7196 100.421 92.7969C100.301 92.9165 100.181 93.0355 100.061 93.1544C99.8768 93.3412 99.702 93.5334 99.5285 93.73C99.1627 94.1385 98.7812 94.5276 98.3915 94.9132C98.3232 94.9812 98.2549 95.0492 98.1846 95.1192C97.969 95.3338 97.7532 95.5481 97.5373 95.7623C97.2519 96.0455 96.9668 96.329 96.6818 96.6127C96.6174 96.6764 96.553 96.7401 96.4867 96.8058C96.1483 97.1427 95.8251 97.4866 95.5136 97.8485C95.2083 98.1987 94.8759 98.5238 94.5481 98.8528C94.4196 98.9821 94.292 99.1122 94.1644 99.2424C93.5229 99.8907 92.8562 100.429 92.0358 100.835C91.9019 100.903 91.9019 100.903 91.7653 100.972C91.1017 101.27 90.4857 101.387 89.7596 101.376C89.6806 101.375 89.6016 101.374 89.5202 101.373C87.2919 101.324 85.9376 99.9294 84.4589 98.4398C84.2471 98.2265 84.0346 98.0138 83.8221 97.8013C83.6861 97.6649 83.5501 97.5284 83.4141 97.3919C83.3197 97.2973 83.3197 97.2973 83.2234 97.2009C82.9044 96.8791 82.6045 96.5527 82.3188 96.2012C82.1792 96.0706 82.1792 96.0706 82.0432 95.9664C81.8329 95.7932 81.6539 95.6118 81.4778 95.4041C81.2033 95.0865 80.9156 94.7874 80.6176 94.492C80.5651 94.4396 80.5125 94.3872 80.4584 94.3332C80.3455 94.2206 80.2325 94.1081 80.1195 93.9957C79.94 93.8173 79.7608 93.6387 79.5817 93.46C79.2014 93.0806 78.8208 92.7016 78.4402 92.3226C77.9987 91.883 77.5573 91.4434 77.1163 91.0033C76.9407 90.8282 76.7648 90.6533 76.5889 90.4785C76.4802 90.37 76.3715 90.2616 76.2627 90.1531C76.2145 90.1053 76.1663 90.0576 76.1167 90.0083C75.8204 89.7121 75.5424 89.4044 75.2683 89.0875C75.0828 88.8767 74.8867 88.6783 74.6875 88.4803C74.6469 88.4398 74.6064 88.3994 74.5646 88.3577C74.4777 88.2712 74.3908 88.1848 74.3038 88.0984C74.1655 87.9612 74.0275 87.8237 73.8895 87.6861C73.5966 87.3941 73.3034 87.1025 73.0101 86.8108C72.6698 86.4725 72.3296 86.134 71.9898 85.7951C71.8549 85.6607 71.7197 85.5266 71.5845 85.3924C71.5005 85.3088 71.4166 85.2251 71.3326 85.1414C71.2602 85.0694 71.1878 84.9973 71.1131 84.9231C70.9431 84.7461 70.7821 84.5681 70.6223 84.3823C70.2771 83.9845 69.9059 83.6148 69.5326 83.2437C69.4553 83.1666 69.3782 83.0895 69.301 83.0125C69.136 82.8477 68.9709 82.6831 68.8056 82.5186C68.5438 82.2579 68.2824 81.9969 68.0209 81.7358C67.4659 81.1817 66.9106 80.628 66.3552 80.0743C65.7554 79.4763 65.1556 78.8782 64.5563 78.2798C64.297 78.0208 64.0374 77.7621 63.7777 77.5035C63.6156 77.342 63.4537 77.1804 63.2918 77.0187C63.1821 76.9092 63.0722 76.7999 62.9623 76.6907C62.6092 76.3376 62.2697 75.9787 61.9442 75.6001C61.797 75.4304 61.6421 75.2703 61.4826 75.1121C61.4224 75.0521 61.3622 74.9922 61.3001 74.9304C61.237 74.8679 61.1739 74.8055 61.1088 74.7411C61.0088 74.6416 61.0088 74.6416 60.9067 74.5399C60.6953 74.3295 60.4836 74.1194 60.2718 73.9093C59.9926 73.6322 59.7137 73.3549 59.4349 73.0774C59.3717 73.015 59.3086 72.9525 59.2436 72.8882C58.9067 72.5528 58.5836 72.2108 58.2743 71.8498C58.0663 71.6091 57.8465 71.3797 57.6283 71.1483C57.1809 70.6697 56.7602 70.1762 56.3524 69.6632C56.2716 69.5634 56.1906 69.4637 56.1097 69.364C55.6505 68.7974 55.2097 68.2263 54.8009 67.6218C54.7326 67.5227 54.6641 67.4236 54.5955 67.3245C54.4011 67.0436 54.208 66.7617 54.0153 66.4794C53.9123 66.3293 53.8082 66.18 53.7037 66.0308C53.0448 65.0794 52.495 64.0651 51.943 63.0491C51.9011 62.9721 51.8593 62.8952 51.8161 62.8158C50.477 60.3401 49.3958 57.7 48.5969 55.0002C48.5401 54.8096 48.4819 54.6195 48.4225 54.4298C48.1265 53.4739 47.9194 52.507 47.7275 51.5255C47.7115 51.444 47.6954 51.3626 47.6789 51.2786C47.253 49.1138 47.253 49.1138 47.1491 48.0238C47.1318 47.8464 47.1129 47.6691 47.0929 47.492C46.6609 43.6434 46.6673 39.6362 47.4127 35.8276C47.4571 35.585 47.4929 35.3418 47.5285 35.0978C47.6115 34.5484 47.7283 34.0102 47.8551 33.4695C47.8757 33.3792 47.8963 33.2889 47.9175 33.1958C48.0214 32.7481 48.1381 32.3139 48.2899 31.8803C48.3579 31.6696 48.409 31.4579 48.4599 31.2425C48.6164 30.601 48.8292 29.9797 49.0442 29.3561C49.0658 29.2934 49.0874 29.2307 49.1096 29.1661C50.257 25.8454 51.8303 22.7174 53.7394 19.7718C53.7972 19.6822 53.855 19.5927 53.9145 19.5004C54.4911 18.6208 55.115 17.7722 55.7789 16.9566C55.937 16.7594 56.0903 16.5591 56.2428 16.3576C56.5791 15.914 56.9276 15.4926 57.3063 15.0837C57.4828 14.8868 57.6457 14.6844 57.8088 14.4763C58.2684 13.912 58.7799 13.4031 59.2966 12.8913C59.4608 12.7286 59.6244 12.5652 59.7878 12.4018C60.2891 11.9019 60.7905 11.4081 61.3334 10.953C61.4247 10.8736 61.5159 10.7941 61.607 10.7144C62.2182 10.1851 62.8418 9.67576 63.4818 9.18169C63.6145 9.07897 63.7467 8.97548 63.8787 8.87178C65.0764 7.93779 66.3256 7.09128 67.6208 6.29868C67.6895 6.25648 67.7582 6.21429 67.829 6.17081C69.2261 5.31676 70.678 4.47647 72.1935 3.84902C72.2979 3.79751 72.4018 3.745 72.5048 3.69081C73.0593 3.41091 73.6396 3.20296 74.2247 2.99674C74.5708 2.87471 74.9093 2.74596 75.2454 2.59867C76.7334 1.97081 78.3058 1.5472 79.8691 1.1544C79.9569 1.13228 80.0448 1.11016 80.1352 1.08737C81.39 0.775291 82.6452 0.544454 83.9262 0.36932C84.1274 0.340871 84.1274 0.340871 84.3602 0.256187C86.2221 -0.00202589 88.1073 -0.00255228 89.9833 0.000575107ZM83.6795 8.59173C83.3261 8.68026 82.9757 8.72361 82.6148 8.76875C81.6646 8.89302 80.7709 9.19076 79.8629 9.48782C79.5715 9.58188 79.2787 9.67007 78.9851 9.75679C78.0338 10.0412 77.1144 10.4181 76.1946 10.7897C76.1946 10.8436 76.1946 10.8975 76.1946 10.953C76.1037 10.9631 76.0127 10.9732 75.9191 10.9837C75.6205 11.0058 75.6205 11.0058 75.4597 11.198C75.3399 11.2507 75.2182 11.2989 75.0955 11.3444C74.6399 11.5216 74.2087 11.7321 73.7756 11.9584C73.6553 12.0212 73.6553 12.0212 73.5326 12.0853C72.5931 12.5844 71.6985 13.1525 70.8054 13.7293C70.708 13.7912 70.6106 13.8531 70.5132 13.915C68.8459 14.9946 67.194 16.3074 65.8153 17.7398C65.6688 17.886 65.5176 18.0195 65.3597 18.1531C64.9879 18.4761 64.6502 18.8257 64.3138 19.1849C64.2544 19.2472 64.1951 19.3094 64.1339 19.3736C64.0779 19.4331 64.0219 19.4926 63.9642 19.554C63.9136 19.6076 63.863 19.6613 63.8109 19.7166C63.6844 19.8455 63.6844 19.8455 63.7014 20.0168C63.6475 20.0168 63.5936 20.0168 63.5381 20.0168C63.3886 20.1744 63.3886 20.1744 63.2267 20.3842C63.1611 20.4665 63.0954 20.5488 63.0277 20.6337C62.9737 20.7017 62.9737 20.7017 62.9186 20.7711C62.7984 20.921 62.676 21.069 62.5531 21.2167C61.9142 21.9871 61.3225 22.7807 60.7618 23.6096C60.7193 23.6723 60.6768 23.735 60.633 23.7996C59.6393 25.2745 58.741 26.8165 57.9855 28.4273C57.9529 28.4955 57.9204 28.5636 57.8869 28.6339C56.939 30.6342 56.1746 32.795 55.6991 34.9597C55.6823 35.0362 55.6654 35.1128 55.648 35.1917C55.1249 37.6038 54.8485 40.0242 54.8622 42.4924C54.8625 42.5772 54.8628 42.6619 54.8631 42.7493C54.8736 45.2427 55.0375 47.6204 55.5358 50.0659C55.553 50.1526 55.5702 50.2393 55.5879 50.3286C55.8322 51.5501 56.1959 52.7255 56.5974 53.9037C56.6256 53.9874 56.6538 54.0711 56.6828 54.1573C57.7964 57.4393 59.3791 60.5346 61.4651 63.3067C61.5678 63.4433 61.669 63.5811 61.77 63.719C62.4515 64.6441 63.1782 65.5423 63.9463 66.397C63.9944 66.4526 64.0425 66.5081 64.0921 66.5654C64.5753 67.1166 65.0931 67.6307 65.6154 68.1447C65.6762 68.2048 65.7369 68.2649 65.7995 68.3267C65.8534 68.3797 65.9073 68.4327 65.9629 68.4872C66.1107 68.6413 66.2482 68.7969 66.3862 68.9594C66.8061 69.4422 67.2646 69.8876 67.7183 70.3384C67.8868 70.5058 68.055 70.6735 68.2231 70.8412C68.5801 71.1973 68.9374 71.553 69.2948 71.9087C69.7093 72.3213 70.1236 72.734 70.5376 73.147C70.7024 73.3113 70.8674 73.4753 71.0325 73.6393C71.1346 73.7411 71.2367 73.843 71.3389 73.9449C71.384 73.9896 71.4292 74.0343 71.4757 74.0804C71.708 74.3127 71.9296 74.5503 72.1443 74.7991C72.4483 75.1501 72.772 75.478 73.1015 75.8051C73.1651 75.8686 73.2288 75.9322 73.2944 75.9977C73.4316 76.1346 73.569 76.2714 73.7064 76.4081C73.9242 76.6249 74.1418 76.842 74.3594 77.0591C74.8212 77.5201 75.2833 77.9806 75.7455 78.4412C76.2814 78.9751 76.8172 79.5092 77.3526 80.0437C77.5663 80.2568 77.7802 80.4697 77.9941 80.6825C78.1259 80.8141 78.2578 80.9457 78.3896 81.0773C78.4485 81.1357 78.5074 81.1942 78.5681 81.2544C78.8901 81.5764 79.1957 81.9072 79.4931 82.2519C79.6746 82.459 79.867 82.6534 80.0623 82.8475C80.102 82.8872 80.1418 82.9268 80.1828 82.9677C80.2679 83.0525 80.3531 83.1372 80.4384 83.2218C80.5739 83.3563 80.7092 83.491 80.8444 83.6258C81.1315 83.912 81.4189 84.1979 81.7064 84.4837C82.0399 84.8153 82.3733 85.147 82.7064 85.4791C82.8386 85.6108 82.9711 85.7423 83.1036 85.8737C83.4893 86.2575 83.8644 86.6451 84.2184 87.0587C84.5086 87.387 84.8233 87.6921 85.134 88.0009C85.2065 88.0733 85.279 88.1457 85.3538 88.2203C85.5449 88.4111 85.7362 88.6016 85.9276 88.7921C86.1219 88.9856 86.3159 89.1793 86.51 89.3729C86.8552 89.7174 87.2007 90.0616 87.5462 90.4057C87.6802 90.5392 87.814 90.673 87.9475 90.8069C88.1226 90.9815 88.3009 91.1508 88.4838 91.3172C88.5436 91.3722 88.6033 91.4273 88.6649 91.484C89.1443 91.8558 89.655 91.8519 90.2394 91.7918C90.7052 91.6604 91.0101 91.3755 91.335 91.0285C91.4642 90.8936 91.4642 90.8936 91.6683 90.7354C91.848 90.5871 91.983 90.4446 92.1331 90.2681C92.4254 89.9308 92.7338 89.6148 93.0514 89.3013C93.1072 89.2458 93.163 89.1903 93.2206 89.1331C93.4564 88.8986 93.6927 88.6646 93.9289 88.4305C94.1027 88.2583 94.2762 88.0857 94.4497 87.9132C94.5283 87.8356 94.5283 87.8356 94.6085 87.7564C94.8609 87.5054 95.1037 87.2507 95.336 86.9808C95.6547 86.6117 95.9981 86.2707 96.3453 85.9286C96.4812 85.7938 96.617 85.659 96.7528 85.5241C96.9652 85.3138 97.1777 85.1036 97.3904 84.8935C97.597 84.6894 97.8031 84.4848 98.0091 84.2802C98.0733 84.217 98.1376 84.1538 98.2039 84.0887C98.2625 84.0303 98.3212 83.9719 98.3816 83.9118C98.4335 83.8605 98.4855 83.8091 98.539 83.7562C98.6675 83.634 98.6675 83.634 98.6499 83.463C98.7038 83.463 98.7576 83.463 98.8132 83.463C98.932 83.3457 98.932 83.3457 99.0565 83.1895C99.4248 82.7569 99.825 82.3592 100.228 81.9589C100.311 81.8754 100.395 81.7919 100.479 81.7084C100.657 81.5297 100.836 81.3512 101.016 81.1728C101.299 80.8901 101.583 80.6072 101.866 80.3242C102.519 79.6725 103.172 79.0212 103.825 78.3699C104.424 77.7726 105.023 77.1752 105.621 76.5774C105.903 76.2966 106.184 76.016 106.466 75.7356C106.641 75.5606 106.817 75.3854 106.992 75.2101C107.073 75.1295 107.154 75.0489 107.235 74.9684C107.639 74.5659 108.033 74.1599 108.404 73.7268C108.589 73.5154 108.784 73.3193 108.983 73.1216C109.025 73.0803 109.066 73.0391 109.109 72.9966C109.197 72.9083 109.286 72.8202 109.375 72.7321C109.516 72.5921 109.656 72.4519 109.797 72.3116C110.146 71.9634 110.496 71.6156 110.846 71.2679C111.142 70.9731 111.438 70.6781 111.735 70.3829C111.872 70.2457 112.01 70.1089 112.148 69.972C112.551 69.5706 112.948 69.1675 113.316 68.733C113.493 68.5279 113.685 68.3417 113.879 68.1526C114.176 67.8591 114.46 67.5596 114.731 67.2413C114.871 67.0824 115.014 66.9284 115.16 66.775C115.695 66.2115 116.204 65.6446 116.668 65.0203C116.853 64.7713 117.045 64.5279 117.237 64.2842C119.434 61.4408 121.344 58.1868 122.575 54.8019C122.599 54.7362 122.624 54.6705 122.649 54.6028C123.08 53.4325 123.426 52.2489 123.737 51.0415C123.799 50.8022 123.865 50.5639 123.931 50.3256C124.247 49.1711 124.376 47.9872 124.507 46.8002C124.531 46.5874 124.558 46.3753 124.586 46.1631C124.713 45.1475 124.713 44.1317 124.713 43.1099C124.713 43.037 124.713 42.9641 124.713 42.889C124.713 41.4714 124.652 40.0719 124.473 38.6648C124.463 38.5815 124.463 38.5815 124.452 38.4966C124.327 37.5127 124.15 36.5456 123.929 35.5789C123.885 35.3839 123.845 35.1886 123.806 34.9926C123.606 34.0008 123.295 33.0497 122.977 32.0902C122.904 31.8658 122.837 31.6405 122.771 31.4141C122.688 31.1339 122.592 30.8742 122.463 30.6116C122.304 30.275 122.174 29.9382 122.054 29.5858C121.861 29.0329 121.615 28.5224 121.345 28.0038C121.268 27.8547 121.194 27.7045 121.121 27.5536C120.454 26.1805 119.692 24.8614 118.819 23.6096C118.759 23.523 118.759 23.523 118.697 23.4347C118.237 22.7723 117.773 22.1155 117.267 21.4866C117.197 21.3964 117.197 21.3964 117.125 21.3044C115.936 19.7917 114.631 18.3481 113.185 17.0772C113.139 17.0374 113.094 16.9975 113.048 16.9565C112.322 16.3205 111.577 15.711 110.817 15.1175C110.765 15.077 110.713 15.0366 110.66 14.995C109.796 14.3211 108.894 13.727 107.959 13.1577C107.874 13.1057 107.874 13.1057 107.787 13.0526C105.229 11.4846 102.435 10.1594 99.5277 9.38723C99.3031 9.31993 99.3031 9.31993 99.153 9.24156C98.4412 8.89896 97.569 8.83057 96.7973 8.70751C96.5796 8.67226 96.362 8.63677 96.1444 8.6013C96.0409 8.58449 95.9375 8.56769 95.8309 8.55038C95.5383 8.50194 95.2466 8.4499 94.955 8.39584C94.4428 8.30095 93.9311 8.22496 93.4137 8.16655C93.3592 8.16037 93.3046 8.15419 93.2484 8.14783C93.0621 8.12815 92.8757 8.1112 92.689 8.0951C92.6073 8.08795 92.5255 8.0808 92.4412 8.07343C91.4514 7.99698 90.4611 7.99014 89.4687 7.98793C89.377 7.98771 89.2852 7.9875 89.1907 7.98728C87.3248 7.98681 85.4846 8.0785 83.6795 8.59173Z" fill="#FDFCF3"/>
<path d="M98.7314 125.026C123.985 125.026 123.985 125.026 127.311 126.74C127.36 126.765 127.409 126.79 127.46 126.816C128.07 127.125 128.659 127.461 129.24 127.822C129.294 127.856 129.348 127.89 129.404 127.924C129.702 128.112 129.979 128.311 130.25 128.537C130.349 128.615 130.349 128.615 130.449 128.695C133.451 131.111 135.435 134.307 136.211 138.09C136.225 138.151 136.238 138.212 136.252 138.275C136.721 140.437 136.587 142.819 136.048 144.949C136.029 145.03 136.01 145.111 135.99 145.194C135.858 145.744 135.697 146.276 135.502 146.807C135.473 146.885 135.445 146.962 135.416 147.042C134.678 149.005 133.531 150.742 132.085 152.255C132.004 152.34 131.923 152.425 131.843 152.51C129.096 155.431 125.069 157.036 121.105 157.279C120.708 157.29 120.311 157.29 119.914 157.289C119.797 157.289 119.679 157.289 119.561 157.289C119.248 157.289 118.936 157.288 118.623 157.288C118.329 157.287 118.034 157.287 117.74 157.287C116.881 157.287 116.023 157.286 115.165 157.284C113.245 157.283 111.325 157.281 109.347 157.279C109.347 162.857 109.347 168.435 109.347 174.182C105.844 174.182 102.341 174.182 98.7314 174.182C98.7314 157.96 98.7314 141.739 98.7314 125.026Z" fill="#FDFDF5"/>
<path d="M93.0768 15.9544C93.1781 15.9669 93.1781 15.9669 93.2814 15.9797C94.7002 16.1596 96.1465 16.3898 97.5015 16.8577C97.8969 16.9931 98.2934 17.1173 98.6955 17.2308C99.2341 17.3829 99.7365 17.553 100.241 17.7987C100.443 17.8923 100.643 17.9624 100.854 18.0315C101.571 18.285 102.231 18.6734 102.896 19.0369C102.953 19.0678 103.01 19.0987 103.069 19.1305C104.385 19.8451 105.646 20.6303 106.815 21.5682C106.934 21.6585 107.053 21.7487 107.173 21.8387C108.29 22.7099 109.416 23.6667 110.326 24.7528C110.428 24.8652 110.53 24.9775 110.633 25.0896C111.033 25.5399 111.402 26.014 111.77 26.4913C111.867 26.6166 111.965 26.7407 112.064 26.8646C112.648 27.612 113.119 28.4242 113.593 29.2438C113.629 29.3064 113.665 29.369 113.703 29.4335C114.897 31.5004 115.78 33.634 116.387 35.9423C116.446 36.1666 116.507 36.3902 116.568 36.6138C117.369 39.5869 117.482 42.8568 117.104 45.9015C117.093 45.9955 117.082 46.0895 117.071 46.1864C116.896 47.6771 116.667 49.1134 116.184 50.5367C116.069 50.8854 115.971 51.2392 115.87 51.5923C115.756 51.9899 115.622 52.3754 115.471 52.7605C115.447 52.8217 115.424 52.8828 115.399 52.9457C115.175 53.5195 114.922 54.0791 114.664 54.6386C114.623 54.7294 114.582 54.8201 114.54 54.9136C114.313 55.4059 114.072 55.8764 113.785 56.336C113.668 56.5268 113.564 56.7216 113.46 56.9199C112.844 58.0558 112.12 59.1199 111.328 60.1395C111.241 60.2523 111.154 60.366 111.068 60.4798C110.429 61.3173 109.731 62.1099 109.02 62.8858C108.984 62.9249 108.949 62.964 108.912 63.0042C108.055 63.9405 107.162 64.8408 106.265 65.7381C106.057 65.9455 105.85 66.1535 105.644 66.3616C105.483 66.523 105.322 66.6841 105.161 66.8451C105.047 66.9589 104.934 67.073 104.821 67.1871C104.753 67.2551 104.685 67.3231 104.614 67.3931C104.554 67.4532 104.494 67.5134 104.432 67.5753C104.284 67.7035 104.284 67.7035 104.121 67.7035C104.094 67.7843 104.067 67.8652 104.039 67.9484C103.985 67.9484 103.931 67.9484 103.876 67.9484C103.854 67.9973 103.833 68.0461 103.811 68.0965C103.705 68.2883 103.607 68.3824 103.437 68.5197C103.004 68.8871 102.608 69.2899 102.209 69.6934C102.07 69.834 101.93 69.9743 101.791 70.1144C101.395 70.5125 100.999 70.9111 100.604 71.31C100.361 71.5551 100.117 71.7998 99.8739 72.0442C99.7814 72.1373 99.689 72.2305 99.5967 72.3238C99.4685 72.4536 99.3399 72.5829 99.211 72.712C99.1379 72.7857 99.0648 72.8594 98.9895 72.9354C98.8131 73.0927 98.8131 73.0927 98.6498 73.0927C98.6315 73.1375 98.6132 73.1823 98.5944 73.2284C98.4541 73.4766 98.2665 73.6621 98.0658 73.8612C98.023 73.9042 97.9802 73.9473 97.9362 73.9917C97.7951 74.1335 97.6534 74.2746 97.5117 74.4158C97.4135 74.5142 97.3152 74.6126 97.217 74.711C97.0113 74.9169 96.8054 75.1225 96.5992 75.3279C96.3345 75.5917 96.0705 75.8562 95.8068 76.1209C95.6042 76.3241 95.4013 76.5268 95.1982 76.7295C95.1007 76.8269 95.0032 76.9245 94.906 77.0221C94.7703 77.1582 94.6341 77.2937 94.4978 77.4291C94.4574 77.4699 94.417 77.5106 94.3754 77.5525C94.0957 77.8287 94.0957 77.8287 93.9138 77.8287C93.8868 77.9096 93.8599 77.9904 93.8321 78.0737C93.7042 78.1997 93.7042 78.1997 93.5412 78.334C93.3005 78.5378 93.0731 78.7467 92.8523 78.9719C92.6449 79.1825 92.4338 79.382 92.2092 79.5741C91.8716 79.8638 91.5618 80.1778 91.2514 80.4962C90.7205 81.0133 90.7205 81.0133 90.4842 81.0133C90.4842 81.0672 90.4842 81.1211 90.4842 81.1766C90.3707 81.2847 90.3707 81.2847 90.2189 81.396C90.145 81.4521 90.145 81.4521 90.0696 81.5093C89.8674 81.6067 89.795 81.5755 89.586 81.5032C89.4067 81.3525 89.2386 81.2012 89.0706 81.0388C88.9763 80.9493 88.8818 80.8599 88.7873 80.7706C88.7196 80.7063 88.7196 80.7063 88.6505 80.6407C88.496 80.4968 88.3355 80.3614 88.1724 80.2274C88.1 80.1634 88.0275 80.0994 87.9529 80.0334C87.9529 79.9795 87.9529 79.9256 87.9529 79.8701C87.9054 79.8494 87.8578 79.8286 87.8088 79.8073C87.6066 79.6959 87.4789 79.5727 87.3201 79.4057C87.0585 79.1373 86.7888 78.888 86.5048 78.6437C86.2763 78.4439 86.0531 78.2386 85.8299 78.0329C85.5489 77.774 85.2665 77.5174 84.9776 77.2674C84.4897 76.8416 84.4897 76.8416 84.2784 76.6039C84.2784 76.3589 84.2784 76.3589 84.3858 76.2457C84.4373 76.2046 84.4888 76.1636 84.5419 76.1213C84.8507 75.8627 85.136 75.5895 85.4184 75.3028C85.461 75.2598 85.5035 75.2169 85.5473 75.1726C85.7244 74.9932 85.9012 74.8135 86.0777 74.6335C86.208 74.5007 86.3388 74.3684 86.4697 74.2362C86.5097 74.1951 86.5497 74.1541 86.5909 74.1118C86.688 74.0139 86.7894 73.9203 86.8914 73.8276C86.9453 73.8276 86.9992 73.8276 87.0547 73.8276C87.0817 73.7468 87.1086 73.6659 87.1364 73.5827C87.298 73.4446 87.4613 73.3084 87.6263 73.1744C87.6533 73.1205 87.6802 73.0666 87.708 73.0111C87.7619 73.0111 87.8158 73.0111 87.8713 73.0111C87.8713 72.9572 87.8713 72.9033 87.8713 72.8478C87.9252 72.8478 87.9791 72.8478 88.0346 72.8478C88.0885 72.74 88.1424 72.6322 88.1979 72.5211C88.2518 72.5211 88.3057 72.5211 88.3612 72.5211C88.378 72.4778 88.3949 72.4344 88.4122 72.3897C88.5718 72.1122 88.7875 71.9079 89.0145 71.6842C89.0814 71.6163 89.0814 71.6163 89.1497 71.547C89.4837 71.2147 89.4837 71.2147 89.6677 71.2147C89.7216 71.1069 89.7755 70.9991 89.831 70.888C89.8849 70.888 89.9388 70.888 89.9943 70.888C89.9943 70.8341 89.9943 70.7802 89.9943 70.7247C90.0482 70.7247 90.1021 70.7247 90.1576 70.7247C90.1576 70.6708 90.1576 70.6169 90.1576 70.5614C90.2115 70.5614 90.2654 70.5614 90.3209 70.5614C90.3748 70.4536 90.4287 70.3458 90.4842 70.2348C90.5381 70.2348 90.592 70.2348 90.6476 70.2348C90.6779 70.1641 90.6779 70.1641 90.7088 70.0919C90.8258 69.8813 90.9566 69.7399 91.1375 69.5815C91.1914 69.5815 91.2453 69.5815 91.3008 69.5815C91.3172 69.5376 91.3336 69.4936 91.3505 69.4483C91.5117 69.174 91.7405 68.9841 91.9751 68.7739C92.7938 68.0249 93.5745 67.2384 94.3581 66.453C94.5164 66.2944 94.6751 66.1361 94.8338 65.9779C95.0238 65.7882 95.2136 65.5982 95.4033 65.4082C95.5095 65.3023 95.5095 65.3023 95.6177 65.1943C95.7148 65.0969 95.7148 65.0969 95.8138 64.9974C95.8709 64.9403 95.9279 64.8832 95.9867 64.8244C96.1247 64.6888 96.1247 64.6888 96.2001 64.5189C96.254 64.5189 96.3079 64.5189 96.3634 64.5189C96.3634 64.465 96.3634 64.4111 96.3634 64.3556C96.4173 64.3556 96.4712 64.3556 96.5267 64.3556C96.5267 64.3017 96.5267 64.2478 96.5267 64.1923C96.6359 64.0848 96.6359 64.0848 96.7933 63.9558C97.2676 63.5521 97.7015 63.1094 98.1404 62.6683C98.2318 62.5767 98.3233 62.4851 98.4148 62.3936C98.6539 62.1541 98.8927 61.9145 99.1315 61.6748C99.3742 61.4312 99.6172 61.1879 99.8601 60.9446C100.287 60.5164 100.715 60.0881 101.142 59.6596C101.282 59.5192 101.423 59.3798 101.564 59.2412C101.762 59.0503 101.762 59.0503 101.916 58.803C101.97 58.803 102.024 58.803 102.079 58.803C102.11 58.7319 102.11 58.7319 102.142 58.6593C102.253 58.4567 102.377 58.3249 102.542 58.1638C102.602 58.1052 102.661 58.0466 102.723 57.9862C102.785 57.9256 102.847 57.8651 102.911 57.8028C103.362 57.3623 103.793 56.915 104.202 56.435C104.277 56.3497 104.351 56.2644 104.426 56.1792C105.239 55.2344 105.932 54.24 106.57 53.1688C106.617 53.094 106.664 53.0191 106.712 52.942C107.84 51.0979 108.506 48.9876 108.938 46.8814C108.954 46.8082 108.97 46.7351 108.987 46.6597C109.441 44.5426 109.446 42.1616 109.102 40.0223C109.091 39.9554 109.081 39.8885 109.07 39.8196C108.485 36.2222 106.966 32.8607 104.471 30.1806C104.314 30.0115 104.166 29.8392 104.019 29.6623C103.214 28.7434 102.257 27.9859 101.263 27.2841C101.203 27.2421 101.144 27.2 101.083 27.1567C100.25 26.5727 99.4051 26.0853 98.4865 25.651C98.3553 25.5815 98.2243 25.5118 98.0935 25.4417C96.4336 24.6146 94.6101 24.2166 92.7987 23.8948C92.6073 23.8546 92.6073 23.8546 92.444 23.7729C91.9103 23.692 91.3723 23.6775 90.8335 23.6747C90.7604 23.6741 90.6873 23.6735 90.612 23.6729C90.3772 23.6715 90.1424 23.671 89.9076 23.6708C89.7873 23.6708 89.7873 23.6708 89.6646 23.6707C88.0542 23.6724 86.4872 23.7162 84.9524 24.2523C84.7252 24.3311 84.5086 24.3896 84.2733 24.4364C84.0112 24.4891 83.7873 24.576 83.5439 24.689C83.3333 24.7711 83.1206 24.819 82.9005 24.8702C82.5132 24.9615 82.1716 25.0846 81.8157 25.2615C81.6655 25.3244 81.6655 25.3244 81.4205 25.3244C81.4205 25.3783 81.4205 25.4321 81.4205 25.4877C81.3659 25.5077 81.3112 25.5277 81.255 25.5483C79.6398 26.177 78.2333 27.222 76.9295 28.3456C76.8681 28.3978 76.8067 28.45 76.7435 28.5038C76.4293 28.774 76.1337 29.0563 75.844 29.3526C75.7113 29.4823 75.5737 29.5973 75.429 29.7133C75.0285 30.0503 74.7217 30.4683 74.3981 30.8769C74.3461 30.9389 74.2941 31.0009 74.2406 31.0648C73.877 31.5015 73.5555 31.9618 73.2397 32.4335C73.1989 32.4942 73.1581 32.555 73.1161 32.6175C72.841 33.0335 72.5941 33.4597 72.3568 33.8982C72.2957 34.008 72.2345 34.1178 72.1734 34.2277C71.7525 34.9957 71.4148 35.7647 71.1319 36.5928C71.0956 36.6965 71.0592 36.8001 71.0228 36.9038C70.3283 38.9265 70.0507 40.8416 70.0449 42.967C70.0447 43.0423 70.0445 43.1176 70.0442 43.1952C70.0437 44.9533 70.2274 46.6584 70.7237 48.3512C70.742 48.4159 70.7603 48.4807 70.7792 48.5475C71.0132 49.3747 71.2603 50.1824 71.6219 50.9641C71.6488 51.0239 71.6757 51.0837 71.7034 51.1453C72.662 53.2712 73.8884 55.2008 75.4597 56.925C75.5049 56.9748 75.5502 57.0247 75.5968 57.076C76.197 57.7348 76.8166 58.3724 77.4527 58.9966C77.7003 59.2409 77.9389 59.4869 78.1642 59.752C78.6107 60.2699 79.1075 60.7416 79.5935 61.2221C79.7904 61.4168 79.9871 61.6119 80.1836 61.8071C80.25 61.8725 80.25 61.8725 80.3179 61.9393C80.5951 62.2148 80.846 62.5021 81.0939 62.8042C81.2335 62.9347 81.2335 62.9347 81.3695 63.0389C81.6377 63.2615 81.8575 63.5069 82.0827 63.7722C82.3107 64.0309 82.5579 64.2691 82.8035 64.5109C82.9406 64.6503 83.065 64.7897 83.1863 64.9425C83.3395 65.1239 83.4752 65.2579 83.6558 65.4069C83.9238 65.6293 84.1433 65.8746 84.3687 66.1393C84.6959 66.5117 85.0406 66.8932 85.4436 67.1839C85.4903 67.2206 85.5369 67.2573 85.5849 67.2952C85.5849 67.3491 85.5849 67.403 85.5849 67.4585C85.6927 67.5124 85.8005 67.5663 85.9115 67.6218C85.8812 68.0338 85.6634 68.2418 85.3811 68.5165C85.3363 68.5613 85.2915 68.606 85.2453 68.6521C85.1508 68.7461 85.0558 68.8398 84.9605 68.9331C84.8142 69.0764 84.6693 69.2209 84.5245 69.3658C84.4325 69.457 84.3403 69.5482 84.2481 69.6393C84.2046 69.6827 84.161 69.726 84.1162 69.7707C83.8075 70.0715 83.8075 70.0715 83.6252 70.0715C83.6252 70.1254 83.6252 70.1793 83.6252 70.2348C83.5148 70.3433 83.5148 70.3433 83.3563 70.4731C82.8943 70.8658 82.4736 71.2988 82.0482 71.7301C81.8889 71.8916 81.7293 72.0529 81.5695 72.214C81.4647 72.3201 81.4647 72.3201 81.3579 72.4284C81.1755 72.6028 81.1755 72.6028 80.9306 72.7661C80.6694 72.739 80.5311 72.6434 80.3449 72.4644C80.2978 72.4197 80.2506 72.375 80.202 72.3289C80.1528 72.2812 80.1035 72.2335 80.0528 72.1843C79.9497 72.0863 79.8466 71.9884 79.7434 71.8905C79.6942 71.8437 79.645 71.7968 79.5943 71.7486C79.4415 71.6048 79.2841 71.4675 79.1239 71.332C78.7988 71.0522 78.4994 70.7479 78.2002 70.441C77.9851 70.2221 77.7648 70.0153 77.5314 69.816C77.1483 69.4823 76.7913 69.1256 76.4341 68.7647C76.3657 68.696 76.2973 68.6272 76.2268 68.5564C76.01 68.3387 75.7935 68.1206 75.577 67.9025C75.2914 67.6147 75.0054 67.3271 74.7193 67.0397C74.6547 66.9744 74.59 66.909 74.5234 66.8417C74.2071 66.524 73.8885 66.2182 73.5411 65.9345C73.4057 65.8142 73.2932 65.6846 73.1784 65.5447C73.0179 65.3512 72.8564 65.1865 72.663 65.0261C72.154 64.5863 71.6852 64.1045 71.2106 63.6284C71.0456 63.4629 70.8801 63.2979 70.7146 63.1329C70.2105 62.6291 69.711 62.1268 69.2539 61.5793C69.1814 61.4959 69.1087 61.4125 69.036 61.3293C66.8234 58.7496 65.0682 55.809 63.8594 52.6336C63.8104 52.5056 63.7605 52.3778 63.7097 52.2505C63.1837 50.9326 62.9129 49.5504 62.623 48.166C62.5746 47.9386 62.5228 47.713 62.4679 47.4871C62.2577 46.5327 62.2062 45.5649 62.2069 44.5909C62.2066 44.4772 62.2063 44.3635 62.2059 44.2498C62.2053 44.0132 62.2053 43.7765 62.2057 43.5399C62.2061 43.3025 62.2055 43.0651 62.204 42.8277C62.1909 40.7204 62.3144 38.6772 62.8357 36.625C62.8807 36.4455 62.9228 36.2658 62.9635 36.0853C63.5626 33.4743 64.7704 30.9072 66.2326 28.6722C66.3114 28.55 66.3114 28.55 66.3918 28.4253C67.4474 26.8118 68.6873 25.304 70.05 23.9415C70.1716 23.8197 70.2924 23.6974 70.4133 23.575C70.9256 23.0597 71.4615 22.5934 72.0301 22.1398C72.1249 22.0596 72.2192 21.9789 72.3127 21.8974C72.8558 21.4257 73.4124 20.9993 74.0124 20.6005C74.1615 20.5012 74.3097 20.4005 74.4578 20.2997C75.5481 19.5603 76.6695 18.9593 77.8625 18.4022C78.0763 18.3003 78.2872 18.1937 78.4981 18.0861C78.8127 17.9278 79.1267 17.7976 79.4608 17.6845C79.787 17.5733 80.1076 17.4557 80.4263 17.3247C80.828 17.1627 81.2332 17.0352 81.6502 16.919C81.7237 16.8983 81.7973 16.8776 81.8731 16.8563C83.1075 16.514 84.3446 16.2152 85.6152 16.0447C85.7634 16.0246 85.9116 16.0036 86.0596 15.9818C88.392 15.6419 90.7409 15.6645 93.0768 15.9544Z" fill="#00A896"/>
<path d="M147.48 125.025C151.275 125.024 155.071 125.022 158.866 125.021C159.314 125.021 159.761 125.021 160.209 125.021C160.343 125.021 160.343 125.021 160.479 125.021C161.924 125.021 163.369 125.02 164.814 125.019C166.295 125.018 167.777 125.018 169.258 125.018C170.173 125.018 171.088 125.017 172.003 125.017C172.629 125.016 173.256 125.016 173.882 125.016C174.244 125.016 174.606 125.016 174.968 125.016C175.299 125.015 175.63 125.015 175.961 125.016C176.081 125.016 176.201 125.016 176.321 125.015C176.484 125.015 176.646 125.015 176.808 125.015C176.944 125.015 176.944 125.015 177.083 125.015C177.284 125.025 177.284 125.025 177.366 125.107C177.366 128.287 177.366 131.466 177.366 134.742C170.279 134.742 163.192 134.742 155.89 134.742C155.89 135.093 155.89 135.443 155.89 135.804C155.863 135.885 155.836 135.966 155.809 136.049C155.778 136.27 155.751 136.491 155.727 136.712C155.72 136.777 155.713 136.842 155.705 136.909C155.657 137.357 155.626 137.804 155.604 138.254C155.583 138.684 155.537 139.09 155.439 139.509C155.368 139.903 155.358 140.303 155.339 140.701C155.319 140.948 155.319 140.948 155.237 141.03C155.207 141.235 155.181 141.439 155.158 141.645C155.15 141.707 155.143 141.768 155.136 141.832C155.113 142.029 155.091 142.226 155.069 142.423C155.053 142.557 155.038 142.69 155.023 142.823C154.985 143.151 154.947 143.479 154.91 143.806C154.992 143.768 155.073 143.729 155.157 143.69C155.266 143.639 155.375 143.587 155.484 143.536C155.537 143.511 155.591 143.486 155.646 143.46C156.803 142.917 158.002 142.572 159.238 142.255C159.294 142.24 159.35 142.225 159.408 142.21C161.027 141.793 162.663 141.749 164.326 141.75C164.396 141.749 164.466 141.749 164.538 141.749C164.737 141.749 164.937 141.75 165.137 141.751C165.227 141.751 165.227 141.751 165.32 141.751C165.574 141.754 165.773 141.766 166.016 141.846C166.167 141.853 166.318 141.858 166.47 141.862C167.077 141.901 167.654 142.025 168.246 142.163C168.336 142.184 168.427 142.205 168.52 142.226C170.765 142.762 172.876 143.805 174.589 145.358C174.65 145.41 174.711 145.463 174.774 145.517C175.67 146.297 176.469 147.154 177.111 148.156C177.208 148.307 177.307 148.456 177.406 148.605C178.113 149.69 178.639 150.837 179.08 152.053C179.106 152.118 179.131 152.183 179.157 152.251C179.366 152.799 179.507 153.341 179.621 153.916C179.638 153.996 179.655 154.076 179.672 154.158C179.723 154.409 179.77 154.66 179.815 154.911C179.831 154.998 179.847 155.085 179.863 155.175C179.993 155.975 180.004 156.762 179.999 157.57C179.999 157.639 179.998 157.707 179.998 157.777C179.987 160.3 179.683 162.923 178.509 165.2C178.466 165.29 178.424 165.38 178.38 165.472C178.065 166.127 177.704 166.73 177.284 167.323C177.231 167.399 177.178 167.474 177.123 167.552C176.272 168.744 175.314 169.898 174.181 170.834C174.103 170.901 174.025 170.967 173.945 171.036C173.17 171.682 172.317 172.177 171.443 172.676C171.257 172.785 171.076 172.898 170.895 173.015C170.396 173.33 169.837 173.502 169.282 173.692C169.198 173.721 169.114 173.75 169.027 173.78C167.763 174.215 166.525 174.573 165.199 174.754C165.117 174.766 165.035 174.778 164.951 174.79C161.637 175.264 158.307 175.043 155.074 174.182C154.981 174.157 154.981 174.157 154.886 174.132C153.591 173.783 152.355 173.309 151.154 172.712C151.095 172.683 151.035 172.653 150.973 172.623C149.975 172.126 149.042 171.562 148.133 170.916C148.06 170.864 148.06 170.864 147.986 170.811C147.268 170.295 146.626 169.708 145.991 169.095C145.858 168.967 145.724 168.84 145.589 168.714C144.359 167.545 143.035 165.903 142.417 164.302C142.431 164.097 142.431 164.097 142.499 163.893C142.643 163.773 142.643 163.773 142.834 163.674C142.905 163.636 142.976 163.598 143.049 163.559C143.127 163.519 143.205 163.48 143.285 163.439C143.364 163.397 143.444 163.355 143.526 163.312C143.782 163.178 144.038 163.046 144.295 162.914C144.548 162.782 144.801 162.651 145.053 162.519C145.21 162.437 145.367 162.356 145.525 162.275C145.961 162.051 146.382 161.81 146.801 161.555C147.06 161.402 147.326 161.272 147.597 161.143C148.197 160.853 148.768 160.522 149.334 160.171C149.427 160.115 149.427 160.115 149.522 160.058C149.577 160.024 149.632 159.99 149.689 159.955C149.848 159.892 149.848 159.892 150.018 159.905C150.212 159.99 150.274 160.075 150.389 160.251C150.428 160.308 150.466 160.366 150.506 160.425C150.546 160.487 150.587 160.548 150.629 160.612C151.027 161.196 151.441 161.717 151.937 162.223C152.057 162.347 152.173 162.473 152.29 162.601C152.993 163.354 153.797 163.916 154.665 164.465C154.714 164.496 154.763 164.527 154.813 164.559C155.581 165.04 156.393 165.432 157.255 165.711C157.372 165.749 157.489 165.788 157.605 165.829C159.837 166.606 162.984 166.429 165.117 165.445C165.4 165.319 165.533 165.282 165.852 165.282C165.852 165.228 165.852 165.174 165.852 165.118C165.898 165.099 165.944 165.08 165.991 165.061C167.797 164.239 169.236 162.518 169.955 160.688C170.006 160.533 170.053 160.376 170.098 160.219C170.129 160.119 170.159 160.02 170.19 159.917C170.767 157.835 170.482 155.755 169.527 153.85C169.244 153.351 168.884 152.915 168.517 152.475C168.384 152.298 168.384 152.298 168.302 152.053C168.248 152.053 168.194 152.053 168.139 152.053C168.001 151.919 167.865 151.782 167.73 151.645C165.482 149.817 162.751 149.243 159.891 149.44C158.967 149.541 157.975 149.653 157.115 150.012C156.968 150.048 156.82 150.082 156.671 150.114C156.08 150.257 155.544 150.497 154.992 150.747C154.928 150.774 154.863 150.801 154.797 150.828C153.741 151.269 152.818 151.879 151.996 152.674C151.925 152.742 151.855 152.81 151.782 152.88C151.72 152.943 151.658 153.005 151.594 153.07C151.399 153.197 151.399 153.197 151.148 153.184C150.9 153.112 150.688 153.003 150.46 152.883C150.108 152.72 149.738 152.61 149.369 152.491C149.018 152.377 148.67 152.254 148.322 152.13C147.922 151.988 147.521 151.849 147.117 151.717C146.754 151.597 146.401 151.459 146.047 151.314C145.773 151.209 145.494 151.128 145.212 151.05C145.031 150.992 144.872 150.915 144.703 150.829C144.693 150.255 144.722 149.694 144.78 149.124C144.787 149.049 144.794 148.973 144.802 148.896C144.856 148.338 144.856 148.338 144.907 148.144C144.964 147.907 144.981 147.673 145.001 147.43C145.011 147.322 145.021 147.213 145.03 147.104C145.035 147.047 145.04 146.991 145.045 146.932C145.126 146.014 145.22 145.101 145.352 144.189C145.435 143.612 145.492 143.033 145.544 142.452C145.591 141.933 145.657 141.42 145.729 140.904C145.777 140.528 145.803 140.151 145.827 139.773C145.847 139.56 145.847 139.56 145.928 139.315C146.048 138.548 146.113 137.782 146.145 137.006C146.168 136.618 146.219 136.234 146.269 135.849C146.357 135.167 146.428 134.483 146.5 133.798C146.507 133.73 146.514 133.662 146.522 133.592C146.603 132.817 146.68 132.043 146.74 131.267C146.809 130.383 146.935 129.508 147.058 128.63C147.203 127.596 147.315 126.564 147.38 125.521C147.398 125.35 147.436 125.192 147.48 125.025Z" fill="#00A896"/>
<path d="M66.0826 133.666C66.2999 133.666 66.5172 133.664 66.7345 133.663C66.8739 133.662 67.0134 133.662 67.1528 133.662C67.2171 133.662 67.2814 133.661 67.3477 133.66C67.7174 133.662 68.0059 133.71 68.3556 133.844C68.4931 133.856 68.6311 133.862 68.769 133.865C70.1123 133.958 71.5483 134.511 72.7312 135.133C72.9371 135.24 72.9371 135.24 73.194 135.341C76.6194 136.794 79.3899 140.25 80.7698 143.608C81.5384 145.533 81.9465 147.598 81.941 149.67C81.941 149.728 81.941 149.785 81.9411 149.845C81.9383 150.982 81.8156 152.082 81.5838 153.197C81.5655 153.285 81.5655 153.285 81.5468 153.375C81.4696 153.73 81.3696 154.076 81.2572 154.421C81.2344 154.492 81.2117 154.562 81.1882 154.635C80.4011 157.041 79.2539 159.19 77.501 161.035C77.4086 161.144 77.3167 161.253 77.2254 161.362C76.3099 162.414 75.1648 163.239 73.9898 163.975C73.9306 164.012 73.8713 164.049 73.8103 164.088C72.3783 164.967 70.8125 165.472 69.1824 165.853C69.1141 165.869 69.0459 165.885 68.9756 165.902C67.9522 166.123 66.9023 166.117 65.86 166.118C65.7954 166.119 65.7307 166.119 65.6641 166.119C64.6631 166.118 63.703 166.062 62.7214 165.853C62.6303 165.836 62.5393 165.82 62.4455 165.802C59.6702 165.243 57.1434 163.719 55.1274 161.77C55.013 161.662 55.013 161.662 54.8962 161.552C54.3378 161.012 53.8684 160.436 53.4127 159.811C53.3615 159.741 53.3104 159.671 53.2577 159.599C52.5837 158.658 52.0276 157.671 51.5346 156.626C51.4704 156.49 51.4704 156.49 51.4048 156.352C49.7188 152.609 49.5347 148.222 50.9477 144.362C51.2044 143.691 51.5225 143.051 51.8612 142.418C51.8871 142.369 51.913 142.321 51.9397 142.271C52.5392 141.156 53.2313 140.115 54.1084 139.201C54.277 139.024 54.4352 138.844 54.5916 138.657C54.8428 138.367 55.117 138.106 55.3979 137.845C55.4411 137.805 55.4842 137.765 55.5287 137.723C55.8424 137.437 55.8424 137.437 56.0257 137.437C56.0257 137.383 56.0257 137.329 56.0257 137.274C56.1978 137.132 56.3701 137 56.5513 136.871C56.6059 136.831 56.6605 136.792 56.7168 136.751C57.6141 136.109 58.5111 135.486 59.5368 135.069C59.6236 135.03 59.7103 134.991 59.7997 134.951C60.5141 134.631 61.2362 134.39 61.9865 134.171C62.0859 134.141 62.1852 134.111 62.2876 134.08C62.5088 134.021 62.7037 133.983 62.9306 133.967C63.1517 133.946 63.3158 133.918 63.5277 133.844C64.3296 133.588 65.2484 133.666 66.0826 133.666Z" fill="#051834"/>
<path d="M0.497731 125.015C0.585836 125.015 0.585837 125.015 0.675722 125.015C0.768922 125.015 0.768922 125.015 0.864005 125.015C1.07488 125.015 1.28574 125.015 1.49661 125.016C1.64825 125.016 1.79989 125.016 1.95152 125.015C2.37029 125.015 2.78905 125.016 3.20782 125.016C3.65862 125.016 4.10943 125.016 4.56023 125.016C5.34197 125.016 6.12371 125.016 6.90546 125.017C8.03574 125.017 9.16602 125.018 10.2963 125.018C12.1299 125.018 13.9635 125.019 15.7971 125.019C17.5788 125.02 19.3604 125.021 21.1421 125.021C21.197 125.021 21.2519 125.021 21.3084 125.021C21.8596 125.021 22.4108 125.021 22.962 125.021C27.5869 125.022 32.2118 125.024 36.8367 125.025C36.8367 128.205 36.8367 131.385 36.8367 134.661C32.6062 134.661 28.3756 134.661 24.0168 134.661C24.0168 147.703 24.0168 160.745 24.0168 174.182C20.5408 174.182 17.0647 174.182 13.4833 174.182C13.4833 161.14 13.4833 148.098 13.4833 134.661C9.03716 134.661 4.59102 134.661 0.0101603 134.661C0.00847613 133.086 0.00679199 131.511 0.00505681 129.889C0.00431342 129.391 0.00357003 128.893 0.00280411 128.38C0.00243531 127.774 0.00243531 127.774 0.00236678 127.49C0.00224103 127.292 0.00195309 127.093 0.00153946 126.894C0.000945563 126.594 0.000859111 126.294 0.000890317 125.993C0.000596513 125.904 0.000302708 125.815 0 125.723C0.000112479 125.643 0.00022496 125.562 0.000340848 125.48C0.000265579 125.409 0.000190309 125.339 0.00011276 125.266C0.0204605 124.944 0.222584 125.016 0.497731 125.015Z" fill="#FDFBF3"/>
<path d="M89.7494 31.4485C89.8033 31.4485 89.8572 31.4485 89.9127 31.4485C90.7434 33.0879 91.5311 34.7463 92.282 36.4236C92.5174 36.9493 92.7552 37.4736 92.9987 37.9956C93.0225 38.0466 93.0463 38.0976 93.0708 38.1501C93.1853 38.3948 93.3015 38.6383 93.4239 38.8791C93.5766 38.8851 93.5766 38.8851 93.7323 38.8912C93.8728 38.8974 94.0132 38.9035 94.1537 38.9097C94.2199 38.9123 94.2862 38.9148 94.3545 38.9174C94.7514 38.9355 95.1424 38.9697 95.5365 39.0207C96.2905 39.1177 97.035 39.1513 97.7947 39.162C99.0925 39.1808 100.379 39.2398 101.671 39.3691C101.529 39.6706 101.353 39.8799 101.125 40.1244C101.023 40.2336 101.023 40.2336 100.92 40.3451C100.865 40.4042 100.865 40.4042 100.809 40.4645C100.681 40.6055 100.557 40.7498 100.432 40.8944C100.122 41.2493 99.7938 41.582 99.4587 41.9131C99.3974 41.9741 99.3362 42.035 99.273 42.0979C99.0138 42.3558 98.7541 42.6132 98.4944 42.8706C98.3036 43.0599 98.1131 43.2495 97.9226 43.4391C97.8648 43.4962 97.807 43.5532 97.7475 43.6121C97.4213 43.9367 97.1114 44.2696 96.8136 44.6205C96.6512 44.8017 96.4655 44.9474 96.2767 45.1002C96.0549 45.3201 95.9608 45.4213 95.9364 45.7356C95.9783 46.0163 96.0431 46.2811 96.1185 46.5547C96.1603 46.745 96.2011 46.9356 96.241 47.1263C96.2724 47.2682 96.2724 47.2682 96.3045 47.4131C96.3788 47.7722 96.4333 48.1325 96.4837 48.4956C96.5276 48.7647 96.5858 49.0276 96.6462 49.2934C96.7247 49.6529 96.7885 50.0151 96.8534 50.3772C96.8747 50.4958 96.8747 50.4958 96.8964 50.6168C96.9242 50.7722 96.9519 50.9276 96.9795 51.0831C97.0104 51.2553 97.0421 51.4274 97.0741 51.5995C97.1602 52.0765 97.1962 52.5206 97.18 53.0055C96.5721 52.8375 95.9959 52.6204 95.4142 52.3778C95.2212 52.2981 95.0281 52.2186 94.835 52.1392C94.783 52.1178 94.7311 52.0964 94.6776 52.0744C94.2242 51.8882 93.7694 51.7058 93.3141 51.5242C93.2052 51.4807 93.2052 51.4807 93.094 51.4364C92.8021 51.32 92.5102 51.2037 92.2182 51.0876C92.0125 51.0059 91.8069 50.9239 91.6013 50.8419C91.5406 50.8179 91.48 50.7939 91.4175 50.7691C91.0452 50.6205 90.679 50.4619 90.3149 50.2941C90.1086 50.209 89.9694 50.1876 89.7494 50.2292C89.5853 50.3093 89.4221 50.3913 89.2595 50.4742C89.1292 50.5155 88.9981 50.5545 88.8665 50.5916C88.5144 50.6915 88.193 50.8235 87.864 50.9829C87.708 51.0458 87.708 51.0458 87.463 51.0458C87.463 51.0997 87.463 51.1535 87.463 51.2091C87.3347 51.2504 87.3347 51.2504 87.2037 51.2926C87.0911 51.3294 86.9785 51.3662 86.8659 51.403C86.8096 51.4211 86.7532 51.4392 86.6951 51.4579C86.4335 51.5438 86.2238 51.627 85.9932 51.7807C85.8718 51.8199 85.7491 51.8552 85.6258 51.8878C85.3132 51.9771 85.0305 52.0885 84.7378 52.2298C84.2727 52.45 83.8003 52.5712 83.2986 52.6789C83.2986 52.7328 83.2986 52.7867 83.2986 52.8422C83.11 52.8961 82.9214 52.95 82.727 53.0055C82.7537 52.2038 82.8085 51.438 82.9809 50.6522C83.0743 50.2261 83.1477 49.7965 83.2221 49.3667C83.2362 49.2852 83.2503 49.2036 83.2649 49.1196C83.353 48.6054 83.4325 48.0908 83.5024 47.5738C83.5345 47.3521 83.5697 47.1318 83.6077 46.911C83.619 46.8452 83.6303 46.7794 83.642 46.7116C83.6642 46.5834 83.6868 46.4553 83.7098 46.3272C83.8409 45.7243 83.8409 45.7243 83.6807 45.1592C83.6321 45.1095 83.5835 45.0597 83.5334 45.0084C83.4812 44.9532 83.429 44.8981 83.3752 44.8412C83.323 44.7869 83.2707 44.7326 83.217 44.6766C83.1312 44.5769 83.0461 44.4765 82.9618 44.3755C82.7163 44.0829 82.4436 43.8193 82.1711 43.552C82.0074 43.3913 81.8441 43.2302 81.6808 43.0691C81.6242 43.0139 81.5677 42.9586 81.5094 42.9018C81.456 42.8489 81.4025 42.796 81.3475 42.7415C81.2744 42.6697 81.2744 42.6697 81.1999 42.5965C81.0939 42.472 81.0939 42.472 81.0939 42.3086C81.0131 42.2817 80.9322 42.2548 80.849 42.227C80.7258 42.102 80.7258 42.102 80.5938 41.9412C80.376 41.6839 80.1503 41.4426 79.9099 41.2063C79.6303 40.93 79.3658 40.6466 79.1103 40.348C79.0111 40.2325 78.9104 40.1184 78.8085 40.0054C78.756 39.947 78.7035 39.8886 78.6494 39.8284C78.6015 39.7755 78.5536 39.7227 78.5042 39.6682C78.3993 39.5324 78.3993 39.5324 78.3993 39.3691C79.5462 39.247 80.6912 39.1846 81.8432 39.1388C83.0167 39.092 84.1866 39.0394 85.3553 38.9199C85.5013 38.9054 85.5013 38.9054 85.6502 38.8906C86.1124 38.8661 86.1124 38.8661 86.4832 38.6342C86.5466 38.4792 86.6054 38.3223 86.6618 38.1646C86.8431 37.6816 87.0582 37.2299 87.293 36.7711C87.831 35.7049 88.3042 34.6037 88.7866 33.5116C89.0937 32.818 89.4061 32.125 89.7494 31.4485Z" fill="#00A896"/>
<path d="M109.347 134.089C111.807 134.084 111.807 134.084 114.317 134.079C114.834 134.077 115.351 134.076 115.884 134.074C116.518 134.074 116.518 134.074 116.815 134.074C117.021 134.073 117.228 134.073 117.434 134.072C117.748 134.071 118.062 134.071 118.376 134.071C118.512 134.07 118.512 134.07 118.652 134.069C119.191 134.07 119.683 134.128 120.207 134.252C120.289 134.268 120.371 134.283 120.455 134.299C122.264 134.687 123.946 135.983 124.943 137.524C125.248 138.016 125.489 138.523 125.678 139.07C125.704 139.141 125.73 139.212 125.757 139.286C126.259 140.908 125.958 142.898 125.19 144.389C124.268 146.072 122.775 147.377 120.928 147.943C119.957 148.211 119.02 148.31 118.014 148.306C117.918 148.306 117.823 148.306 117.724 148.306C117.417 148.306 117.11 148.306 116.803 148.305C116.612 148.305 116.421 148.305 116.231 148.305C115.527 148.304 114.823 148.303 114.118 148.302C111.756 148.3 111.756 148.3 109.347 148.297C109.347 143.609 109.347 138.92 109.347 134.089Z" fill="#051633"/>
</svg>
